<mxfile host="Electron" modified="2024-04-12T02:06:22.312Z" agent="Mozilla/5.0 (Windows NT 10.0; Win64; x64) AppleWebKit/537.36 (KHTML, like Gecko) draw.io/22.1.21 Chrome/120.0.6099.109 Electron/28.1.0 Safari/537.36" etag="0rQpRvvYrxRK1KZlwH_P" version="22.1.21" type="device">
  <diagram name="Page-1" id="GxTGH5BZ1hvYYRw2OHzn">
    <mxGraphModel dx="1194" dy="957" grid="0" gridSize="10" guides="1" tooltips="1" connect="1" arrows="1" fold="1" page="0" pageScale="1" pageWidth="827" pageHeight="1169" math="0" shadow="0">
      <root>
        <mxCell id="0" />
        <mxCell id="1" parent="0" />
        <mxCell id="bWYZ4k5fsg8GDxKLtTMg-3" style="edgeStyle=none;rounded=0;orthogonalLoop=1;jettySize=auto;html=1;" parent="1" source="bWYZ4k5fsg8GDxKLtTMg-1" target="bWYZ4k5fsg8GDxKLtTMg-2" edge="1">
          <mxGeometry relative="1" as="geometry" />
        </mxCell>
        <mxCell id="bWYZ4k5fsg8GDxKLtTMg-5" style="edgeStyle=none;rounded=0;orthogonalLoop=1;jettySize=auto;html=1;" parent="1" source="bWYZ4k5fsg8GDxKLtTMg-1" target="bWYZ4k5fsg8GDxKLtTMg-4" edge="1">
          <mxGeometry relative="1" as="geometry" />
        </mxCell>
        <mxCell id="bWYZ4k5fsg8GDxKLtTMg-1" value="&lt;b style=&quot;font-size: 15px;&quot;&gt;Course&lt;br&gt;&lt;/b&gt;2306&lt;br&gt;2023春软件2306班&lt;br&gt;面向对象程序设计" style="html=1;whiteSpace=wrap;" parent="1" vertex="1">
          <mxGeometry x="-157" y="-105" width="125" height="90" as="geometry" />
        </mxCell>
        <mxCell id="bWYZ4k5fsg8GDxKLtTMg-2" value="Student&lt;br&gt;&lt;span style=&quot;font-weight: normal;&quot;&gt;&lt;font style=&quot;font-size: 12px;&quot;&gt;Alice/Bob/Chole&lt;/font&gt;&lt;/span&gt;" style="html=1;whiteSpace=wrap;fontStyle=1;fontSize=14;" parent="1" vertex="1">
          <mxGeometry x="-43" y="148" width="125" height="61" as="geometry" />
        </mxCell>
        <mxCell id="bWYZ4k5fsg8GDxKLtTMg-7" style="edgeStyle=none;rounded=0;orthogonalLoop=1;jettySize=auto;html=1;" parent="1" source="bWYZ4k5fsg8GDxKLtTMg-4" target="bWYZ4k5fsg8GDxKLtTMg-2" edge="1">
          <mxGeometry relative="1" as="geometry" />
        </mxCell>
        <mxCell id="bWYZ4k5fsg8GDxKLtTMg-4" value="Lecture&lt;br&gt;&lt;span style=&quot;font-weight: normal;&quot;&gt;&lt;font style=&quot;font-size: 12px;&quot;&gt;1、2、3……16&lt;/font&gt;&lt;/span&gt;" style="html=1;whiteSpace=wrap;fontStyle=1;fontSize=14;" parent="1" vertex="1">
          <mxGeometry x="98" y="17" width="125" height="61" as="geometry" />
        </mxCell>
        <mxCell id="bWYZ4k5fsg8GDxKLtTMg-8" style="edgeStyle=none;rounded=0;orthogonalLoop=1;jettySize=auto;html=1;" parent="1" source="bWYZ4k5fsg8GDxKLtTMg-2" target="bWYZ4k5fsg8GDxKLtTMg-6" edge="1">
          <mxGeometry relative="1" as="geometry">
            <mxPoint x="159" y="33" as="sourcePoint" />
          </mxGeometry>
        </mxCell>
        <mxCell id="bWYZ4k5fsg8GDxKLtTMg-6" value="&lt;span style=&quot;font-size: 14px;&quot;&gt;&lt;b&gt;Action&lt;/b&gt;&lt;/span&gt;&lt;br&gt;+n&lt;br&gt;-m" style="html=1;whiteSpace=wrap;" parent="1" vertex="1">
          <mxGeometry x="168" y="235" width="125" height="61" as="geometry" />
        </mxCell>
        <mxCell id="bWYZ4k5fsg8GDxKLtTMg-9" value="" style="shape=image;verticalLabelPosition=bottom;labelBackgroundColor=default;verticalAlign=top;aspect=fixed;imageAspect=0;image=data:image/png,iVBORw0KGgoAAAANSUhEUgAABYAAAALMCAYAAABdbBa3AAAgAElEQVR4Aey9ibcURaKve/7C7tPd56x731rvvXXXPffZIsqgqCACgoIyiOKsKIo4YdvOfRTnGUVBZJR5kEHmeVSIt35ZRhGVu7IqM3ZmVUTmV2sluXdVZmTEF7/Kyvp2EPlvhgcEIAABCEAAAhCAAAQgAAEIQAACEIAABCAAAQhEReDgr8fMr4eOJ8uhQydMshw+aQ4dPmkOHzmVLEeOnjb/FlWrqCwEIAABCEAAAhCAAAQgAAEIQAACEIAABCAAAQgYBDAhgAAEIAABCEAAAhCAAAQgAAEIQAACEIAABCBQUwII4Jp2LM2CAAQgAAEIQAACEIAABCAAAQhAAAIQgAAEIIAAJgMQgAAEIAABCEAAAhCAAAQgAAEIQAACEIAABGpKAAFc046lWRCAAAQgAAEIQAACEIAABCAAAQhAAAIQgAAEEMBkAAIQgAAEIAABCEAAAhCAAAQgAAEIQAACEIBATQkggGvasTQLAhCAAAQgAAEIQAACEIAABCAAAQhAAAIQgAACmAxAAAIQgAAEIAABCEAAAhCAAAQgAAEIQAACEKgpAQRwTTuWZkEAAhCAAAQgAAEIQAACEIAABCAAAQhAAAIQQACTAQhAAAIQgAAEIAABCEAAAhCAAAQgAAEIQAACNSWAAK5px9IsCEAAAhCAAAQgAAEIQAACEIAABCAAAQhAAAIIYDIAAQhAAAIQgAAEIAABCEAAAhCAAAQgAAEIQKCmBBDANe1YmgUBCEAAAhCAAAQgAAEIQAACEIAABCAAAQhAAAFMBiAAAQhAAAIQgAAEIAABCEAAAhCAAAQgAAEI1JQAArimHUuzIAABCEAAAhCAAAQgAAEIQAACEIAABCAAAQgggMkABCAAAQhAAAIQgAAEIAABCEAAAhCAAAQgAIGaEkAA17RjaRYEIAABCEAAAhCAAAQgAAEIQAACEIAABCAAAQQwGYAABCAAAQhAAAIQgAAEIAABCEAAAhCAAAQgUFMCCOCadizNggAEIAABCEAAAhCAAAQgAAEIQAACEIAABCCAACYDEIAABCAAAQhAAAIQgAAEIAABCEAAAhCAAARqSgABXNOOpVkQgAAEIAABCEAAAhCAAAQgAAEIQAACEIAABBDAZAACEIAABCAAAQhAAAIQgAAEIAABCEAAAhCAQE0JIIBr2rE0CwIQgAAEIAABCEAAAhCAAAQgAAEIQAACEIAAApgMQAACEIAABCAAAQhAAAIQgAAEIAABCEAAAhCoKQEEcE07lmZBAAIQgAAEIAABCEAAAhCAAAQgAAEIQAACEEAAkwEIQAACEIAABCAAAQhAAAIQgAAEIAABCEAAAjUlgACuacfSLAhAAAIQgAAEIAABCEAAAhCAAAQgAAEIQAACCGAyAAEIQAACEIAABCAAAQhAAAIQgAAEIAABCECgpgQQwDXtWJoFAQhAAAIQgAAEIAABCEAAAhCAAAQgAAEIQAABTAYgAAEIQAACEIAABCAAAQhAAAIQgAAEIAABCNSUAAK4ph1LsyAAAQhAAAIQgAAEIAABCEAAAhCAAAQgAAEIIIDJAAQgAAEIQAACEIAABCAAAQhAAAIQgAAEIACBmhJAANe0Y2kWBCAAAQhAAAIQgAAEIAABCEAAAhCAAAQgAAEEMBmAAAQgAAEIQAACEIAABCAAAQhAAAIQgAAEIFBTAgjgmnYszYIABCAAAQhAAAIQgAAEIAABCEAAAhCAAAQggAAmAxCAAAQgAAEIQAACEIAABCAAAQhAAAIQgAAEakoAAVzTjqVZEIAABCAAAQhAAAIQgAAEIAABCEAAAhCAAAQQwGQAAhCAAAQgAAEIQAACEIAABCAAAQhAAAIQgEBNCSCAa9qxNAsCEIAABCAAAQhAAAIQgAAEIAABCEAAAhCAAAKYDEAAAhCAAAQgAAEIQAACEIAABCAAAQhAAAIQqCkBBHBNO5ZmQQACEIAABCAAAQhAAAIQgAAEIAABCEAAAhBAAJMBCEAAAhCAAAQgAAEIQAACEIAABCAAAQhAAAI1JYAArmnH0iwIQAACEIAABCAAAQhAAAIQgAAEIAABCEAAAghgMgABCEAAAhCAAAQgAAEIQAACEIAABCAAAQhAoKYEEMA17ViaBQEIQAACEIAABCAAAQhAAAIQgAAEIAABCEAAAUwGIAABCEAAAhCAAAQgAAEIQAACEIAABCAAAQjUlAACuKYdS7MgAAEIQAACEIAABCAAAQhAAAIQgAAEIAABCCCAyQAEIAABCEAAAhCAAAQgAAEIQAACEIAABCAAgZoSQADXtGPTzVqw8FGjhQcEIAABCEAAAhCAAAQgAAEIQAACEIAABCDQHAII4Mj7euu2HWbchCl9l1tvu8vMmrPInL/4OwsMgs/Ajn2njBbyyvs1pgyQW/JKXslATBmIqa6cX3lvkVcyEFMGYqwr51neYzHldueB02b3gVOR27zBVx8BPHjmpR4RAcyJOqYTdd66cgFCrvNmJaTtyC25DSmP/epCXslrv4yE9Dp5Ja8h5bFfXcgree2XkRBfJ7fkNsRcZtUJAeynFRHAftyi24sRwJzQs06eIT7PBQh5DTGX/epEbsltv4yE9Dp5Ja8h5bFfXcgree2XkZBeJ6/kNaQ85q0LuSW3ebMSwnYIYD8liQD24xbdXghgTughnKjz1oELEPKaNyshbUduyW1IeexXF/JKXvtlJKTXySt5DSmP/epCXslrv4yE+Dq5Jbch5jKrTghgPyWJAPbjFt1eCGBO6FknzxCf5wKEvIaYy351Irfktl9GQnqdvJLXkPLYry7klbz2y0hIr5NX8hpSHvPWhdyS27xZCWE7BLCfkkQA+3GLbi8EMCf0EE7UeevABQh5zZuVkLYjt+Q2pDz2qwt5Ja/9MhLS6+SVvIaUx351Ia/ktV9GQnyd3JLbEHOZVScEsJ+SRAD7cYtuLwQwJ/Ssk2eIz3MBQl5DzGW/OpFbctsvIyG9Tl7Ja0h57FcX8kpe+2UkpNfJK3kNKY9560JuyW3erISwHQLYT0kigP24RbcXApgTeggn6rx14AKEvObNSkjbkVtyG1Ie+9WFvJLXfhkJ6XXySl5DymO/upBX8tovIyG+Tm7JbYi5zKoTAthPSSKA/bhFtxcCmBN61skzxOe5ACGvIeayX53ILbntl5GQXiev5DWkPParC3klr/0yEtLr5JW8hpTHvHUht+Q2b1ZC2A4B7KckEcB+3KLbCwHMCT2EE3XeOnABQl7zZiWk7cgtuQ0pj/3qQl7Ja7+MhPQ6eSWvIeWxX13IK3ntl5EQXye35DbEXGbVCQHspyQRwH7cotsLAcwJPevkGeLzXICQ1xBz2a9O5Jbc9stISK+TV/IaUh771YW8ktd+GQnpdfJKXkPKY966kFtymzcrIWyHAPZTkghgP27R7YUA5oQewok6bx24ACGvebMS0nbkltyGlMd+dSGv5LVfRkJ6nbyS15Dy2K8u5JW89stIiK+TW3IbYi6z6oQA9lOSCGA/btHthQDmhJ518gzxeS5AyGuIuexXJ3JLbvtlJKTXySt5DSmP/epCXslrv4yE9Dp5Ja8h5TFvXcgtuc2blRC2QwD7KUkEsB+36PZCAHNCD+FEnbcOXICQ17xZCWk7cktuQ8pjv7qQV/LaLyMhvU5eyWtIeexXF/JKXvtlJMTXyS25DTGXWXVCAPspSQSwH7fo9kIAc0LPOnmG+DwXIOQ1xFz2qxO5Jbf9MhLS6+SVvIaUx351Ia/ktV9GQnqdvJLXkPKYty7kltzmzUoI2yGA/ZQkAtiPW3R7TZjylJky/wuz7N1fWWAQfAYWv77faCGvvF9jygC5Ja/klQzElIGY6sr5lfcWeSUDMWUgxrrW7Ty7+8AFE4KopA7ViHUEsJ+SRAD7cYtuLwngSQt3ssCADJABMkAGyAAZIANkgAyQATJABsgAGahtBhDA1YjXUIQ2AthPSSKA/bhFtxcCGPnNHwDIABkgA2SADJABMkAGyAAZIANkgAzUPQMIYARwdNJuABVGAA8AcgiHQADzIV/3D3naR8bJABkgA2SADJABMkAGyAAZIANkAAGMAA7Bw4VWBwRwaD1SUX0QwHwIciFEBsgAGSADZIAMkAEyQAbIABkgA2Sg7hlAACOAK1JrUReLAI66+/JXHgHMh3zdP+RpHxknA2SADJABMkAGyAAZIANkgAyQAQQwAji/LWvOlgjghvQ1ApgPQS6EyAAZIANkgAyQATJABsgAGSADZIAM1D0DCGAEcENUX6FmIoAL4Yp3YwQwH/J1/5CnfWScDJABMkAGyAAZIANkgAyQATJABhDACOB47V11NUcAV8c2qJIRwHwIciFEBsgAGSADZIAMkAEyQAbIABkgA2Sg7hlAACOAgxJygVQGARxIR1RdDQQwH/J1/5CnfWScDJABMkAGyAAZIANkgAyQATJABhDACOCqHVuM5SOAY+w1jzojgPkQ5EKIDJABMkAGyAAZIANkgAyQATJABshA3TOAAEYAe2iz2u+CAK59F7caiADmQ77uH/K0j4yTATJABsgAGSADZIAMkAEyQAbIAAIYAdwQ1VeomQjgQrji3RgBzIcgF0JkgAyQATJABsgAGSADZIAMkAEyQAbqngEEMAI4XntXXc0RwNWxDapkBDAf8nX/kKd9ZJwMkAEyQAbIABkgA2SADJABMkAGEMAI4KCEXCCVQQAH0hFVVwMBzIcgF0JkgAyQATJABsgAGSADZIAMkAEyQAbqngEEMAK4ascWY/kI4Bh7zaPOCGA+5Ov+IU/7yDgZIANkgAyQATJABsgAGSADZIAMIIARwB7arPa7IIBr38WtBiKA+RDkQogMkAEyQAbIABkgA2SADJABMkAGyEDdM4AARgA3RPUVaiYCuBCueDdGAPMhX/cPedpHxskAGSADZIAMkAEyQAbIABkgA2QAAYwAjtfeVVdzBHB1bIMqGQHMhyAXQmSADJABMkAGyAAZIANkgAyQATJABuqeAQQwAjgoIRdIZRDAgXRE1dVAAPMhX/cPedpHxskAGSADZIAMkAEyQAbIABkgA2QAAYwArtqxxVg+AjjGXvOoMwKYD0EuhMgAGSADZIAMkAEyQAbIABkgA2SADNQ9AwhgBLCHNqv9Lgjgirr4ypUr5tTp0+bkyVPm8uXLhY9y7tz5ZF+ty3gggPmQr/uHPO0j42SADJABMkAGyAAZIANkgAyQATKAAEYAl+HR6lZGcAL46tWr5syZs4n81Fq/Zz3cbS9cuJi1WfK8FaqSspKzVT8kfmfMnGvGTZhi1q5dX/hwzy59OdlX6zIeCGA+BLkQIgNkgAyQATJABsgAGSADZIAMkAEyUPcMIIARwGV4tLqVEaQAXvr8K4n8nD1noTl95kwm88OHj5o7p89Jtn1l+RuZ2/3+++/mqcVLk+0effwZrxG5mYVnvIAA5kO17h+qtI+MkwEyQAbIABkgA2SADJABMkAGyEBoGUAAI4AzVF2jnw5OAKs3Vn77QyJrb5880+zevTezg35cu96Mn3hHsu28+Q+brOkSTpw4ae76YzTue+9/nFlemS8ggPkQDO1DkPqQSTJABsgAGSADZIAMkAEyQAbIABmoewYQwAjgMv1eXcoKUgDvP3DQ3HHnPYnY/ezzr7uy1vQPdqSwplnoJYs3btpiJt5yp7nl1ulm67YdXcsr+0kEMB+qdf9QpX1knAyQATJABsgAGSADZIAMkAEyQAZCywACGAFctuOrQ3lBCmDdNE1TNUjsauoGTeGQfmhqCE0RcfOkaYn81bZZslijfvV6vykl0scYze8IYD4EQ/sQpD5kkgyQATJABsgAGSADZIAMkAEyQAbqngEEMAJ4ND6vrvsGKYAF20pbTd2gKRzSD43k1YheSd3FTy9LBK9GBKdvGufK5G6v23K1naStFp8bxUlSnzp12tib0eUVwLohnY6n7d2b3nETOD6U6/6hTPvIOBkgA2SADJABMkAGyAAZIANkgAyUnQEEMALYuj7W1wgEK4Ct4NXUDZrCIf2wglhSd+XK7zNH+Lo3itPcwunHrt17zYKFj7bnEtZIYS23Tb7LvP7Gu+bixYvpXZJ5iTXlhBbt/803q8yk26Yn+z246IlEAvcTwBLGH3z4aXIce0ytZ9493+zatccggPkQLPtDkPLIFBkgA2SADJABMkAGyAAZIANkgAzUPQMIYATwCJHHEyZYAWyneJAUfePNf3V0lTuqV1LXzhncbY5fO/+v5hTWdvahkcKffPplMoWEjiGB+8STz5rnly03d89e0BbCix5+ypw/f8Hulqx1YzorgFd88ImZdNuMRP6qnDwCWPJ32YuvtveZNuPeRPgueujJpD5T75xt7pl9f/K6RHAZjwlTnjJ1P8nTPi5kyAAZIANkgAyQATJABsgAGSADZIAMNDsDCGAEcBkerW5lBCuABfqV5W8kElQS9uLFS232dlTvndPnGP186dJl88ijTyfbamSw+5A8dsWsfW3L1u2JuB0/8Q7z6j/eSsqwr2ktcTxl6t3Jvi++9FrHPMRWAEs4S94uf/XN9kjh3377LZmGotcIYM1VrONq/uKvvv6uY9oK7bfwwceT46reCOBmf3Bx4UL/kwEyQAbIABkgA2SADJABMkAGyAAZyJ8BBDAC2PV7/NwiELQA/nHt+kSUWtFrO+27VauT53WjOI0G1sNOCeE+J2kseSyR6o4i1j5PPPlc8vxjTywZIX/tcTS1hERtevSwFcDdxLLdN0sAazTxgvsfSY795lv/3SF/7b6HDh1JxDICOP8Jng9DWJEBMkAGyAAZIANkgAyQATJABsgAGSADCGAEsPVrrK8RCFoA25G+krCSwXpo6gbN+ys56o72tXMGu7LY7p+eGsI+75Z7Dcm1n3TzOd2ETsdy5w92BbBG83Z7ZAlgW09NIaFyuj00RcRTi5cmx2UEMB9eXMCQATJABsgAGSADZIAMkAEyQAbIABkgA/kygABGAHdzbU1/LmgB7M71q+kg9LBzA6elrn3elbp2BPHsOQuT/WxnWwmbHtlrX7frCxcuJnP6pmWzFcDpOtj9tM4SwBLJKm/m3fPMqVOn3V06fuYmcPlO7HwAwokMkAEyQAbIABkgA2SADJABMkAGyAAZsBlAACOAOwQbvyQEghbAqqFu1CZhOm/+w+bcufPGytu01HVHBltZbOcQ1ohhvW4fa9euT8qcMXNuImrt8+l1PwHcaxRvlgC2U1XYm8Wlj2l/RwDz4WU/vFiTBTJABsgAGSADZIAMkAEyQAbIABkgA/kygABGAFu3xvoageAFsB1ta2WrFahpqasm2dG1ksXHjh1vj951p2/QduvWb+w6t/A1LK2fqhTAVminj2l/RwDnO7HzAVhTTvfvMJNYYEAGyIBPBhbW9LxIuwyf+WSbDJABMkAGyAAZyJMBBDAC2Lo11tcIBC+ANepXslSjgD/86DOjm7zp57TUVZP2HziY3LBNUzv8sHpt+2c97z7sdhNvudOs37DZfanjZzsHsDuthDZIS+mOnf74JWsEsB197M5VnN7fFc/MAcwHXJ4PuOi38ZE87IMcJANkIE8GEKeIUzJABsgAGSADZIAMNCoDCGAEcNqz8bsxwQtgdZKdymHBwkeNxGnW3L2uOH1myQuJKO421cKlS5fNI48+nby++OllRjdd6/ZYufL7ZKTw9LvuM0eOHG1vMhoBbOWzJLamt+j22LJ1u5l024ykfghgBHD0cjd9sZVH2LANYo8MkIEqM5A+L/F7o74U1u5zlfySXzJABsgAGSADHRlAACOAu7m2pj8XhQC2N3ObdNt0o1G73aSu7cg33vxXIk4lWLXo924PlXnzpGmJ4H3r7feMpLD72L59p5ky9e7k9fdXfNwxh/BoBLBks5XTKn/jpi3uYZNRzLpBnK0/AhgBXJsvqiXLnFvu325YYEAGmpWB0qeG4ctSx5el2nze0K/0KxkgA2SADJCBRmcAAYwA7hBt/JIQiEIA26kYrBTNkrpqkYSqJLG21TotWG2/66ZwErua3kHbSsYufmaZWfbiq+a+uYvaz+v39Ajh0QhgHf/o0WNm1j0LkuPq+DqejiOxPeHmqWbRw0+Zxx5fkryOAEYAR/+F3FP8IvaaJfbob/q7jAx4C2K+JDb6S2L0n7Pkl/ySATJABsgAGejIAAIYAWzdH+trBKIQwBKwTy1e2lfqqlmuLL5r5tzk92vN7fxJElhzBc+YOTcp2wpmradOm51M0ZCWvyphtAJYZRw8eMjMW9Ca29geV/JXo4PPnj1nJH71PAIYARztF9MC4rcM8UMZCEQyQAa6ZaCQFObLU8eXp2g/f+hH+pEMkAEyQAbIQKMzgABGAHfaP35LPOSvx8yvh44ny6FDJ0yyHD5pDh0+aQ4fOZUsR46eNv9WZ1wSwWfOnDX79h0wO3fuMadOnzZXrlwZSJN1kzsdU8fWHMZVPSZMearRHwB8iR2gSM8hfrtJmsznFmwzt7DAgAyQgV4ZKDAlTC4hzJdGrhnIABkgA2SADJABMhBtBhDACOCq3FrM5UYxAjhmwKHUHQE8QAHa5AuFPvI3U/JK3vSSO6nXbl6wzbDAgAw0MwNFzhW9zjl9RXCTz+W0PdovvPzBm+s9MkAGyAAZIAM7DQIYARyKiwupHgjgkHqjwroggLkQGMiFQIYAzpQwKbHrip1S5d78reZmFhiQgTAzUOIfdNxzyIifM0YJZ4pgJCgSlAyQATJABsgAGSADUWYAAYwArlCvRVs0AjjaritWcQQwArhSAVxE/HaRvpmyF2EXprCjX+iXEDOQIZJHiGCdg7rIYEQwn5OVfk4iEKIUCGSC8wIZIANkIM4MIIARwMWMWTO2RgA3o58NAjjOD67gLzgyxK9EygjBkhK/XaVvF6k0cf4WwwIDMkAGemWg6wj/LkJ4hAxOieBMCaxzHQIPBmSADJABMkAGyAAZiCIDCGAEcENUX6FmIoAL4Yp3YwQwArgSeZEhgDvkby/xmxK+mYJn3s9mYsFlwrzNhgUGZCCuDBR9nyfbZ/yRaIQUdoRwLxGcKYH5whfFF75KPuvoe/qeDJABMkAGyEBUGUAAI4DjtXfV1RwBXB3boEpGACOAS/9SXFD+doz4dcTvCOmbEr19Bd7cTWYCCwzIQL0z0OcPOiPEcUoKd8jgLBHsjAZGAvOZWfpnJuIgKnFA/3MOIANkgAzEnQEEMAI4KCEXSGUQwIF0RNXVQADH/QEW5AVIFwGcNfK3LX+zxK8jfTuEb4bUG3/fRsMCAzLQzAxk/sHHkcQdQtiRwd1EcMdo4H4SGImHxCMDZIAMkAEyQAbIQPAZQAAjgKt2bDGWjwCOsdc86owARgCXJpG7iN8Rc/460z6k5W97xG836esI35Fyb4MZf1/O5d4NZjwLDMhAnBnI+z5PtuuU4B1y+A8h3E0Gt0XwH6OBC0lgnQP54gcDMkAGyAAZIANkgAwEmwEEMALYQ5vVfhcEcO27uNVABDACuDRh0UUA5x3568rfbiN9r0lfR/RmSLxx9643LDAgA83KQOYfdjqkcUsKt2VwemTwHyOCRyWB+cIX7Be+0j7r6GP6mAyQATJABshAtBlAACOAG6L6CjUTAVwIV7wbI4ARwKV8KfaUv6741Wi8RP7+Mdp3hPR1hG+H3Juzzozrsdw05yfDAgMyUK8M9HrPJ685fwjqkMNtITxSBrdHBLsi2GckMF8Ko/1SWMrnIf1P/5MBMkAGyAAZCDYDCGAEcLz2rrqaI4CrYxtUyQhgBPCov/DmlL+9pnyw4nfi3E3m5vmbzcR5G1vL3A1mwtz115b71pkJ960z4+/9qfAybs5awwIDMhBvBnze9zpfJIt7HtF5JZkvXP+jwBHB7tQQrgTWHOVpEcycwMF+sRv1Zxpf2ulbMkAGyAAZIAO1zQACGAEclJALpDII4EA6oupqIIARwKP+spwSwHmmfXBH/kr+Tpy3ySx4bqf5+Nuj5pdfL5hLl6+Yq1WHn/IhAIFGEbhy5ao5dvKS+WHjSfPUP3ab2xZucuYP32jcqSGS0cCuBE4LYM1n3ksC88Wxtl8cR/2ZSTbIBhkgA2SADJCBoWUAAYwAbtQXoJyNRQDnBBX7ZghgBPCovsym5G/WTd/s6DnNrTlC/s7dZP77y8Pm7PnfY387UX8IQCAiAmt/PmVmPPpz64Z4zo3jEhGc/GHq5/b5KpkXOC2BewlgnRv5cgcDMkAGyAAZIANkgAwElQEEMAI4oq8rA6sqAnhgqId7IAQwAnhUkiIlgN0RcbdohNwfwiQRwBny9+sfj5uLl64M943A0SEAgUYS2PnLWTPr8S2OBG5NC1GKBOYLX1Bf+Eb1WUdf0pdkgAyQATJABmqRAQQwAriRX3r6NBoB3AdQXV5GACOAvb8Up+Rvx+jfP+RvWwBrDk0rgP+42Zvm3mTkb13OJLQDAvES0Ejg6Y9sbklg3Wzyj9HAaQmcjAL+Yz5g+weuZP3HSGCdA0csfFmsxZdF789J+p/+JwNkgAyQATIQVAYQwAjgeL+1VFdzBHB1bIMqGQGMAPb+YpuSHblG//4hfyVW5i3Zbg4fvxTU+4HKQAACzSSw7J295pb56824e9c7o4E3muQGlc50EIWnguBLX1Bf+rw/7+hH+pEMkAEyQAbIQC0ygABGADfz207vViOAe/OpzasIYASw1xfilPztNvq317y/EsCM/q3NaYSGQCB6Aj9uPmmmPbzJjJuzrlMAz92USOC+N4VjFHAtvhR6fR4iBOh7MkAGyAAZIAPRZAABjACO/otLBQ1AAFcANcQiEcAIYK8vvD4C2Bn9q+kf1m87bX77/WqIbwvqBAEINIzAsZOXzKzHN5ub5vw0chRwSgL3GgU8YgoInSv5UggDMkAGyAAZIANkgAwEkQEEMAK4YV9zcjUXAZwLU/wbIYARwF5yIiWA09M/jBj9mwiYjWoAACAASURBVJK/mmNz78HzBv0b/zmEFkCgDgSuXLlq5jz1s7lp9tpkFPCIqSDmbjLJKOB5P5uJ87ckc5rb85w7D7DOhSMkMF/4gvjC5/VZR9/Rd2SADJABMkAGapUBBDACuA7fXcpuAwK4bKKBlocARgB7fSnOEsB/3PzNipH0jd809YNG/46/d4PZf/hCoO8KqgUBCDSRwJynNpsbZ//YGgU8Z11rJHCvG8It2GZ0rmvfEC5rGgi+ONbqi6PXZyYZIANkgAyQATJABoLIAAIYAdzE7zn92owA7keoJq8jgBHAXl9m8wjg+VuTkXIaLaeRc235K6GCAK7JGYRmQKA+BGY/ucnceM+aZBRw16kgnJvBuaOAEcB8jnp9jiICghAB9B3vXzJABshAszKAAEYA1+fbS3ktQQCXxzLokhDAzfrAK+UCJ0v+avTbHyPikhHAVgCnp3+4d0Myso4RwEGfGqgcBBpHYPYTG83Yu1e3RgG7U0HkHQX8xwhgpoHgc7WUz1oEMYKYDJABMkAGyEDpGUAAI4Ab9yUnR4MRwDkg1WETBDBfVAt/Uc0SwH2mf0imfvhj9O+4OeuYAqIOJxDaAIEaEbjniQ0tAZwxClj/i2GCMwq40M3g+AJX+he4wp9d9AF9QAbIABkgA2Sg8RlAACOAa/T1pbSmIIBLQxl2QQhgBHDhL9F5BLAd/Tt/SyJM3OkfdHMlBHDY5wVqB4EmErACuD0KeM5PyblKU9boxpX6I5bOZcnN4DS1jXMzOKaB4LO08GcpEqLxEoLMcN4gA2SADAw+AwhgBHATv+f0azMCuB+hmryOAB78h070H/SOANZ/dW4v7ghgK4A7pn9ozf0r+av5NfcfOl+TdxHNgAAE6kDgnsfXmxtm/dBjFHBLAHcbBZwWwCOmgUD2IfvIABkgA2SADJABMjD0DCCAEcB1+N5SdhsQwGUTDbQ8BDACuLCQ9hDA6ekfbpq9FgEc6DmBakGgqQRaAvj7tgC+cfaPyR+r9L8W7CjgrGkgEMB8lhb+LEUCDF0C0Ge8b8kAGSADzcsAAhgB3NTvOr3ajQDuRadGr0kAT75/lXn01QMsMMiVgUeW7zfXln3mkeWt5eFXfjEPv7w3WR56eY9Z9NIes+jF3ebBF3aaB5btMA8s227uX7rV3L90i1nw7M/m8PGLNXon0RQIQCB2Ak+/9rO5b/E6M/fp9WbeMxvN/Gc3mwXP/ZycsxY+vy05h+lc9uCLu5Jzm85xOtfZ857OgfZ82FpfO1fG9Bn7wIt7jZaY6kxdm3sNR16b2/cxvu/JK3klt8PPAAIYARz7d5Yq6o8AroJqgGXeettdZtacReb8xXqfCGhfef177sJvxi5nz182djlz7pI5ffaiOXXmQrKcPH3eHD951hw7ccYcPX7aHD560hw6csL8euiYOXDwiLn8228BviOoEgQg0FQCv+z/1ezeu9/s3XfQ7DtwyOw/cNgc/PWo+fXw8eTcdeTYqeRcpnPaiVPnjM5x9nync5/OgfZ8qLU9T2od02fQjn2njJaY6kxdy/uMj40leW1u38eWVdWXvJJXcksGYsxATHXeeeC02X3gVFO/zni3GwHsjS6uHRHAfAgVPaG7UsPKDomPtACWILECWOJEAlgiBQEc1zmC2kKgKQQkgHft2Wf2/HLA6Oe2AD50LBHAOofpj1kSwDq3dRPArgR2z5VFz7PD3B5BwXXBMPNX9NjklbwWzcwwtyev5HWY+fM9Nrklt77ZGcZ+CGC/b24IYD9u0e2FAOaEXvTE7EqNLAEsMZIlgDWijhHA0Z0qqDAEak9AI3/TAljnKv3RSv97IS2A3VHAdgQwApjP1KKfqWw/uswgJkbHj/wNlh95HSxv8l0Ob3JbDkfyOBiOCGC/r2wIYD9u0e2FAB7MiaguJ3xX/urnIgI4mf7h8PHkv1RrZB1TQER3uqDCEKg1ASuA3WkgrADW/14YjQDW+TKWzwG+6HFdEEtWVU/ySl7JKxmIKQMx1pXzLO+xmHKLAPb7uoYA9uMW3V4IYE7oRU7oPgJY/2VaU0AggKM7PVBhCDSKgATwzt2/dMwDnBbAOpfZKSCKjABGAPNZW+Szlm3z5wUxkZ8VuRo+K/I6/D7gfVC8D8htcWbkbHjMEMB+X98QwH7cotsLATy8k1OMHwyjFsCHjjECOLqzBBWGQDMIZAlgeyM4jQBGAPOZGeNnd53rjJjgPRlTvskreY0pr7au5Jbc2izEsEYA+31vQwD7cYtuLwQwJ/QiJ/JeAlhzYGo5deZCcnMkOwdwxwhgBHB05wgqDIGmEBitALbzANupcdLnyyLn2mFuyxc9rguGmb+ixyav5LVoZoa5PXklr8PMn++xyS259c3OMPZDAPt9c0MA+3GLbi8EMCf0IidmV2hYyaG1bnzUTQDrv0pLAGvkXDIFxKFjyQ3g9h04xBzAozxbXL161Wi5cuVKstbPPo+yyvE5NvtAICQCe345YHbs2jviRnB2BLDOYRoBrHPa8ZNnkxtd6oaX+qOXPf+5N4HTudE9ZxY51w5zW77ocV0wzPwVPTZ5Ja9FMzPM7ckreR1m/nyPTW7JrW92hrEfAtjv2xUC2I9bdHshgDmhFzkxuzIjVAFshaa77vXGdLdzf87ax93G/Tlr+6qeP3nypFm9erVZuXKlOXDggPntt9+8DlVWOV4HZycIBEQAAdz6POSLHtcFRa4Lhr0teSWvw85gkeOTV/JaJC+hbEtuyW0oWcxTDwSw35crBLAft+j2QgBzQs9zIrXbFBHAGiE3jBHA586dM8eOHTNHjx4158+fT0bI9npjagTt6dOnk+2PHz9uLl++nIyozdrH3V7HuXjxYs/ts8oZ7fMbN240kydPNtddd5354IMPkrb6lFlWOT7HZh8IhESgiADWuS19E7j0FBCMAObz1X52sq4uC4iJ6tiS2/LZktfymZLT6pmS2+oZk+PyGCOA/b5dIYD9uEW3FwK4vJNNE07cMQjg7777ztx6662JGH3mmWfMiRMnegpajYC9//77zZgxY8zNN99s1q9fn0jgrDezZPHChQuT7adMmWJ27Nhhfv/996zNK3u+LHFbVjmVNZSCITAgAgjg1uchX/S4Lojpeoa8klfySgZiykCMdeU8y3ssptwigP2+OCGA/bhFtxcCmBN6kRP6aATwr4ePm18HMAfwwYMHzezZs83f//53M2vWLLN3796eo4B//vlnM3Xq1EQYazTtihUrjEYRZz127txppk+fnmy/aNGiZOSwpoIY9KMscVtWOYNuP8eDQNkEegrgQ8eSecztHMCMAOazs8hnJ9tWlxfERHVsyW35bMlr+UzJafVMyW31jMlxeYwRwH7fkBDAftyi2wsBXN7Jpgkn7hgEsKZk0MjfG2+80UyYMMGsWbPGXLp0qet7U+L27bffTraT/NXy+OOPG00F0U3q6rlPP/3U3HLLLcm277zzjjl79mzXsqt+sixxW1Y5VbeX8iFQNQEEcOvzkC96XBfEdD1DXskreSUDMWUgxrpynuU9FlNuEcB+35gQwH7cotsLAcwJvcgJvZ8APnXmgtFy8vR5k54DeFAjgPUm1CheTecgoSvBK0nbTehqpO9jjz1mbrjhBnP99dcn2/caNaypHl566SUzbty4RBr/+OOPPaeLqPKEUJa4LaucKttK2RAYBIHRCGCd95gDmM/TIp+nbFtOXhAT5XAkj4PhSF4Hw5k8l8uZ3JbLk3xWyxMB7PetCQHsxy2YvbZu22HGTZjSd0EAV3sCqtsJ3kcA679MHz560gxSAG/bts3ceeedidB98MEHzZEjR7oK4F9++SWZJkICWOJ37NixPUcNu/MF33333Ub766Zw6Ydks130uhb7ezcRbfd3t+n3cxFx65aVrkuRcmw9WUOgjgTyCGCdy44eP53c4NK9CRwCmM/Sun3ex9IexATvvViyqnqSV/IaU15tXcktubVZiGGNAPb7loYA9uMWzF55BfCEm6caLa4g4udr8g4WnSyszNRao2Ht8ttvvyUjYTXVgpYLFy6Y8+fPJ3PpnjlzxujGaZKnmlrh2LFjiZCt8sZpp06d6rhR2/bt20fcqE19++233yY3jNNo4ddee61987isUcNbt25tzxe8ZMmS5AZz7pve5kU81Na1a9ealStXJoumojh06FDCyW7n7quftZ9uWnf06FEjbpbz4cOHk6ksNF+xuGr/POJW26kM9cmuXbvMqlWrkrr89NNPSX+oD/KUk64nv0OgjgQ0f/i+ffvMgQMHzK+//mr0vtN7UecsvS91XtG5TP+jQP97QO9FTTljz3uXL19O3sP2vKi1e8607/vQ17sPnDRaQq8n9ev8fG4qD/JKDmLKPnklrzHl1daV3JJbm4UY1q28nqrjV5VK24QArhRvOIXbUcLh1IiahEzAPem7YkOiw0pgSRBJESuBJUskMyVPJFEkRiVVtE9VD9Xzn//8pxk/frwZM2aM+fLLL5P6uMfT8e10DgsWLDCbN282c+fOTaaC6DZqWGV+8sknyfy/mi7is88+6yhTr6vMLVu2mPnz5yfHtfMKu+sZM2aYdevWJdJI+7gPOyJZN7B74YUXEhEl0az5jFXGpEmTkvJ1nH7iVmWrT7766qtEWqtMtx4a9fzWW2+Z7777zkyePDl57YMPPkikllsnfoZAUwhI+u7fv99IBOuPNfqfA5K/OmfpD1iSvzqXWfmrc5zkr855rvx1z416H9olFo67D5wyWnhAIAYC5DWGXqKOlgB5tSRYx0SA3MbUW9SVvPplAAHsxy26vRDA0XXZUCtsRYbWruSQkAxJAAuS5ue9/fbbE7Gp0b2SN6q3fbjTOUgWS04///zz5qabbjJTpkwx6VHDEjxLly5NXr/11lsTEas224d4fP755+1RxBKuugmd5KrKk4y28wxrDmGNDJZAcuvkCmAdSzezUxnaT4vao1HIeQSw6vvGG28k+0v8an8JZNVH9ZcAlhxfuHBhMqextkEA295k3UQCCOBWr3Ph3MT0x9tm8hpv3zWx5uS1ib0ef5vJbfx92KQWkFe/3kYA+3GLbi8EcHRdNtQKxySANYLv3nvvTcSnRuRK7riyVSNoJWYlfDU1gkbySeDecsstXUcNa9SyHSGsEcMq35antUb13nHHHYlwlmDVyFs7XYM6TUJWo4btaFvJXNXBlciuAJ4zZ04ibDUCWKMSVT/VQWVKNvcaAaz6rF69ui3AVS8JcZVhH/pv7hrpLBFsRwYjgC0d1k0koHOEOwUEI4CbmALaHBsBvujF1mPNri95bXb/x9p6chtrzzWz3uTVr98RwH7cotsLARxdlw21whKLdgl9BLCmodAIWk2fICGr+XOtbFUbNM+vRtdOnz49mR9X7dE8ufpdQlRTMGjaCm2rhzv/r0YM67+C24dGFz/00EOJTJVA1hy7Er7ph8r64osv2qOEn3322WTksT2GK4BVhyeffDL57+f2dbe8XgJY9V60aFEisiWaN23a1G67W4aEsuS4HZmMAHbp8HPTCCCAWz3OhXPTkh93e8lr3P3XtNqT16b1eD3aS27r0Y9NaQV59etpBLAft+j2QgBH12VDrbBEpF1CF8AC9dFHHxnd4E2C89NPP23Pb6s5PB977LFE2D7xxBOJZNX2mq/44YcfTp7X6GGNklU71eb333/fTJw4sWPEsO0MO5pY0vbFF19MxLF9Lb2WLJac1cjbadOmJdJZUzro4Qpg1XvDhg1dxa227SWA3fo899xzyfyl6XrY31esWJEwUt0RwJYK6yYSQAC3ep0L5yamP942k9d4+66JNSevTez1+NtMbuPvwya1gLz69TYC2I9bdHshgKPrsqFW2MpfrWMQwO6IXo0G1jy/qrsVrRLDrvTUa++8804yMlgCdv369clIXo0mfvrpp5PRxO6IYXWGu487nURWR2n7V199NZl3VyOQ3akZbL00f7AV0Nq+2yNLALv10ehn3eRN9c96ZJWTtT3PQ6CuBBDArZ7lwrmuCa9nu8hrPfu1rq0ir3Xt2Xq3i9zWu3/r1jry6tejCGA/btHthQCOrsuGWmHJRbvEIIDdEb2zZs0ye/fuTcT1t99+m0zD0G2UraZL0NzA7qhhd/5fd8SwOkOjd1966aVE6Ooma1u2bEme69VRmgtYU0VIGLuC1hXAmp9Xx816ZIlb9cvy5ctz1yernKzj8jwE6koAAdzqWS6c65rweraLvNazX+vaKvJa156td7vIbb37t26tI69+PYoA9uMW3V4I4Oi6bKgVtvJX6xgEsOqp+XrHjx+fjOpds2aNuXDhQjJNw7hx48x9992XTPOg7ezj2LFjZt68eYkAtqOGJUklhTUy98MPP2xPJaF93NHBRQWwpl34+OOP2+W5ArjfVBJZ4rZofbLKsTxYQ6ApBBDArZ7mwrkpia9HO8lrPfqxKa0gr03p6Xq1k9zWqz/r3hry6tfDCGA/btHthQCOrsuGWuHYBLBgaYoF3QhNslU3ftuzZ08ieMeMGdN1vl7dvO35559PRufaUcNvvfVWIpB1MzmN8LU3k1P57vZWALuvpztMDN0RwKtWrTKXLl1KNitDAKusJUuWJNNV5KkPAjjdQ/zeVAII4FbPc+Hc1HdAnO0mr3H2W1NrTV6b2vNxt5vcxt1/Tas9efXrcQSwH7fo9kIAR9dlQ61wjALYHdH7+OOPm6+++ioZzaubsOlnjQhOPz7//PNkigbN0avpIrSf5tNdsGCBOXToUDINhrvPG2+8kYwy1jbavtecu+4UDekpKMoQwKrXa6+9ltRHU0x8//33bcHs1lk/qz9XrlyZTIfBTeDSdPi9aQQQwK0e58K5acmPu73kNe7+a1rtyWvTerwe7SW39ejHprSCvPr1NALYj1t0eyGAo+uyoVY4RgHsjtCdOXOmeeyxxxI5qikdduzY0XW+Xvfmcc8995yZNm1aMiWEppM4c+bMiD5Yu3atmTx5cjLK+Nlnn23fbC69ofidOnXKaH5fjUDWFBQHDx5sC+WyBPCXX35pNPpXUlfzAeuYOnb6odHCap/ENQI4TYffm0YAAdzqcS6cm5b8uNtLXuPuv6bVnrw2rcfr0V5yW49+bEoryKtfTyOA/bhFtxcCOLouG2qFYxTAAmZH9GpErKaDkHxdtGhRcpO1bmLUvXncHXfcYcaOHZtMCeFO1+B2xOnTp81DDz1kNKpYcwt/8803ychiy0vb6mfdME5z/uoGcJpP+F//+pfRseyjLAEsqTxnzpzkGGqvpnmQCLf10VojkTU9hkS45C8C2PYC66YSQAC3ep4L56a+A+JsN3mNs9+aWmvy2tSej7vd5Dbu/mta7cmrX48jgP24RbcXAji6LhtqhdMC0d4ITmJT895KMmrRFAiaWuH8+fOJ4NSoWY1CPXHihDl+/HgiXrXPoB7uiF4rO995550O+erWRe20N4+z20+fPt2oHLW522PDhg3mzjvvTESqJLDKV1vFRW2VJH799dfNxIkTk20WLlxoJJx0LPsoSwDreHbeYtVfo5M1FcS5c+eSuqhvJKIlhzUNxfXXX48Atp3AurEEEMCtrufCubFvgSgbTl6j7LbGVpq8Nrbro244uY26+xpXefLq1+UIYD9u0e2FAI6uy4Za4VgFsDuiV0JUc/tq9KtkddbDvXmc9nniiScSoZu1vdho6gXJVo3uteJYwlfHs89prakf9u7dO0ImlyWAVceTJ0+25y62ddEIZY0+1lr10CjhFStWmNtuuw0BnNWxPN8YAgjgVldz4dyYyNeioeS1Ft3YmEaQ18Z0da0aSm5r1Z21bwx59etiBLAft+j2um7Cg+Z/TVhqXnx3DwsM+mbghXd2m2vLLvPCO61l2ds7zfNv7TDPv9lanntjm3nu9a3m2de3mCWvbTbPvLbJPP3qRrN4+Xrz1CvrzJMvrzXHToy8+VqVb6B33303kZ8a7XrPPfcYydas0byqh272Nnfu3GT6B00Z8eGHHyYjmnvVURJ4586d5pFHHkmmgtCxJFq11iL5qlHAujFdt2Pv27fPzJ49OxG0L730UjJqOut4mzZtMlOnTk3KzaqbRvzqeJoP2K2LBPBTTz2VzD+s6SH6lZNVB56HQJ0IIIBbvcmFc51SXf+2kNf693GdWkhe69SbzWkLuW1OX9ehpeTVrxcRwH7cottLAvg/JnzDAoOcGfja/MeE1vK38V+ZjmXcl+av475oLTd9bv5y42fmLzd+av597MfJ8ucbPjR/HvOB+dOYFeZP179ndu07Hd37pUiFNQ3Gnj17zOrVq42mh5D01XQQ7pQPRcobzbZuXbZs2ZJMfTGMeoymDewLgaoJIIBbhLlwrjpplF8mAfJaJk3KqpoAea2aMOVXQYDcVkGVMqsiQF79yCKA/bhFtxcCGPld7A8ACODo3uRUGAIQyEUAAdzCxIVzrriwUSAEyGsgHUE1chEgr7kwsVFgBMhtYB1CdXoSIK898WS+iADORFOvFxDACGAEcL3e07QGAhDwI4AAbnHjwtkvP+w1HALkdTjcOaofAfLqx429hkuA3A6XP0cvRoC8FuNlt0YAWxI1XyOAEcAI4Jq/yWkeBCCQiwACuIWJC+dccWGjQAiQ10A6gmrkIkBec2Fio8AIkNvAOoTq9CRAXnviyXwRAZyJpl4vIIARwAjger2naQ0EIOBHAAHc4saFs19+2Gs4BMjrcLhzVD8C5NWPG3sNlwC5HS5/jl6MAHktxstujQC2JGq+RgAjgBHANX+T0zwIQCAXAQRwCxMXzrniwkaBECCvgXQE1chFgLzmwsRGgREgt4F1CNXpSYC89sST+SICOBNNvV5AACOAEcD1ek/TGghAwI8AArjFjQtnv/yw13AIkNfhcOeofgTIqx839houAXI7XP4cvRgB8lqMl90aAWxJ1HyNAEYAI4Br/ianeRCAQC4CCOAWJi6cc8WFjQIhQF4D6QiqkYsAec2FiY0CI0BuA+sQqtOTAHntiSfzRQRwJpp6vYAARgAjgOv1nqY1EICAHwEEcIsbF85++WGv4RAgr8PhzlH9CJBXP27sNVwC5Ha4/Dl6MQLktRgvuzUC2JKo+RoBjABGANf8TU7zIACBXAQQwC1MXDjnigsbBUKAvAbSEVQjFwHymgsTGwVGgNwG1iFUpycB8toTT+aLCOBMNPV6AQGMAEYA1+s9TWsgAAE/AgjgFjcunP3yw17DIUBeh8Odo/oRIK9+3NhruATI7XD5c/RiBMhrMV52awSwJVHzNQIYAYwArvmbnOZBAAK5CCCAW5i4cM4VFzYKhAB5DaQjqEYuAuQ1FyY2CowAuQ2sQ6hOTwLktSeezBcRwJlo6vUCAhgBjACu13ua1kAAAn4EEMAtblw4++WHvYZDgLwOhztH9SNAXv24sddwCZDb4fLn6MUIkNdivOzWCGBLouZrBDACGAFc8zc5zYMABHIRQAC3MHHhnCsubBQIAfIaSEdQjVwEyGsuTGwUGAFyG1iHUJ2eBMhrTzyZLyKAM9HU6wUEMAIYAVyv9zStgQAE/AgggFvcuHD2yw97DYcAeR0Od47qR4C8+nFjr+ESILfD5c/RixEgr8V42a0RwJZEzdcIYAQwArjmb3KaBwEI5CKAAG5h4sI5V1zYKBAC5DWQjqAauQiQ11yY2CgwAuQ2sA6hOj0JkNeeeDJfRABnoqnXCwhgBDACuF7vaVoDAQj4EUAAt7hx4eyXH/YaDgHyOhzuHNWPAHn148ZewyVAbofLn6MXI0Bei/GyWyOALYmarxHACGAEcM3f5DQPAhDIRQAB3MLEhXOuuLBRIATIayAdQTVyESCvuTCxUWAEyG1gHUJ1ehIgrz3xZL6IAM5EU68XEMAIYARwvd7TtAYCEPAjgABucePC2S8/7DUcAuR1ONw5qh8B8urHjb2GS4DcDpc/Ry9GgLwW42W3RgBbEjVfI4ARwAjgmr/JaR4EIJCLAAK4hYkL51xxYaNACJDXQDqCauQiQF5zYWKjwAiQ28A6hOr0JEBee+LJfLFRAvjChYvm5MlT5syZs+bq1auZUOr4AgIYAYwAruM7mzZBAAJFCSCAW8S4cC6aHLYfJgHyOkz6HLsoAfJalBjbh0CA3IbQC9QhLwHympdU53bRC2CJ3FOnT5sNG382P6xemyxrflxnfj102Pz+++8drX3v/Y/NuAlTzIOLnjCSwXkfOsaHH31mJt023Sx/9c0R5eYtZ5jbIYARwAjgYb4DOTYEIBAKAQRwqye4cA4lkdQjDwHymocS24RCgLyG0hPUowgBcluEFtsOmwB59euBaAXwlStXzLffrTbTZtybSF2J3fRy86RpiRi2aHwFsGSxpLHKnzFzbjKK2JYZyxoBjABGAMfybqWeEIBAlQQQwC26XDhXmTLKLpsAeS2bKOVVSYC8VkmXsqsiQG6rIku5VRAgr35UoxTAmsZh0cNPtYXvhJunJmJ28TPLjJa7Zs0zkr8StmvXrm+T8RXAGgH86WdfmZl3zzMqIz2yuH2AgH9AACOAEcABv0GpGgQgMDACCOAWai6cBxY5DlQCAfJaAkSKGBgB8jow1ByoRALktkSYFFU5AfLqhzg6AXz06DEz654FidyV5H37nffN+QsXRrReklZTQezevbf9mq8AbhcQ8Q8IYAQwAjjiNzBVhwAESiOAAG6h5MK5tEhR0AAIkNcBQOYQpREgr6WhpKABEiC3A4TNoUZNgLz6IYxKAF+6dNk89sSSRP5OmXq32bhpS6FWI4CRoMUkaJN5fW3+Y0Jr+dv4r0zHMu5L89dxX7SWmz43f7nxM/OXGz81/z7242T58w0fmj+P+cD8acwK86fr3zO79p0u9D6NdWP9TwG7aIoau9jn8rbLbm/319o+l7cMu532G+3+oy3D1iXEteXqsnZ56fVuD9/98pZly886frdysp5zy3Lb6T6fta99tU1rTQAAIABJREFU3m7r7p+Hk93frm05Wrtl2eftdlWvEcAtwlw4V500yi+TAHktkyZlVU2AvFZNmPKrIEBuq6BKmVURIK9+ZKMSwKvX/GQm3nKnGT/xDrNy5feFW9xNAGuk8KlTp5N5fYvcGK7XwfVl9syZs0mZWuv3fg8dW1NbaMm7T78y3dcZAdxkmevTdgSw+/7p97Pe47/99ps5fPiw+eGHH8xrr71mXn31VfP111+bAwcOmMuXL/eVuCpDUuzs2bNm06ZN5q233jL/+Mc/zHfffWeOHTuWlK9t8pxP7HYnTpww7777rtm4caO5dOlSv2Z0vK4ydH5ct26dee+995I6qH51eKhtasvFixfNvn37zMqVK83LL79sXnzxRfPpp58m/M+cOZNs47bX3W/nzp3m22+/Tfr6+eefNx999JHZunWr0X7iZvvA3d/92ZZl+1uMly1blrBWOefPn0+Or+18HrZ828ZVq1Z11HXbtm3m3Llz7WN0O44tQ9tt2bIlybPl9Pnnn5tdu3Z11LNbGbbuei39HnnppZfMF198kfs9Yssa7RoB3CLIhfNok8T+gyRAXgdJm2ONlgB5HS1B9h8GAXI7DOoc05cAefUjF40A1hfqpxYvTUb/6oZsPrLWFcD60v3+ik/MpNumJ2VqvmCJ5cVPLzNnz54bQfPZpS8n22ntPjTFxO2TZyaLfv55yzYz8+757TJVrn7fs3efu1vyswTE99//OGJ77TN12myz9qcNuWTPiIK7PIEA9pGgTd4nXgF8ReLyiuTlVfPb71fai567ciWfQO3yFsp8SmJr//795pFHHjFjx44111133Yhl3rx5iRy0IjhdmMqQqJOsvfnmm0fsf8MNNxjJsqNHj7aFXboM/a5yrGhbvXq1mTFjhvn73/9uPvjgg0TUddsn/Zz217lJx1q6dKkZN26cmTVrlvnll1+S59Pbx/a7ZS3Re8cddyR8uvXZgw8+mDBw26c+Wr58edc+smXceOONiUzu1VeqgwTvm2++mVnW5MmTE/l/4cKFwp8DKl/y//XXXze33nrriDzZuqpvlblTp061s+O2V88//fTTSQbsPun1xIkTzX//93+b06dPdy1D5ak+kq5Z7xFl9P777zd79uxpy3O3HmX/jABuEeXCuexkUV6VBMhrlXQpu2wC5LVsopQ3CALkdhCUOUZZBMirH8loBPDx4yfM9LvuS8SqRK7PwwrgBfc/ktwsTjePk0yW1J024962tJUElnB2H3kE8Gv/fDu5+ZyE7/PLlpt58x82OoaE7j2z7zdqg/uw8ljbzL73gWQfHUfyV/tojuONm352d/H+GQHcZJnr0/b4BHAifn+/ar5de9Q8/OI2c9PsNeZ/Tlpp/nPiN+b/TPve3PPEJvPOp/vNydOXSxXBGl07bdq0RCSOGTPGTJo0yUjeTZkyJRFnkluSZrfffnsyErebBJbk0+hTCTltf9NNN5k5c+Yk5epnW8YLL7yQiD0JNfeh3yVtVbZGai5cuNBIGltZ108Aa39bhkTe22+/bW677bb2/nURwGrj8ePHzaOPPtrBx3Jy190EsISoRKX62d22288PPfSQOXToUMI13VcaUfvMM88YyeJu+9rnlAeNkJUsVt3zPjTqfPbs2e3c2PKy1osXL05kd/oYkv7qe5u/rP31fK9s7t6929x99919y5k5c6bZvn17e7R73vYW3Q4B3CLGhXPR5LD9MAmQ12HS59hFCZDXosTYPgQC5DaEXqAOeQmQ17ykOreLRgDv2rXH3Db5rmQKiKJz/9omWwEs4XrXzLlGZdqHhO+yF19NxKtG9Lo3j9M2/QSwRg9rNPFXX3/X8UX9h9VrE5ErofvJp1/awyXrPXt+MUuff8UcS4nh8+cvmIUPPp7U5ZklL4yQ0R2F5PwFAewjQZu8T1wCWCN7V649am67/yfzP25eaXrN9fxf0743r33wizl1pjUtQ863UOZmn332WSJLJfz03+r139ztQ2JXUznYUb2Sh2kpKOmm/04vcSzRJhmnqSQkdPXQ9hK6ko4aYSwhmB4VKkGoetxzzz1tOelKu34CWMeSpNOIX43olNBz96+DABbnLPF6/fXXJ30k6S0pq98XLVo0YgSwFcCS6+l9XF5WlL7zzjvJlB6uWJWk/+c//2nGjx/flr/aV6JfOUnLZY1SVq7Sf5S0Geu2dsWtylZd3SVdVx1TI6LTolnlSNzqdS3KqBa1P12GsqkpTzRK2j7Ubk1f8sADD3S0S/sqZ+4fNyyzxx9/PNnHZWbLK2uNAG6R5MK5rERRziAIkNdBUOYYZREgr2WRpJxBEiC3g6TNsUZLgLz6EYxGAK9duz5TzuZtuhXAmkdY8wmnH4cPHzV3Tp+THGfltz90vNxPAEvwPv/C8hFf0t2pKzSFhfslXtIl60uujq8yZ89ZaE6fOdNRF59fEMBNlrk+bY9HAEv+vvbBPvO/7ljVU/ympfDCpVvNkeMXM9+Ded9n33zzjdGiaWW6vZ8l/CRWJbsmTJhgfvzxx475eDVVgKaIkKCTbOs21YIEoEYZS5J1k8gahaxRx3pd5Wibf/3rX+3//t9PAEva6b/6S35aOadRwJKgeq4OAljnW7VJfWBlo1g99dRTyRQe9tys7Q4ePJjM76s+dR8SwBq5++GHH5qTJ0+2+1v8xFhy1Jat9fz58zuEv/KxY8eO9tQc2ka8NfpbUzbo2BL56WkbNO2EnWLBrU/Wz1bcqq2aV1jH1BzQKl9505zFGl3s1rVbrjQ/sv4goTmSNbexzbdEuurkSmyVJTZqh33oeCtWrGj/AUTbqE4qT8xUzrPPPtsxElr10jzaReestsfMs0YAtyhx4ZwnLWwTCgHyGkpPUI88BMhrHkpsExoBchtaj1CfXgTIay862a81UgDPvHtecuO3NBbNK6wpISRe09NM9BPAGgG8bv3GdJHJ71Y85527WCLim5WrknrMmDk3uTFc14ILPIkA9pGgTd4nDgGsaR/+6SF/rQxOJPCJ0UlgvV+tGMt6S+pGblbq6WZhGmmph/bTXL12ugVJ27R01HauRL7lllvMhg0bkufs8XTTuKlTpxr9F3odS+W7UjiPAF6yZElSx+eeey6Zr1VlWCkcuwAWZ92w7K677mqPXJX81Ry8RcSqypHU7Nbfbh9ZsZrmpn11g0BXnN57773JTdD0Wrqv3XL27t3bHhVu+z1rrTmpdQNBrW257rZqs+S+O02IpizR9AtWhGt77aulW3u7lZGeNkOSXGLZHdWsemlf+5BsT09XoekkJNu7HdfuN5o1ArhFjwvn0aSIfQdNgLwOmjjHGw0B8joaeuw7LALkdljkOa4PAfLqQ82YaASwpn3QyN1bbp1utm7b4dXafiJ2NAK427QRtpK9jnvp0mWjaSKWPPuikZh2b0onEY0AbrKEHWbb4xDA3/501Fw344dCI3+t/LXr5e/tNafPXrZv10rWWTJWck0jKTXqUf/9X2LXnULCrYz+i77kr8Sl/e/69nVJY8k2V95lHdPu4661n0aGulNLuKOC0yLT3TeGn8VZU3G4o38lJiUCy5KMKkdy05W7aW7dhKimg9DoWvfh/sHAjppNjxx3t0//3Evcalu3b61k1uhlzR/tZihdrvt7tzLS02YogxLL9hjir3ZIltuHftaIZI2Qt9ulpbjdtqw1ArhFkgvnshJFOYMgQF4HQZljlEWAvJZFknIGSYDcDpI2xxotAfLqRzAaAbx37z4z+Y5ZyajYzz7/2qu1vUSsChy0AN6zd1/7xnaSvZK/ksCLn1lmHnpkMSOAJwxTgDb92OELYI3+nfX4xr5z/lrRm7XWnMB7D54rTQSmT04Sg5q3V4JN0ylI7kme6aH/Aq85TzUSU/P36r/cS951e/z8889tmfbyyy8nIyS7bWefKyKA7T7u2hV8aZHpbhfDz2nxKt5fffVVW3hbYaq1+quoFNb24qXR0+pjKzKfeOKJ5KZzltHOnTvN9OnT26+n82C30xQOGs3tzrPrjhy32/muJfrt6G5bV41C37p1ay4BrPZqhK5G/Lqje19//fW2zNY277//fntOaR1HOeo2ktn+ccOnLj4MEMAtalw4+6SHfYZFgLwOizzH9SFAXn2osc+wCZDbYfcAxy9CgLwWoXVt22gE8Llz5828+Q8nUvSRR582Gjlb9BGSAD51+rSZfe8DSXsef+JZc+TI0Y7m2DmPGQHcdBE7rPaHL4C/K2H0r5XCr76/15w5V/yc0vGmzfhFc5laMSjJplGWdpSv5kvVPLEa1Zv+7/Pp4iQFJdAkBSWNjx8/nt6k43cE8DUcafFqpzuQCJVYl7jUFBiagmPPnj3J/LMSmFq6PVxhrBGzGsUqyX/77bd3yF07160tY82aNe3pPiQ7NaJ78+bN7TzY7SSsFyxY0CFX80h/u3+vtdqkqSH0BwdXMN93333JVBTpNuv3dHvFTTe4szc3VFs0xYkyZ7MtLi+99FLHXMO6GdyRI0dGcF2/fn0HO40G/v777yubBxgB3EoIF8693im8FhoB8hpaj1CfXgTIay86vBYqAXIbas9Qr24EyGs3Kv2fi0YAqylvv/N+IkxvnjTN/Lh2ff/WpbYISQBrvmDNG6ybzunmc+kHAnhY4pPjtqRo+AL42Td2mf9n8nejmv7BCuCZj200h49dSL8NR/275NlPP/1k7rjjjkQMakTosWPH2gLMlbrpG2ilDy5ppf8an0cWa18E8DWC3377bXsOZslKyU/daCw9P60dgSoZb0djp4WoStUobk1boFG0jz32WCIvXZk6duxYo6kd0vML6wZvkr72OFmjbjW6Nl033ShOz4/mobZIVqtu7lQVqrutb7p8ba96648Yau/DDz/cIX61r8r6+OOP23Nbqwx3BLltr/ZV/tMPN6vaVgJ41apVCOA0qJJ/58K5ZKAUVykB8lopXgovmQB5LRkoxQ2EALkdCGYOUhIB8uoHMioBfPz4CXPP7PsTCTz9rvuMplAo8ghJAFvBq1HNGt3sPvQl/eVXXk/ayQhghKyVlINdhy+Ay5j+wTLVNBC//HrOfRuO6me9h7VodKn9r/waHaqbtdkRkjqAK4D7CT5XCvYbLayyXanW7yZw3RrrCrzYp4BIT0WgaRimTZvWMcLWSkq7fuihh8yhQ4fast5llL6Rm91H0yGob9TPGvmtDLiPdD2yuLp9bcvulw/3ON1+Vl1UpxUrVnRIaJU/Y8aM5CZ53eb/dXNg62LXmsJi8eLFZvfu3Umu3fa605vY7bPa4GZV2yKAu/Vg+c9x4Vw+U0qsjgB5rY4tJZdPgLyWz5QSqydAbqtnzBHKI0Be/VhGJYDVRN0wTSOA7Zy5773/UXs+TYtAX0KPHDlmXnrln2bDhs32aROSALYjgCfdNsNs3ry1XUfVfdX3a9ptRAAjgK2kHOw6fAE8af7aUkb/iut/TvzG7N5/tv0+HM0Peg9LpGkEo0b+aoSkbn6Vng5Ax0AAj4Z0/n2zhK1G6krMT548uWPuXklIjbR+7733knmaXbGpo2aVp/00LcLSpUuT6RSUA3ff9H6DEsCqw/nz582rr77acSM81VfZdOelTlPtJYC1v/hpCg1N7WDnUFYZRSQ2AjhNfTC/c+E8GM4cpRwC5LUcjpQyGALkdTCcOUq5BMhtuTwprVoC5NWPb3QCWM2UPLU3hJMI1lQKU6fNTm6oppHBVhDrNY20tY+QBLA7B7Dqq3mAl734qrlv7iJzy63TzdPPvMAIYG4CV5rgLC6PEcD2vFFkLdGmkY/Lly9v/xd7CUFNQSCRln74CGCmgEhT7P97WrxKXM6ePTuZ71fSUg9NsZGed1fzM+t5V+JqW4lhjezWXMISqBr5604BofI1J+6PP/7YMRJYotSdekECuNtN0YrI016tV721qA0a0ayb36ludlHdNXex5vTNemjUsPKsUcJqr+rfrb3ioZvIaYS7jqnpLzTnr3uTuBdeeKHrNBYI4Cz61T7PhXO1fCm9XALktVyelFYtAfJaLV9Kr4YAua2GK6VWQ4C8+nGNUgCrqSdPnjL/eO0tc9vkuxJRKtnrLnper58+c6ZNJiQBrErtP3DQzLmvdSM4W3eJbY0A1hzHeo4RwIwALi5vy2AWvgC++/GN5n/csrIUSf5/pmsKiM6pWNonjhw/WNGm/wovaWgF2Zw5c8y2bds6pn1wi3MFcJYcs9sfPXrUzJ07lzmALZAC67QAlsRcvXr1iDlm887Rmz60RtdqXzvi2wpWSVFlwk6tkC7f3ozOvm7LtQJYst+WlTV9gt0nvVYmVa5usCZ5mxbUquu6deuSOYHT+/b7XXL37bffHjGVhKa/sNNmdBs5nHXzQgRwP+LVvM6FczVcKbUaAuS1Gq6UWg0B8loNV0qtlgC5rZYvpZdLgLz68YxWANvm6kvumTNnzb59B8yGjT8bzROcnlPXbhvi2tZ/+/ad5ujR421RUHZdr5vwYCmibDgysgyhSRnF+i58Abz0zd3m/y3pJnCaT/jwsZEjdPO+DzWKVKM977zzzkS0aW5USUeJPL3Hsx779+9PbkgmOacRmu4N4tL7uLI4jwx0pVrT5wDWvLcaiW1lqub/3bVrVzJlgctZczZLytrtJk2aZLZs2ZL7vKwMaEoEu78E7qefftq+OdqXX35pVKZ93Zbvzgut+riy326r+YM1ujzvQ5n86quvOuqjslQn3Yzw4MGDI9qft2xtp1x/+OGHHVw1otiOetbI4SVLlnRMrWHnrk6/J9asWWN0QzzbVnHZvHlz5h9OitSz27YaEa2b/B04cCAZHa3pK/TeO378uDl58mQyevnMmTMJb8l9jZBWe3RDPC3qL8l1MbaL2mSXbscM8TkunEPsFeqURYC8ZpHh+RAJkNcQe4U69SNAbvsR4vWQCJBXv96IXgD7Nbt5eyGAEcB1E8Dfrz9m/n7XD6X8YeO1FXvNmXO/eZ0YJH1++umn9uhPjay0Eqxfge5/k7/33nsTISWh1O0hIWblZB4ZiAC+RlFz3GpKBisYNTJ3z549IwTozp07jW4QZ7ezgjY9QvdayZ0/nThxIhkBnjVyV4JZ+bDl6w8F3aYHSddD2/Wap7ezFi05u2HDBjN16tT2sXRMlfPOO+8Yyc20hE2Xked3TV8hlu7oYvePDW+88UbHlBfduKse3W6O121qjDx1yrMNArhFiQvnPGlhm1AIkNdQeoJ65CFAXvNQYpvQCJDb0HqE+vQiQF570cl+DQGczaZWryCAEcB1E8B6g97zxKZRTwPx/03/3uzznP5B8kojc++5555kZGV6Xtl+JxGNJnz++efNTTfdlAhKCcL0aFCV4UoyO8pS+/Z6IICv0dFoX1fsajSwpkZwGYqxpoVwR6LqZ03hIQGs193lWunXfuo2ctcdra3pEST6XUGsqRRcIatjaNTwLbfc0pa3ksY7duzIPRJZf1hIz/mr3HS7EeG12nf+5LZVP6cfei4tqiWZXQGcFu/duGt07dNPP90xUlgjlDUat6oHArhFlgvnqhJGuVUQIK9VUKXMqgiQ16rIUm6VBMhtlXQpu2wC5NWPKALYj1t0eyGAEcB1FMCr1h8z149iFPB/TvjGvPaB/+hficFXXnnFjBs3zkyePNnrv61//vnnybQAkoIff/xxMl1AWrjpv6FLio0dO9bcfffdiXTOGilsT04IYEvCJP+V3/Kzo2+XLVtmNGLXik7NWWtlvN1GN4Wzc9pKFmtUqqZhEHu7n13ruR9++KFjygWNjNU0Ceo/PXSMZ555pkN2uqNiVZZk8GOPPZb0ta2H5s51pwfRdjqeu+g5PbT++uuvO6aaULb+9a9/JWW7+6R/1r62HNVVf9xQ3bWdfc2ulf301Br6Q8aqVavacytrmgXl1R0hLO6aZsGWs3379o45ilXXTz75pM0saVTJ/yCAW0C5cC45WBRXKQHyWileCi+ZAHktGSjFDYQAuR0IZg5SEgHy6gcSAezHLbq9EMAI4DoKYL0R3/xov/nfd64qPBWE5O+iZdvMsZOXvN/PEkm60ZuklcSeRi2mpVr6dyu+tNZDc7GqDEkyyUCNVk2PONWUEpr+Qdu8++675uzZs33rjADuRGRFu5WqN9xwg3n99dcTsSrp+tZbb5mJEye2R93qRn4SnHbeXXtTM/WRntf8sXpOI7bV7++9917HNBM6jqaQUD+4o7o15YM7yljbSU5rPmj1q+aO1mhdW0/9ccGVqmqVRgO/9NJLychZjZ6VZLaZkKheunRpMqrclqG2LFy40CxevLi9j/ZzF5WnNil7etgb0WnE8hdffGE0T67K1iIpvnz58o566lh33XVXx9Qa2lY3N5QYtnXRz5ryQeXreJoXWH1hX8/7B47O3i32GwK4xYsL52K5YevhEiCvw+XP0YsRIK/FeLF1GATIbRj9QC3yESCv+Tilt0IAp4nU9HcEMAK4rgJYb1lJ4P8qIIH/c+Lo5a+O6940TIJNIxf13+x7LRolKvklMayHRLAEnv0v/ypn9+7d7ZtNbdq0KRHDksyaYiLv3KgI4ARv+x+J3CeffLJjZK2Vjt3Wjz76qDl8+HDHiNj0VAXd9rPPSdZLkqqv3UfRejz11FOJYLZ/MNBa8/i6ktiddsGKW0lfW5c86/R8x0XLkcT96KOPRozc1TQRkubuKOCs+qiMzz77LLnpmsus7J8RwC2iXDiXnSzKq5IAea2SLmWXTYC8lk2U8gZBgNwOgjLHKIsAefUjiQD24xbdXghgBHCdBbDekJoOYsoD68z/NWmlkeDt1l49rxvHvfnxPu+bvrlvfleyZkmt9PNp0aby9N/sn3322Y6RkhqNqtGSVpxpHljdCM4dTerWJf2zWzdXEKa3y/rdjnjVjcNmzZqVa9qJrLJCeV6jbOfPn98x4jTdP+J93333jRDt4pGeviG9r/1d8lUjX91pG1wGeeuhPwZoGgX7xwKVcenSJbNkyZL2NBKaV1c3fLO5KCpubZ3TuVQ5On4ekdzr5nIS1vqDiPJrs2yP6a41vYlGP2v+Yiu7XWZl/iwBrD7QCGT9rNHN6iuN5Nb0FKqDRoVL1uu9qXmKxd2OgBZrjZR2R/erznYps65VlsWFc5V0KbtsAuS1bKKUVyUB8lolXcquigC5rYos5VZBgLz6UUUA+3GLbi8EcHch2E0S8pxYfd1e/jb+K9OxjPvS/HXcF63lps/NX278zPzlxk/Nv4/9OFn+fMOH5s9jPjB/GrPC/On698yufacH+n75fv0x8/gr283E+340//ft3yZCWNL33sWbzXtfHChF/NoGaXTu1KlTkykgNEI3z3L77bebrVu3tv+rvS1LglHTO2h6AJUjWaa1RkVKxNmpIez2/dZu3dx5aPvtZ19XfSQax48fn9zkTvPBuiLSbhfbWnLvH//4RzLi2vaXZa22atSuZGC6rRJ+ukmcpuuQrEzvq98lQufNm5cIWQnDXg/NP6xpFyRw02VJ/mt6CjtHsVuOnpPE1j4SqJLVEplWmqp9DzzwQEcdbfm91ulcSnZqNO6MGTOSDNp9LSv9rj9QaH5ijfK1Atqtq/1ZddNcv8qxGGlftxzdoE/TXChzg3hYAazpVzSdBQJ4ENQ5BgRGR4AveqPjx96DJUBeB8ubo5VDgNyWw5FSBkOAvPpxRgD7cYtuLwQwAriY2I5XAEf35kxVWOJtz549iWzcsmVLMhoxLSNTu/CrBwFxljhds2ZNwlo/S9pakdqrSIlKicO1a9cm4vKnn35KftfzefZ3yy5aD8lWCVM7elYyW9K3yodGwWrErFhJ1GrE8dGjR5MRsUXbq7IkgzUVisqR0B50vhHArbRw4Vzlu4ayyyZAXssmSnlVEiCvVdKl7KoIkNuqyFJuFQTIqx9VBLAft+j2QgAjgBHA0b1tqTAERhDQTeRuvfXWRABrBG76BnEjduCJEQSyBLBkdLcpICT2mQJiBEaegMBACfBFb6C4OdgoCZDXUQJk96EQILdDwc5BPQmQVz9wCGA/btHthQBGACOAo3vbUmEIdBDQaFtNDWFvAKeRwJoaZNAjaDsqFeEveQTw2bNn23MAI4Aj7GSqXDsCfNGrXZfWukHktdbdW9vGkdvadm0tG0Ze/boVAezHLbq9EMAI4DIF8N/sPMDOHMB/ufGTIOYAju7NSYUhkJOARqFqjmLNyztlypTkZ92sjUcxAqMRwJrrmJvAFePN1hAogwBf9MqgSBmDIkBeB0Wa45RJgNyWSZOyqiZAXv0II4D9uEW3FwIYAYwAju5tS4UhAIEKCCCAW1C5cK4gXBRZGQHyWhlaCq6AAHmtACpFVk6A3FaOmAOUSIC8+sFEAPtxi24vBDACGAEc3duWCkMAAhUQ6CWANaJaN9XLmgKCEcAVdAhFQiAHAb7o5YDEJsEQIK/BdAUVKUCA3BaAxaZDJ0Be/boAAezHLbq9EMAI4EEJ4H+/4SPz5zEfmD+NWWH+dP17Zte+09G9X6gwBCBQXwII4FbfcuFc34zXsWXktY69Wt82kdf69m2dW0Zu69y79WsbefXrUwSwH7fo9kIAI4ARwNG9bakwBCBQAYEiAvjChQvGvQkcI4Ar6BCKhEAOAnzRywGJTYIhQF6D6QoqUoAAuS0Ai02HToC8+nUBAtiPW3R7IYARwFUJ4L8mN4L71NibwDECOLrTAxWGQKMIIIBb3c2Fc6NiH31jyWv0XdioBpDXRnV3bRpLbmvTlY1oCHn162YEsB+36PZCACOAfQXwf0z42vxt/FfXlnFfmr+N+9L8ddwXRvIXARzd6YAKQ6DRBPoJ4DNnziRzAJ8/f97kGQF89epV4y6xwOXCOZaeop4iQF7JQUwEyGtMvUVdLQFya0mwjoEAefXrJQSwH7fo9kIAI4BLE8CSwSME8GcjRgAn8wBf/z5zAEd3tqDCEKg3gUOHDpkDBw4YieDDhw+bo0cWxf4YAAAgAElEQVSPmuPHj5sTJ04Y3QSunwD+/fffjZYrV64kiyt/9XMsDy6cY+kp6ikC5JUcxESAvMbUW9TVEiC3lgTrGAiQV79eQgD7cYtuLwQwAhgBHN3blgpDAAIVEMgSwCdPnkQAV8CbIiFQBgG+6JVBkTIGRYC8Doo0xymTALktkyZlVU2AvPoRRgD7cYtuLwQwAnigAviGDw0jgKM7TVBhCDSCQB4BfO7cOZM1BQQjgBsRExoZGAG+6AXWIVSnJwHy2hMPLwZKgNwG2jFUqysB8toVS98nEcB9EdVjAwQwAriYABavr9tLxxzAmVNAfGr+fezHJrkJHAK4HicOWgGBGhKQAD548KDR2p0CQiOAT58+nUwB4SuAY8LFhXNMvUVdySsZiIkAeY2pt6irJUBuLQnWMRAgr369hAD24xbdXghgBPDABPDYj82frQAes4I5gKM7W1BhCNSbgKSvFcBHjhwxx44dS+b/zRLAly5dMpcvX06W3377LZn/N2sO4JjIceEcU29RV/JKBmIiQF5j6i3qagmQW0uCdQwEyKtfLyGA/bhFtxcCGAFciQAe94X5602fm7/cqJvA/TECGAEc3fmBCkOgSQQkgHUDOI0AdgWwbgCnEcBnz541dgTwxYsXTTcBbG8Ap7V7E7iYOHLhHFNvUVfySgZiIkBeY+ot6moJkFtLgnUMBMirXy8hgP24RbcXAhgBXLYA/tu4L81fUwL4Lzd+cm0aiDEfmD+NWWF2/nLKXL0a3VuGCkMAAjUlYAWwO/3DiRMnOm4AJwF84cIF4wpgjf61I4ARwDUNB80KlgBf9ILtGirWhQB57QKFp4InQG6D7yIq6BAgrw6MAj8igAvAinlTBDACuFQB3HUe4E9NhwD+YxqI7XsRwDGfO6g7BOpEQKN1NerXjv49evSoOX78uHGnf9AI4Lw3gGMEcJ3SQVtCJsAXvZB7h7qlCZDXNBF+j4EAuY2hl6ijJUBeLYliawRwMV7Rbo0ARgBXL4A1DcQfI4CdaSC+XXvIXLr8e7TvHSoOAQjUh4BG8EoAa/SvO/2DK4Dt9A/dRgBr7l93/l8EcH2yQUvCJsAXvbD7h9p1EiCvnTz4LQ4C5DaOfqKWLQLk1S8JCGA/btHtJQH8Pyd8aG68Zw0LDPJl4O7V5kZnGXv3DyZZZv1gxs76wdww63tzw8xVZszM78yYu75NlutnrDR/n/61+fv0r8x107401935hXnjg53mzNnL0b1nqDAEIFA/AhrZK/nbbfqHrPl/7RzAdvoHVwC78//q55geXDjH1FvUlbySgZgIkNeYeou6WgLk1pJgHQMB8urXSwhgP27R7TVuwhSjhQcE8hJIiw0756UdAScZcvny5WSRINFoOckVjZ7Tf6GWTNFNlbRoHx4QgAAEhk1AI33t9A/Hjh0rNP0DAnjYvcfxm0yAL3pN7v342k5e4+szamwMuSUFMREgr369hQD24xbdXgjg6Lps6BXOEsASwRK6kiFWAksA62ZJksBWAJ85cyaRvxIuel778YAABCAwLAL6A5WmfdBi5/61N39Lj/7tNv2DFcD2j2Fap8+Tw2qbz3G5cPahxj7DIkBeh0We4/oQIK8+1Nhn2ATI7bB7gOMXIUBei9C6ti0C+BqLWv+EAK5191bWuLTcsOIjPQrYFcB2FLAEsKSKBLAki4SKyuMBAQhAYNAEdI5Kz/1rb/6m/6Wg85X+54L+gOXKX+2n/+lg5a/OffY8mD4/DrpNoz0eF86jJcj+gyRAXgdJm2ONlgB5HS1B9h8GAXI7DOoc05cAefUjhwD24xbdXgjg6LosiAqnBYcVH2kBLEFiJbAVwJIp7ihgyRa9pjJ4QAACEBgUAQldO++vvfGbzkc+o38RwIPqNY4DgU4CfNHr5MFvYRMgr2H3D7XrToDcdufCs2ESIK9+/YIA9uMW3V4I4Oi6LIgKZwlgSVyJkKxpIKwEtqOANcJOssVKF72ufbNGBGucMGOFg4gAlShAgNwWgFXhpjqv6Pyi84zOOb/++msigNNTP+h/J+h/Kbijf7WPprPR4o7+tSOA7R/BtE6fHytsUiVFc+FcCVYKrYgAea0ILMVWQoC8VoKVQismQG4rBkzxpRIgr344EcB+3KLbCwEcXZcFUeG04NDvVoCkRwFLlmjRaDsrgO0oYHcqCAkZ3XzJ/nds3ZBJgubgwYPmwIEDZv/+/ea7H382367ZbH755Zdk2bt3r9GyZ8+ejmX37t2GBQahZODrVRuMllDqU6d6pN/79pxgzxH79u1Lzh06f+g8ovOJzis6v2j0bzf5m576Qectd/oHO/WDlb+9Rv/q3Bjbgwvn2Hqs2fUlr83u/9haT15j6zHqKwLklhzERIC8+vUWAtiPW3R7IYCj67IgKpxXAEuQuNNAdJPAki12PmArgXUjpm4ieNWPW4wWyRyJHbtY2aO1FUCsW3IcDsPnsPKHTUYLfVFNX7jvf3tOsOJX0reX+NUfnez/QNB5SOejXjd+6zb6FwEcxMcSlWgoAb7oNbTjI202eY204xpebXLb8ABE1nzy6tdhCGA/btHthQCOrsuCqXBaAtsRwFqnRwH3ksCSLXkksEbs/fDTNvP92q3tUcF2ZLCEsF1cAcTP1yQ5LIbHQqPWtdAH1fSBfe/btSt93RG/6VG/WfLXnfpBf7TKO/q3DtM/6AOGC+dgPmapSA4C5DUHJDYJhgB5DaYrqEgBAuS2ACw2HToB8urXBQhgP27R7YUAjq7LgqlwWgDrdyuBrQDWOj0KWHNodpsKopsElqBxRwOvWb/DrF63Pfnv2/pv3HaKCEkeO1WElT9511Yasb4m0WFRLgtNXaIFrvm45n3vutvZc4AVvnaaByt93ekedF7JI3+7Tf1gp39wz3H2vNftnBjMCbtARbhwLgCLTYdOgLwOvQuoQAEC5LUALDYNhgC5DaYrqEgOAuQ1B6QumyCAu0Cp41MI4Dr26uDalBYeVoRobQWJBHBaAqengnDnBO4lgtds2Gm0SObYRYLHLlYKF1m74oifWyIdDuVy0Kh1O3Idtv3ZFnn/2m3tOcAVvlb62nl+84hfnYvOnTuX/JHKHfnbb+oHnfPS58PBnYnLPRIXzuXypLRqCZDXavlSerkEyGu5PCltMATI7WA4c5RyCJBXP44IYD9u0e2FAI6uy4KqcFp46PcsCayRc1lTQUi4dJPA7tzAmqdz7abdyaJRwXZksOSOXawULrJ2xRE/X5PpsCiPhUat25HrcO3Ptcj7125rzwF2bc8RrvR15/p15/t1p3woS/7qXBjrgwvnWHuumfUmr83s91hbTV5j7blm15vcNrv/Y2s9efXrMQSwH7fo9kIAR9dlwVU4LYG7CWB3KohuEjg9JYSEjJ0b2B0RvO7nveanzXuSmzbZG8ZZwaO1lT6sW4IcDmFw+HHjLqOF/qiuP9zzgH7W+cEuJ06cMFqs9NU5RecXnWdc+avzUHrah6yRvzqnuee69HkwuBN1gQpx4VwAFpsOnQB5HXoXUIECBMhrAVhsGgwBchtMV1CRHATIaw5IXTZBAHeBUsenEMB17NXBtiktPvS7K0a6TQWRlsDulBDuaOC0CN6wZZ9Z//MvicixUsddW+HD+pr8gsXwWeiPFu4fLuiT8vvEPQ/YnyV8XembJX7dUb/dpn3Q+cpOZWPPZ+45rts5cLBn4XKPxoVzuTwprVoC5LVavpReLgHyWi5PShsMAXI7GM4cpRwC5NWPIwLYj1t0eyGAo+uyICvcTYC4gsRKEytRJFRcCawbw1kJbEcDp0WwZPDGrfuTRSLHXazo6bW2Uoh1azQkHAbHQSPXtcB8dMx7vb/ta+55wQpfd7SvO+LXil931K/ORRr16zvyV+fC2B9cOMfeg82qP3ltVn/H3lryGnsPNrP+5LaZ/R5rq8mrX88hgP24RbcXAji6Lgu2wnklsGSwvSmclcCSLVYCZ4lgzRG8aftBs3HbgfZ/3ZbY6bWkZRC/d4pzeAyGh0aua4F3ebx7ve+7CV+dP+wN3tLiN++oX5273D9sdTvnBXuCLlAxLpwLwGLToRMgr0PvAipQgAB5LQCLTYMhQG6D6QoqkoMAec0BqcsmCOAuUGJ6auu2HcbK3TzrmNpGXcMk0E2G6DlXmNiRwFYCp0WwJLBdJGXSMnjzjl+NFitz0muN7mOBQWgZ0B8t3D9chFa/OtQnfS6wv0v22sWd49dKX3u+cUf9dpvyIY/81fmuDg8unOvQi81pA3ltTl/XoaXktQ692Lw2kNvm9XnMLSavfr2HAPbjFsxeCOBguqJxFekmgotIYCtirJixIljrn3f+mixW5Fixk2dthRDr1khIOAyOg0aua4H56JjneZ/bbew5wq7d84g9t9hzjdZ2Whpf+VunEz0XznXqzfq3hbzWv4/r1ELyWqfebE5byG1z+roOLSWvfr2IAPbjFt1ednRwdBWnwsES6CaA84wEdkcDu1NDSM5YYbN192GzZdehZGSwK3T0sxU9rM/D4nxYDNJ/uCCj1fRP+pxgf7fnD61d6ZslfnUucv+3gvsHrKzzW7AnZI+KceHsAY1dhkaAvA4NPQf2IEBePaCxy9AJkNuhdwEVKECAvBaA5WyKAHZg1PlHBHCde3d4bcuSJK5IcQWLOyVEWgS7MnjbniNGiyt0uv1sxQ/r1jQacBguB/3RIusPF/TN6Pqm2/vffS4tfNPS1x3xmxa/TZr2wf204MLZpcHPoRMgr6H3EPVzCZBXlwY/x0KA3MbSU9RTBMirXw4QwH7cotsLARxdl0VR4SwBnB4JLCHcSwSnZfD2PUeNFlcKdxM8Wc+5Yoifr823DItqWWjkuhY4+3POek/3e17nivSi80p6SZ+H3D9W6ede57QoTsoFKsmFcwFYbDp0AuR16F1ABQoQIK8FYLFpMATIbTBdQUVyECCvOSB12QQB3AVKHZ9CANexV8NpU5Y0ScuVbiI4PSpYwmb73mPJkhY6/D5ScsEkHCbuHy7ol8H3S1r22t/T0le/dzs3ZZ3HwjnTllsTLpzL5Ulp1RIgr9XypfRyCZDXcnlS2mAIkNvBcOYo5RAgr34cEcB+3KLbCwEcXZdFWeEsgdJNtmTJYMmZHb8cTwSwFTijXSPjBi/jmsgcAeyXs9G+v939u8le+1zWeSjrvBXlSbhApblwLgCLTYdOgLwOvQuoQAEC5LUALDYNhgC5DaYrqEgOAuQ1B6QumyCAu0Cp41MI4Dr2anhtyhIp9vksAZOWwRLAWqy4Sa9d4cPPI/+bO0yGw8SOXId/tfzT54Nev/c659jzUtY6vDNsuTXiwrlcnpRWLQHyWi1fSi+XAHktlyelDYYAuR0MZ45SDgHy6scRAezHLbq9EMDRdVm0Fc6SKe7zvaSMXtu570SypMVwL9HDa79nCnPYDIZNvz9c0A/V9UO/c4r7unsuyvo52hNwgYpz4VwAFpsOnQB5HXoXUIECBMhrAVhsGgwBchtMV1CRHATIaw5IXTZBAHeBUsenEMB17NWw25QlVro978oZ/ewK4PRr/H6l6/ylcBk+F3I7/D7o9j7ods7Jei7ss2q5tePCuVyelFYtAfJaLV9KL5cAeS2XJ6UNhgC5HQxnjlIOAfLqxxEB7Mctur0QwNF1WW0qnCVaej2/a//J9gjgbkKH58IUbU3vFwTw8HPZ67zS67XanHALNIQL5wKw2HToBMjr0LuAChQgQF4LwGLTYAiQ22C6gorkIEBec0DqsgkCuAuUOj6FAK5jr8bVpl7yJf2aBLCW9PPu702XjbR/+LIx3QcI4Or7xD0HlPFzXGfRcmvLhXO5PCmtWgLktVq+lF4uAfJaLk9KGwwBcjsYzhylHALk1Y8jAtiPW3R7IYCj67LaVjiPtMkjgPOUwzZXe0p0+JTLh9yWy7PKfNb2BFugYVw4F4DFpkMnQF6H3gVUoAAB8loAFpsGQ4DcBtMVVCQHAfKaA1KXTRDAXaDU8SkEcB17tT5tSoseRFo8Ii3dd03+ndyGmdv6nCnLbQkXzuXypLRqCZDXavlSerkEyGu5PCltMATI7WA4c5RyCJBXP44IYD9u0e2FAI6uyxpdYURamCKtyXI3T9vJbRi5bfTJs0DjuXAuAItNh06AvA69C6hAAQLktQAsNg2GALkNpiuoSA4C5DUHpC6bIIC7QKnjU9dNeND814QnzXtfHmSBQfAZePHdXUZLv7zW8b1Km+IlwIVIvH3XxJqT1yb2erxtJq/x9l0Ta05em9jr8beZ3Mbfh01qAXn1620EsB+36PaSAP6PCd+wwKA2Gbh57tro3odUuN4EuBCpd//WrXXktW49Wu/2kNd692/dWkde69ajzWgPuW1GP9elleTVrycRwH7cotsLAYz8rtsfABDA0Z2Gal9hLkRq38W1aiB5rVV31r4x5LX2XVyrBpLXWnVnYxpDbhvT1bVoKHn160YEsB+36PZCACOAEcDRvW2pcGQEuBCJrMMaXl3y2vAARNZ88hpZhzW8uuS14QGItPnkNtKOa2i1yatfxyOA/bhFtxcCGAGMAI7ubUuFIyPAhUhkHdbw6pLXhgcgsuaT18g6rOHVJa8ND0CkzSe3kXZcQ6tNXv06HgHsxy26vRDACGAEcHRvWyocGQEuRCLrsIZXl7w2PACRNZ+8RtZhDa8ueW14ACJtPrmNtOMaWm3y6tfxCGA/btHthQBGACOAo3vbUuHICHAhElmHNby65LXhAYis+eQ1sg5reHXJa8MDEGnzyW2kHdfQapNXv45HAPtxi24vBDACGAEc3duWCkdGgAuRyDqs4dUlrw0PQGTNJ6+RdVjDq0teGx6ASJtPbiPtuIZWm7z6dTwC2I9bdHshgBHACODo3rZUODICXIhE1mENry55bXgAIms+eY2swxpeXfLa8ABE2nxyG2nHNbTa5NWv4xHAftyi2wsBjABGAEf3tqXCkRHgQiSyDmt4dclrwwMQWfPJa2Qd1vDqkteGByDS5pPbSDuuodUmr34djwD24xbdXghgBDACOLq3LRWOjAAXIpF1WMOrS14bHoDImk9eI+uwhleXvDY8AJE2n9xG2nENrTZ59et4BLAft+j2QgAjgBHA0b1tqXBkBLgQiazDGl5d8trwAETWfPIaWYc1vLrkteEBiLT55DbSjmtotcmrX8cjgP24RbcXAhgBjACO7m1LhSMjwIVIZB3W8OqS14YHILLmk9fIOqzh1SWvDQ9ApM0nt5F2XEOrTV79Oh4B7Mctur0QwAhgBHB0b1sqHBkBLkQi67CGV5e8NjwAkTWfvEbWYQ2vLnlteAAibT65jbTjGlpt8urX8QhgP27R7YUARgAjgKN721LhyAhwIRJZhzW8uuS14QGIrPnkNbIOa3h1yWvDAxBp88ltpB3X0GqTV7+ORwD7cYtuLwQwAhgBHN3blgpHRoALkcg6rOHVJa8ND0BkzSevkXVYw6tLXhsegEibT24j7biGVpu8+nU8AtiPW3R7IYARwAjg6N62VDgyAlyIRNZhDa8ueW14ACJrPnmNrMMaXl3y2vAARNp8chtpxzW02uTVr+MRwH7cotsLAYwARgBH97alwpER4EIksg5reHXJa8MDEFnzyWtkHdbw6pLXhgcg0uaT20g7rqHVJq9+HY8A9uMW3V4IYAQwAji6ty0VjowAFyKRdVjDq0teGx6AyJpPXiPrsIZXl7w2PACRNp/cRtpxDa02efXreASwH7fo9kIAI4ARwNG9balwZAS4EImswxpeXfLa8ABE1nzyGlmHNby65LXhAYi0+eQ20o5raLXJq1/HI4D9uEW3FwIYAYwAju5tS4UjI8CFSGQd1vDqkteGByCy5pPXyDqs4dUlrw0PQKTNJ7eRdlxDq01e/ToeAezHbcRev//+uzl16nSy6OfQHghgBDACOLR3JfWpGwEuROrWo/VuD3mtd//WrXXktW49Wu/2kNd6929dW0du69qz9WwXefXr11oJ4KtXr5ozZ86akydPmQsXLvoR8dxr9+695vbJM5NFP9vH+fMXzGOPLzG3T5lpflq3wT498DUCGAGMAB74244DNowAFyIN6/DIm0teI+/AhlWfvDaswyNvLnmNvAMbWn1y29COj7TZ5NWv42olgCV9H1z0hBk3YYp57/2P/Yh47pUlgO3zqtOzS1/2LH30uyGAEcD/P3tv3uVGea57f8n9xzlfIGudtc5KDDgOYGxjwGYwkxnCDJtpg9kJkJCASQIkOwnzYObBzBjYgBk8D9um3vcuTinVapVaulUq6arrp7V6dbek+6lr8mP11dUlCuDZ/x2xAgqMU4AXIuPU4bFlU4C8Lpsj4BmnAHkdpw6PLZsC5HXZHAHPJAqQ20lU4jnLogB5zTlBAZzTbdVUVfTGWcDDZwBH8btt+5XFu++9v2quqzsogCmAKYC7+tfGcVwV4IWIq/OavMmrpm+uqMmrq/OavMmrpm/uqMmtewK0+JPXnF8UwDndVk01FcCrnrigOyiAKYApgBf0j4/D2ijACxEbq3tBlLz2wkYbEuTVxupeECWvvbDRjgS5tbNcmjB5zdlHAZzTbdUUBTAFa98K1mXnc+ale1b9O+QOFFikArwQWaT6HHtaBcjrtIrx/EUqQF4XqT7HnlYB8jqtYjx/GRQgt8vgAhgmVYC8TqrUyufZF8BHjhwt3zTuwMGDxenTp1eq0/BdXGs43mguPk6ePFk+a9YCuL5mvJFdvKFdmzfOAKagXvZCd1p8FMBt7hCs1YYCvBBpQ0XW6EoB8tqV0hynDQXIaxsqskZXCpDXrpTmOG0qQG7bVJO15q0Aec0pbFMAR1m7Zeul5RvE7dnzevHll18Vl11+bfl9vEFbfJx97gXFa6+/2ahkzFx+5fXFL844dzC37syNxW9++/ti794Pirj+7/A1gIePW188CucXXnil2HrhjsF6FZaNm7YVe159o7UimAKYAnjagnXZn08BXN9N+HoZFOCFyDK4AIZJFSCvkyrF85ZBAfK6DC6AYVIFyOukSvG8ZVKA3C6TG2BZSwHyupZCox+3LIAffOgPxTkbLyyiZI03aNt5zU3Fmes3lSVs3P/JJ5+tUuvDDz8pZ6KgjefGTMxu2nJxOXfpjmuKDWefP1UBXJ01HCXytouvKu66e1e5ZuCqjvPmW++swpK5gwKYAnjZC91p8VEAZ3YCZuapAC9E5qkua7etAHltW1HWm6cC5HWe6rJ22wqQ17YVZb0uFCC3XajMMdpSgLzmlLQsgKPA/f0ju4tTp04NVKsXvPfd/+CKM2/j8hBR0EYpe+XVN5SXfqgG41IN//jnc4MCeZozgKNovvOu+4tvv/u+Wq78fPTosfI4cbzbbr9nBc4VT5ziGwpgCuBpC9Zlfz4F8BQbAE/tRAFeiHQiMwdpSQHy2pKQLNOJAuS1E5k5SEsKkNeWhGSZThUgt53KzcFmVIC85gS0LICv3nljEdfcHb499PAfy5L3sh3XFnFt4Or23PMvlZd9iLN9v/rqm+ruwecogR/+3aPl7DQFcFwCoulav888+2K53rbtVxYHDx0aHCv7BQUwBfCyF7rT4qMAzu4GzM1LAV6IzEtZ1p2HAuR1Hqqy5rwUIK/zUpZ156EAeZ2Hqqw5bwXI7bwVZv02FSCvOTUtC+A//fmpkWrFtYHjrNu4VnBcuzducZbwzbfcWd4fZ+s2Fbbv7f2gOOuXm6e6BMRIEP/vmE8/8/wqLE3Pn+R+CmAK4GkL1mV/PgXwJP/yeU6XCvBCpEu1OdasCpDXWRVkvksFyGuXanOsWRUgr7MqyPwiFCC3i1CdY2YVIK855SwL4Ch6R91GFcBxJnCcERzFcFNxHGtV1/Od5gzgmDtx4mTx4kt7itvvuLfYeuFlxfoNm8tjxfGGy+hRmCe9jwKYAnjZC91p8VEAT/qvn+d1pQAvRLpSmuO0oQB5bUNF1uhKAfLaldIcpw0FyGsbKrJG1wqQ264V53izKEBec+pRANd0G1UAx5nAcUZwlLFNxXEskSmAP/l0X7H5/EsGhW+Uv1EC33Lb3cU1191CAbyO0nbaUtTp+RTAtc2LL5dCAV6ILIUNgJhQAfI6oVA8bSkUIK9LYQMgJlSAvE4oFE9bKgXI7VLZAZg1FCCvawjU8DAFcE2YtQrguC5v023aArj+xnI33HhH8c03+1csPQrLiidM+Q1nAFMm960cpgCechPg6XNXgBcic5eYA7SoAHltUUyWmrsC5HXuEnOAFhUgry2KyVKdKUBuO5OaA7WgAHnNiUgBXNNtVOkabxYXbxoXZwDHm8Q13V7Z83r5RnGTXgLitdffLJ9/3ubtxddfryx/4xijsDQde5L7KYApgCmAJ/mXwnNQIK8AL0Ty2jHZvQLktXvNOWJeAfKa147J7hUgr91rzhFnV4Dczq4hK3SnAHnNaU0BXNOtqXS9f9dDZQF80bYrigMHDtYmfvoy3ijullvvLp8zaQFcHSuuLxzXGa7f4o3m7rv/QS4BwSUgir6Vtm3y4Qzg+q7B18ugAC9ElsEFMEyqAHmdVCmetwwKkNdlcAEMkypAXidViuctkwLkdpncAMtaCpDXtRQa/TgFcE2XqpSNa/7GtX+r2/sffFSs37ClLGRv//f/KI4fP149VET5+/tHdpdn88ZZwpMWwNUZwLHu22+/N1gvyt/nX3i5OHP9JgpgCmAK4DEZoAAebBt8sSQK8EJkSYwAxkQKkNeJZOJJS6IAeV0SI4AxkQLkdSKZeNKSKUBul8wQ4IxVgLyOlafxQQrgmjRNBXCUsrsff2JQ8m44+/zyjdruuPO+YuOmbWVZ+5vf/r4sfyctgOvXAI6yN64DfPe9DxSXXLqzOOuXm4tbb7uHAnhM+dfmmaSspXl5DArg2ubFl0uhAC9ElsIGQEyoAHmdUCiethQKkNelsAEQEypAXicUiqctlQLkdqnsAMwaClKamPMAACAASURBVJDXNQRqeJgCuCZMUwEcT4kzfXc//mSxfsPmspiNs33jIwrgPa++UXz08adTFcCx5udffFlsv+SqFeudfe4F5RnAcU3hWH/4bOQa3Km+5BrAmiUn5XSzbxTAU20BPLkDBXgh0oHIHKI1Bchra1KyUAcKkNcOROYQrSlAXluTkoU6VIDcdig2h5pZAfKak7BXBXBOgummogjev/+74p1395aXiTh9+vR0Cww9O84uPnTocPH++x+W68b687hRADcXiZSsmtpQAM9jp2DNWRTghcgs6jHbtQLktWvFOd4sCpDXWdRjtmsFyGvXinO8NhQgt22oyBpdKUBec0pTAOd0k5uiANYsOSmnm32jAJbbhnoPmBcivbe4VwTJa6/s7D0Z8tp7i3tFkLz2yk4bMuTWxupeECWvORspgHO6yU1RADcXiZSsmtpQAMttQ70HzAuR3lvcK4LktVd29p4Mee29xb0iSF57ZacNGXJrY3UviJLXnI0UwDnd5KYogDVLTsrpZt8ogOW2od4D5oVI7y3uFUHy2is7e0+GvPbe4l4RJK+9stOGDLm1sboXRMlrzkYK4JxuclMUwM1FIiWrpjYUwHLbUO8B80Kk9xb3iiB57ZWdvSdDXntvca8Iktde2WlDhtzaWN0LouQ1ZyMFcE43uSkKYM2Sk3K62TcKYLltqPeAeSHSe4t7RZC89srO3pMhr723uFcEyWuv7LQhQ25trO4FUfKas5ECOKeb3BQFcHORSMmqqQ0FsNw21HvAvBDpvcW9Ikhee2Vn78mQ195b3CuC5LVXdtqQIbc2VveCKHnN2UgBnNNNbooCWLPkpJxu9o0CWG4b6j1gXoj03uJeESSvvbKz92TIa+8t7hVB8torO23IkFsbq3tBlLzmbKQAzukmN0UB3FwkUrJqakMBLLcN9R4wL0R6b3GvCJLXXtnZezLktfcW94ogee2VnTZkyK2N1b0gSl5zNlIA53STm6IA1iw5KaebfaMAltuGeg+YFyK9t7hXBMlrr+zsPRny2nuLe0WQvPbKThsy5NbG6l4QJa85GymAc7rJTVEANxeJlKya2lAAy21DvQfMC5HeW9wrguS1V3b2ngx57b3FvSJIXntlpw0ZcmtjdS+IktecjRTAOd3kpiiANUtOyulm3yiA5bah3gPmhUjvLe4VQfLaKzt7T4a89t7iXhEkr72y04YMubWxuhdEyWvORgrgnG5yUxTAzUUiJaumNhTActtQ7wHzQqT3FveKIHntlZ29J0Nee29xrwiS117ZaUOG3NpY3Qui5DVnIwVwTje5KQpgzZKTcrrZNwpguW2o94B5IdJ7i3tFkLz2ys7ekyGvvbe4VwTJa6/stCFDbm2s7gVR8pqzkQI4p5vcFAVwc5FIyaqpDQWw3DbUe8C8EOm9xb0iSF57ZWfvyZDX3lvcK4LktVd22pAhtzZW94Ioec3ZSAGc001uigJYs+SknG72jQJYbhvqPWBeiPTe4l4RJK+9srP3ZMhr7y3uFUHy2is7bciQWxure0GUvOZspADO6SY3RQHcXCRSsmpqQwEstw31HjAvRHpvca8Iktde2dl7MuS19xb3iiB57ZWdNmTIrY3VvSBKXnM2UgDndJObogDWLDkpp5t9owCW24Z6D5gXIr23uFcEyWuv7Ow9GfLae4t7RZC89spOGzLk1sbqXhAlrzkbKYBzuslNUQA3F4mUrJraUADLbUO9B8wLkd5b3CuC5LVXdvaeDHntvcW9Ikhee2WnDRlya2N1L4iS15yNFMA53eSmKIA1S07K6WbfKIDltqHeA+aFSO8t7hVB8torO3tPhrz23uJeESSvvbLThgy5tbG6F0TJa85GCuCcbnJTFMDNRSIlq6Y2FMBy21DvAfNCpPcW94ogee2Vnb0nQ157b3GvCJLXXtlpQ4bc2ljdC6LkNWcjBXBON7kpCmDNkpNyutk3CmC5baj3gHkh0nuLe0WQvPbKzt6TIa+9t7hXBMlrr+y0IUNubazuBVHymrORAjinm9wUBXBzkUjJqqkNBbDcNtR7wLwQ6b3FvSJIXntlZ+/JkNfeW9wrguS1V3bakCG3Nlb3gih5zdlIAZzTTW6KAliz5KScbvaNAlhuG+o9YF6I9N7iXhEkr72ys/dkyGvvLe4VQfLaKzttyJBbG6t7QZS85mykAM7pJjdFAdxcJFKyampDASy3DfUeMC9Eem9xrwiS117Z2Xsy5LX3FveKIHntlZ02ZMitjdW9IEpeczZSAOd0k5uiANYsOSmnm32jAJbbhnoPmBcivbe4VwTJa6/s7D0Z8tp7i3tFkLz2yk4bMuTWxupeECWvORspgHO6yU1RADcXiZSsmtpQAMttQ70HzAuR3lvcK4LktVd29p4Mee29xb0iSF57ZacNGXJrY3UviJLXnI0UwDnd5KZ+KoD/Ufzv9c/ygQZLn4H/ddazRXyMyysFsNw21HvAvBDpvcW9Ikhee2Vn78mQ195b3CuC5LVXdtqQIbc2VveCKHnN2UgBnNNNburn684p4oMbCigowIau4BIYhxUgt8OK8P0yK0Bel9kdsA0rQF6HFeH7ZVaAvC6zO2BrUoDcNinD/cuoAHnNuUIBnNNNbooCWM4ya8Bs6Nb2y5Int7LWWQInr5a2y5Imr7LWWQInr5a2y5Mmt/IWWhEgrzm7KYBzuslNUQDLWWYNmA3d2n5Z8uRW1jpL4OTV0nZZ0uRV1jpL4OTV0nZ50uRW3kIrAuQ1ZzcFcE43uSkKYDnLrAGzoVvbL0ue3MpaZwmcvFraLkuavMpaZwmcvFraLk+a3MpbaEWAvObspgDO6SY3RQEsZ5k1YDZ0a/tlyZNbWessgZNXS9tlSZNXWessgZNXS9vlSZNbeQutCJDXnN0UwDnd5KYogOUsswbMhm5tvyx5citrnSVw8mppuyxp8iprnSVw8mppuzxpcitvoRUB8pqzmwI4p5vcFAWwnGXWgNnQre2XJU9uZa2zBE5eLW2XJU1eZa2zBE5eLW2XJ01u5S20IkBec3ZTAOd0k5uiAJazzBowG7q1/bLkya2sdZbAyaul7bKkyausdZbAyaul7fKkya28hVYEyGvObgrgnG5yUxTAcpZZA2ZDt7Zfljy5lbXOEjh5tbRdljR5lbXOEjh5tbRdnjS5lbfQigB5zdlNAZzTTW6KAljOMmvAbOjW9suSJ7ey1lkCJ6+WtsuSJq+y1lkCJ6+WtsuTJrfyFloRIK85uymAc7rJTVEAy1lmDZgN3dp+WfLkVtY6S+Dk1dJ2WdLkVdY6S+Dk1dJ2edLkVt5CKwLkNWc3BXBON7kpCmA5y6wBs6Fb2y9LntzKWmcJnLxa2i5LmrzKWmcJnLxa2i5PmtzKW2hFgLzm7KYAzukmN0UBLGeZNWA2dGv7ZcmTW1nrLIGTV0vbZUmTV1nrLIGTV0vb5UmTW3kLrQiQ15zdFMA53eSmKIDlLLMGzIZubb8seXIra50lcPJqabssafIqa50lcPJqabs8aXIrb6EVAfKas5sCOKfb0ky9t/eDoip3J/m8NMABggJjFGBDHyMODy2tAuR2aa0B2AgFyOsIUbhraRUgr0trDcBGKEBeR4jCXUuvALldeosAWFOAvNbEmOJLCuApxFrGp1IAL6MrYJpVATb0WRVkfhEKkNtFqM4xswqQ16xyzC1CAfK6CNU5ZlYB8ppVjrlFKkBuF6k+x55WAfI6rWI/PZ8COKeb3FR1drAccABbKsCGbmm7PGlyK2+hFQHyamW3PFnyKm+hFQHyamV3b8iS295YaUGEvOZspgDO6SY3RQEsZ5k1YDZ0a/tlyZNbWessgZNXS9tlSZNXWessgZNXS9vlSZNbeQutCJDXnN0UwDnd5KYogOUsswbMhm5tvyx5citrnSVw8mppuyxp8iprnSVw8mppuzxpcitvoRUB8pqzmwI4p5vcFAWwnGXWgNnQre2XJU9uZa2zBE5eLW2XJU1eZa2zBE5eLW2XJ01u5S20IkBec3ZTAOd0k5uiAJazzBowG7q1/bLkya2sdZbAyaul7bKkyausdZbAyaul7fKkya28hVYEyGvObgrgnG5yUxTAcpZZA2ZDt7Zfljy5lbXOEjh5tbRdljR5lbXOEjh5tbRdnjS5lbfQigB5zdlNAZzTTW6KAljOMmvAbOjW9suSJ7ey1lkCJ6+WtsuSJq+y1lkCJ6+WtsuTJrfyFloRIK85uymAc7rJTVEAy1lmDZgN3dp+WfLkVtY6S+Dk1dJ2WdLkVdY6S+Dk1dJ2edLkVt5CKwLkNWc3BXBON7kpCmA5y6wBs6Fb2y9LntzKWmcJnLxa2i5LmrzKWmcJnLxa2i5PmtzKW2hFgLzm7KYAzukmN0UBLGeZNWA2dGv7ZcmTW1nrLIGTV0vbZUmTV1nrLIGTV0vb5UmTW3kLrQiQ15zdFMA53eSmKIDlLLMGzIZubb8seXIra50lcPJqabssafIqa50lcPJqabs8aXIrb6EVAfKas5sCOKeb3BQFsJxl1oDZ0K3tlyVPbmWtswROXi1tlyVNXmWtswROXi1tlydNbuUttCJAXnN2UwDndJObogCWs8waMBu6tf2y5MmtrHWWwMmrpe2ypMmrrHWWwMmrpe3ypMmtvIVWBMhrzm4K4JxuclMUwHKWWQNmQ7e2X5Y8uZW1zhI4ebW0XZY0eZW1zhI4ebW0XZ40uZW30IoAec3ZTQGc001u6mfrri5+tm5n8fzr38p/yIkP4KkVYEOfWjIGlkABcrsEJgBhYgXI68RS8cQlUIC8LoEJQJhYAfI6sVQ8cYkUILdLZAZQ1lSAvK4p0cgnUACPlKV/d0YB/G/rnpb/2HDFa/0zB0arFGBDXyUJdwgoQG4FTALiQAHyOpCCLwQUIK8CJgFxoAB5HUjBF0IKkFshs4BakNdcCCiAc7rJTVEAy1lmDZgN3dp+WfLkVtY6S+Dk1dJ2WdLkVdY6S+Dk1dJ2edLkVt5CKwLkNWc3BXBON7kpCmA5y6wBs6Fb2y9LntzKWmcJnLxa2i5LmrzKWmcJnLxa2i5PmtzKW2hFgLzm7KYAzukmN0UBLGeZNWA2dGv7ZcmTW1nrLIGTV0vbZUmTV1nrLIGTV0vb5UmTW3kLrQiQ15zdFMA53eSmKIDlLLMGzIZubb8seXIra50lcPJqabssafIqa50lcPJqabs8aXIrb6EVAfKas5sCOKeb3BQFsJxl1oDZ0K3tlyVPbmWtswROXi1tlyVNXmWtswROXi1tlydNbuUttCJAXnN2UwDndJObogCWs8waMBu6tf2y5MmtrHWWwMmrpe2ypMmrrHWWwMmrpe3ypMmtvIVWBMhrzm4K4JxuclMUwHKWWQNmQ7e2X5Y8uZW1zhI4ebW0XZY0eZW1zhI4ebW0XZ40uZW30IoAec3ZTQGc001uigJYzjJrwGzo1vbLkie3stZZAievlrbLkiavstZZAievlrbLkya38hZaESCvObspgHO6yU1RAMtZZg2YDd3aflny5FbWOkvg5NXSdlnS5FXWOkvg5NXSdnnS5FbeQisC5DVnNwVwTje5KQpgOcusAbOhW9svS57cylpnCZy8WtouS5q8ylpnCZy8WtouT5rcyltoRYC85uymAM7pJjdFASxnmTVgNnRr+2XJk1tZ6yyBk1dL22VJk1dZ6yyBk1dL2+VJk1t5C60IkNec3RTAOd3kpiiA5SyzBsyGbm2/LHlyK2udJXDyamm7LGnyKmudJXDyamm7PGlyK2+hFQHymrObAjinm9wUBbCcZdaA2dCt7ZclT25lrbMETl4tbZclTV5lrbMETl4tbZcnTW7lLbQiQF5zdlMA53STm6IAlrPMGjAburX9suTJrax1lsDJq6XtsqTJq6x1lsDJq6Xt8qTJrbyFVgTIa85uCuCcbnJTFMByllkDZkO3tl+WPLmVtc4SOHm1tF2WNHmVtc4SOHm1tF2eNLmVt9CKAHnN2U0BnNNNbooCWM4ya8Bs6Nb2y5Int7LWWQInr5a2y5Imr7LWWQInr5a2y5Mmt/IWWhEgrzm7KYBzuslNUQDLWWYNmA3d2n5Z8uRW1jpL4OTV0nZZ0uRV1jpL4OTV0nZ50uRW3kIrAuQ1ZzcFcE43uSkKYDnLrAGzoVvbL0ue3MpaZwmcvFraLkuavMpaZwmcvFraLk+a3MpbaEWAvObspgDO6SY3RQEsZ5k1YDZ0a/tlyZNbWessgZNXS9tlSZNXWessgZNXS9vlSZNbeQutCJDXnN0UwDnd5KYogOUsswbMhm5tvyx5citrnSVw8mppuyxp8iprnSVw8mppuzxpcitvoRUB8pqz26oA/vHHH4tDhw4XP/xwoDh27PiaisVz4rkxE7NNt3j8jTffKV58aU/58fIrrxX//dXXxalTp5pGBvefPn26OHDw4MSYBoNTfkEBPKVgPH2hCrChL1R+Dp5UgNwmhWNsIQqQ14XIzkGTCpDXpHCMLUQB8roQ2TnojAqQ2xkFZLxTBchrTm6rAjgK3at33lj8fN05xWO7n1hTsXhOPDdmRhXGe/d+UFxy6c7yOfG84Y+d195cHD9+Yuxx3v/go2L9hi3l7HXX31qcOHFy7POzD1IAZ5VjbhEKsKEvQnWOOasC5HZWBZnvUgHy2qXaHGtWBcjrrAoy36UC5LVLtTlWWwqQ27aUZJ0uFCCvOZUpgMfoNq4AjrN9z1y/qSxu4/OOK64r7r73geKuu3cV2y6+qlh35sbG4rg6ZJxVfN/9Dw6K43M2Xljs2/dF9XCrnymAW5WTxeasABv6nAVm+bkoQG7nIiuLzkkB8jonYVl2LgqQ17nIyqJzUoC8zklYlp2rAuR2rvKyeMsKkNecoBTAY3RrKoC/+WZ/sfn8S8ri9qZb7iwOHz6yapXjx4+Xl4U4ebL5jN4DBw4WF227ovjV2VsH6/3+kd2r1mrjDgrgNlRkja4UYEPvSmmO06YC5LZNNVlr3gqQ13krzPptKkBe21STteatAHmdt8KsPw8FyO08VGXNeSlAXnPKUgCP0a2pAH7m2RfL8nfjpm3ltX7HLDH2oeeef6n4xRnnFpdfcV3x2O6/lGtetuPa4siRo2PnMg9SAGdUY2ZRCrChL0p5jjuLAuR2FvWY7VoB8tq14hxvFgXI6yzqMdu1AuS1a8U5XhsKkNs2VGSNrhQgrzmlKYDH6NZUAFf3b9l6afnmbWOWaHwozgy+/obbytI3zvr9+uv9xXmbtxdnnHVe8fobbzfOZR+gAM4qx9wiFGBDX4TqHHNWBcjtrAoy36UC5LVLtTnWrAqQ11kVZL5LBchrl2pzrLYUILdtKck6XShAXnMqUwCP0a0qeoffBO6ll18ti9tZytq41m9c87e67u+pU6eK226/p1w3Psf3bd4ogNtUk7XmrQAb+rwVZv15KEBu56Eqa85LAfI6L2VZdx4KkNd5qMqa81KAvM5LWdadpwLkdp7qsnbbCpDXnKIUwGN0ayqAv/32u+KCi3aUZW1cv/eVPa8X8YZu09zirN+frzunuO76W4sTJ366TnB1SYi4vnBcZ7jNGwVwm2qy1rwVYEOft8KsPw8FyO08VGXNeSlAXuelLOvOQwHyOg9VWXNeCpDXeSnLuvNUgNzOU13WblsB8ppTlAJ4jG5NBXCMvPraG+Wbt0WJGx+XXX5t8dlnn09UBB89eqy87m/M/fVv/xwg+P77H4rzt15arvfkU38f3N/GFxTAbajIGl0pwIbeldIcp00FyG2barLWvBUgr/NWmPXbVIC8tqkma81bAfI6b4VZfx4KkNt5qMqa81KAvOaUpQAeo9u4AjjGPv/8y7L4rUrg8g3drry+vH/MsuU1fuPyEXHN37j2b3WLs4jvu//BVWcGV4/P8pkCeBb1mO1aATb0rhXneG0oQG7bUJE1ulKAvHalNMdpQwHy2oaKrNGVAuS1K6U5TpsKkNs21WSteStAXnMKUwCP0W2tAjhGT58+XbzwwitFvCFcVQSvO3Nj8Yc//mnkdXyj5L3zrvvL54661u+bb71bvhHc+g1bivc/+GgMuukeogCeTi+evVgF2NAXqz9HzylAbnO6MbUYBcjrYnTnqDkFyGtON6YWowB5XYzuHHU2BcjtbPox3a0C5DWnNwXwGN0mKYCr8XjTtmeefbE4+9wLynI3zgaOs3mH38wtru0b1/iNx+Oav8O3I0eOFpftuLZc4/5dDw0/nP6eAjgtHYMLUIANfQGic8iZFSC3M0vIAh0qQF47FJtDzawAeZ1ZQhboUAHy2qHYHKo1Bchta1KyUAcKkNecyBTAY3SrCuCd195cHD9+Yswz//XQ4cNHiptuubMscEedxRvX/K3OFF7r80XbrigOHDj4r8Vn+IoCeAbxGO1cATb0ziXngC0oQG5bEJElOlOAvHYmNQdqQQHy2oKILNGZAuS1M6k5UIsKkNsWxWSpuStAXnMSWxXAUeJGmRvF6yRn195x533lc+PzNLevvvqm2LTl4nL2oYf/OBg9ceJkcd31t05cADedJTxYcIovKICnEIunLlwBNvSFWwCAhALkNiEaIwtTgLwuTHoOnFCAvCZEY2RhCpDXhUnPgWdQgNzOIB6jnStAXnOSWxXAIVEUv1EAX37FdcXRo8caVatfiuFPf36q8XmjHjh27Hhx9c4bV5XHcU3fOCs43gDu9TfeHjVa3lcvikddJ7hxcMwDFMBjxOGhpVOADX3pLAHQBAqQ2wlE4ilLowB5XRorADKBAuR1ApF4ytIoQF6XxgqATKEAuZ1CLJ66cAXIa84CuwL4lT2vl9ffjRL2+RdeblQtHovn/OrsrcXHH3+64nlRDsebuTXd4rINcfmGKJr/+OifB0/7/SO7y/u2bb+yOHjo0OD+UV88+dTfy+ees/HCYt++L0Y9Zar7KICnkosnL1gBNvQFG8DhUwqQ25RsDC1IAfK6IOE5bEoB8pqSjaEFKUBeFyQ8h51JAXI7k3wMd6wAec0JblcAHz58uLjs8p/eZC3K3WeeeWHFG7WdPn26ePa5F8viNwrcu+7ZteLxkHn3408W11x3S7F37werHjt67Fhx+x33luVt/RrA9VK4flmIJtu+/np/cd7m7eU6UQbPeqMAnlVB5rtUgA29S7U5VlsKkNu2lGSdLhQgr12ozDHaUoC8tqUk63ShAHntQmWO0bYC5LZtRVlvngqQ15y6dgVwyPThh58UcWZtFLzxceb6TcXm8y8pP9Zv2Dy4/7Id1xbffff9KmWrN4cbno3r/q47c2M5H9fv3f34E4Mzhaszj+ul8KqFa3ecOnWqiMs/xDHWulxFbazxSwrgRml4YAkVYENfQlOAtKYC5HZNiXjCEilAXpfIDKCsqQB5XVMinrBECpDXJTIDKBMrQG4nloonLoEC5DVngmUBHFJ9+933xS233j0obKsyOD5vOPv84sGH/lAcP358pKqffrqvuP6G28riuD4XX0fxG2cYv/vu+4PyN1vmVqVxXIrizbfeHYll0jspgCdViuctgwJs6MvgAhimVYDcTqsYz1+kAuR1kepz7GkVIK/TKsbzF6kAeV2k+hw7qwC5zSrH3CIUIK851W0L4EqukydPFvv3f1u88+7e8mzfQ4cOD4rb6jlNn+NyEQcOHiyv0fvOO3uLH344UMR6y3ijAF5GV8DUpAAbepMy3L/MCpDbZXYHbMMKkNdhRfh+mRUgr8vsDtiGFSCvw4rwvYIC5FbBJTBWCpDXSonpPtsXwNPJpftsCmBd7xyRs6E7uq7Pmdzqe+jEgLw6ua3Plbzqe+jEgLw6ud0fruS2P146MCGvOZcpgHO6yU1RAMtZZg2YDd3aflny5FbWOkvg5NXSdlnS5FXWOkvg5NXSdnnS5FbeQisC5DVnNwVwTje5KQpgOcusAbOhW9svS57cylpnCZy8WtouS5q8ylpnCZy8WtouT5rcyltoRYC85uymAM7pJjdFASxnmTVgNnRr+2XJk1tZ6yyBk1dL22VJk1dZ6yyBk1dL2+VJk1t5C60IkNec3RTAOd3kpiiA5SyzBsyGbm2/LHlyK2udJXDyamm7LGnyKmudJXDyamm7PGlyK2+hFQHymrObAjinm9wUBbCcZdaA2dCt7ZclT25lrbMETl4tbZclTV5lrbMETl4tbZcnTW7lLbQiQF5zdlMA53STm6IAlrPMGjAburX9suTJrax1lsDJq6XtsqTJq6x1lsDJq6Xt8qTJrbyFVgTIa85uCuCcbnJTFMByllkDZkO3tl+WPLmVtc4SOHm1tF2WNHmVtc4SOHm1tF2eNLmVt9CKAHnN2U0BnNNNbooCWM4ya8Bs6Nb2y5Int7LWWQInr5a2y5Imr7LWWQInr5a2y5Mmt/IWWhEgrzm7KYBzuslNUQDLWWYNmA3d2n5Z8uRW1jpL4OTV0nZZ0uRV1jpL4OTV0nZ50uRW3kIrAuQ1ZzcFcE43uSkKYDnLrAGzoVvbL0ue3MpaZwmcvFraLkuavMpaZwmcvFraLk+a3MpbaEWAvObspgDO6SY3RQEsZ5k1YDZ0a/tlyZNbWessgZNXS9tlSZNXWessgZNXS9vlSZNbeQutCJDXnN0UwDnd5KYogOUsswbMhm5tvyx5citrnSVw8mppuyxp8iprnSVw8mppuzxpcitvoRUB8pqzmwI4p5vcFAWwnGXWgNnQre2XJU9uZa2zBE5eLW2XJU1eZa2zBE5eLW2XJ01u5S20IkBec3ZTAOd0k5uiAJazzBowG7q1/bLkya2sdZbAyaul7bKkyausdZbAyaul7fKkya28hVYEyGvObgrgnG5yUxTAcpZZA2ZDt7Zfljy5lbXOEjh5tbRdljR5lbXOEjh5tbRdnjS5lbfQigB5zdlNAZzTTW6KAljOMmvAbOjW9suSJ7ey1lkCJ6+WtsuSJq+y1lkCJ6+WtsuTJrfyFloRIK85uymAc7rJTVEAy1lmLE4KOQAAIABJREFUDZgN3dp+WfLkVtY6S+Dk1dJ2WdLkVdY6S+Dk1dJ2edLkVt5CKwLkNWc3BXBON7kpCmA5y6wBs6Fb2y9LntzKWmcJnLxa2i5LmrzKWmcJnLxa2i5PmtzKW2hFgLzm7KYAzukmN0UBLGeZNWA2dGv7ZcmTW1nrLIGTV0vbZUmTV1nrLIGTV0vb5UmTW3kLrQiQ15zdFMA53eSmKIDlLLMGzIZubb8seXIra50lcPJqabssafIqa50lcPJqabs8aXIrb6EVAfKas5sCOKeb3BQFsJxl1oDZ0K3tlyVPbmWtswROXi1tlyVNXmWtswROXi1tlydNbuUttCJAXnN2UwDndJObogCWs8waMBu6tf2y5MmtrHWWwMmrpe2ypMmrrHWWwMmrpe3ypMmtvIVWBMhrzm4K4JxuclMUwHKWWQNmQ7e2X5Y8uZW1zhI4ebW0XZY0eZW1zhI4ebW0XZ40uZW30IoAec3ZTQGc001uigJYzjJrwGzo1vbLkie3stZZAievlrbLkiavstZZAievlrbLkya38hZaESCvObspgHO6yU1RAMtZZg2YDd3aflny5FbWOkvg5NXSdlnS5FXWOkvg5NXSdnnS5FbeQisC5DVnNwVwTje5KQpgOcusAbOhW9svS57cylpnCZy8WtouS5q8ylpnCZy8WtouT5rcyltoRYC85uymAM7pJjf1f9dtKeLj4OGT8h9y4gN4agXY0KeWjIElUIDcLoEJQJhYAfI6sVQ8cQkUIK9LYAIQJlaAvE4sFU9cIgXI7RKZAZQ1FSCva0o08gkUwCNl6d+dP193ThEf3FBAQQE2dAWXwDisALkdVoTvl1kB8rrM7oBtWAHyOqwI3y+zAuR1md0BW5MC5LZJGe5fRgXIa84VCuCcbnJTFMByllkDZkO3tl+WPLmVtc4SOHm1tF2WNHmVtc4SOHm1tF2eNLmVt9CKAHnN2U0BnNNNbooCWM4ya8Bs6Nb2y5Int7LWWQInr5a2y5Imr7LWWQInr5a2y5Mmt/IWWhEgrzm7KYBzuslNUQDLWWYNmA3d2n5Z8uRW1jpL4OTV0nZZ0uRV1jpL4OTV0nZ50uRW3kIrAuQ1ZzcFcE43uSkKYDnLrAGzoVvbL0ue3MpaZwmcvFraLkuavMpaZwmcvFraLk+a3MpbaEWAvObspgDO6SY3RQEsZ5k1YDZ0a/tlyZNbWessgZNXS9tlSZNXWessgZNXS9vlSZNbeQutCJDXnN0UwDnd5KYogOUsswbMhm5tvyx5citrnSVw8mppuyxp8iprnSVw8mppuzxpcitvoRUB8pqzmwI4p5vcFAWwnGXWgNnQre2XJU9uZa2zBE5eLW2XJU1eZa2zBE5eLW2XJ01u5S20IkBec3ZTAOd0k5uiAJazzBowG7q1/bLkya2sdZbAyaul7bKkyausdZbAyaul7fKkya28hVYEyGvObgrgnG5yUxTAcpZZA2ZDt7Zfljy5lbXOEjh5tbRdljR5lbXOEjh5tbRdnjS5lbfQigB5zdlNAZzTTW6KAljOMmvAbOjW9suSJ7ey1lkCJ6+WtsuSJq+y1lkCJ6+WtsuTJrfyFloRIK85uymAc7rJTVEAy1lmDZgN3dp+WfLkVtY6S+Dk1dJ2WdLkVdY6S+Dk1dJ2edLkVt5CKwLkNWc3BXBON7kpCmA5y6wBs6Fb2y9LntzKWmcJnLxa2i5LmrzKWmcJnLxa2i5PmtzKW2hFgLzm7KYAzukmN0UBLGeZNWA2dGv7ZcmTW1nrLIGTV0vbZUmTV1nrLIGTV0vb5UmTW3kLrQiQ15zdFMA53ZZm6r29HxRVuTvJ56UBDhAUGKMAG/oYcXhoaRUgt0trDcBGKEBeR4jCXUurAHldWmsANkIB8jpCFO5aegXI7dJbBMCaAuS1JsYUX1IATyHWMj6VAngZXQHTrAqwoc+qIPOLUIDcLkJ1jplVgLxmlWNuEQqQ10WozjGzCpDXrHLMLVIBcrtI9Tn2tAqQ12kV++n5FMA53eSmqrOD5YAD2FIBNnRL2+VJk1t5C60IkFcru+XJkld5C60IkFcru3tDltz2xkoLIuQ1ZzMFcE43uSkKYDnLrAGzoVvbL0ue3MpaZwmcvFraLkuavMpaZwmcvFraLk+a3MpbaEWAvObspgDO6SY3RQEsZ5k1YDZ0a/tlyZNbWessgZNXS9tlSZNXWessgZNXS9vlSZNbeQutCJDXnN0UwDnd5KYogOUsswbMhm5tvyx5citrnSVw8mppuyxp8iprnSVw8mppuzxpcitvoRUB8pqzmwI4p5vcFAWwnGXWgNnQre2XJU9uZa2zBE5eLW2XJU1eZa2zBE5eLW2XJ01u5S20IkBec3ZTAOd0k5uiAJazzBowG7q1/bLkya2sdZbAyaul7bKkyausdZbAyaul7fKkya28hVYEyGvObgrgnG5yUxTAcpZZA2ZDt7Zfljy5lbXOEjh5tbRdljR5lbXOEjh5tbRdnjS5lbfQigB5zdlNAZzTTW6KAljOMmvAbOjW9suSJ7ey1lkCJ6+WtsuSJq+y1lkCJ6+WtsuTJrfyFloRIK85uymAc7rJTVEAy1lmDZgN3dp+WfLkVtY6S+Dk1dJ2WdLkVdY6S+Dk1dJ2edLkVt5CKwLkNWc3BXBON7kpCmA5y6wBs6Fb2y9LntzKWmcJnLxa2i5LmrzKWmcJnLxa2i5PmtzKW2hFgLzm7KYAzukmN0UBLGeZNWA2dGv7ZcmTW1nrLIGTV0vbZUmTV1nrLIGTV0vb5UmTW3kLrQiQ15zdFMA53eSmKIDlLLMGzIZubb8seXIra50lcPJqabssafIqa50lcPJqabs8aXIrb6EVAfKas5sCOKeb3BQFsJxl1oDZ0K3tlyVPbmWtswROXi1tlyVNXmWtswROXi1tlydNbuUttCJAXnN2UwDndJOb+j/rLini44NPDy31h5ywAJ6LAmzoc5GVReesALmds8As36oC5LVVOVlszgqQ1zkLzPKtKkBeW5WTxTpSgNx2JDSHaUUB8pqTkQI4p5vc1M/WXV3827qnl/rj7Q8PyukK4PkowIY+H11Zdb4KkNv56svq7SpAXtvVk9XmqwB5na++rN6uAuS1XT1ZrRsFyG03OnOUdhQgrzkdKYBzuslNUQDLWWYNmA3d2n5Z8uRW1jpL4OTV0nZZ0uRV1jpL4OTV0nZ50uRW3kIrAuQ1ZzcFcE43uSkKYDnLrAGzoVvbL0ue3MpaZwmcvFraLkuavMpaZwmcvFraLk+a3MpbaEWAvObspgDO6SY3RQEsZ5k1YDZ0a/tlyZNbWessgZNXS9tlSZNXWessgZNXS9vlSZNbeQutCJDXnN0UwDnd5KYogOUsswbMhm5tvyx5citrnSVw8mppuyxp8iprnSVw8mppuzxpcitvoRUB8pqzmwI4p5vcFAWwnGXWgNnQre2XJU9uZa2zBE5eLW2XJU1eZa2zBE5eLW2XJ01u5S20IkBec3ZTAOd0k5uiAJazzBowG7q1/bLkya2sdZbAyaul7bKkyausdZbAyaul7fKkya28hVYEyGvObgrgnG5yUxTAcpZZA2ZDt7Zfljy5lbXOEjh5tbRdljR5lbXOEjh5tbRdnjS5lbfQigB5zdlNAZzTTW6KAljOMmvAbOjW9suSJ7ey1lkCJ6+WtsuSJq+y1lkCJ6+WtsuTJrfyFloRIK85uymAc7rJTVEAy1lmDZgN3dp+WfLkVtY6S+Dk1dJ2WdLkVdY6S+Dk1dJ2edLkVt5CKwLkNWc3BXBON7kpCmA5y6wBs6Fb2y9LntzKWmcJnLxa2i5LmrzKWmcJnLxa2i5PmtzKW2hFgLzm7KYAzukmN0UBLGeZNWA2dGv7ZcmTW1nrLIGTV0vbZUmTV1nrLIGTV0vb5UmTW3kLrQiQ15zdFMA53eSmKIDlLLMGzIZubb8seXIra50lcPJqabssafIqa50lcPJqabs8aXIrb6EVAfKas5sCOKeb3BQFsJxl1oDZ0K3tlyVPbmWtswROXi1tlyVNXmWtswROXi1tlydNbuUttCJAXnN2UwDndJObogCWs8waMBu6tf2y5MmtrHWWwMmrpe2ypMmrrHWWwMmrpe3ypMmtvIVWBMhrzm4K4JxuclMUwHKWWQNmQ7e2X5Y8uZW1zhI4ebW0XZY0eZW1zhI4ebW0XZ40uZW30IoAec3ZTQGc001uigJYzjJrwGzo1vbLkie3stZZAievlrbLkiavstZZAievlrbLkya38hZaESCvObspgHO6yU1RAMtZZg2YDd3aflny5FbWOkvg5NXSdlnS5FXWOkvg5NXSdnnS5FbeQisC5DVnNwVwTje5KQpgOcusAbOhW9svS57cylpnCZy8WtouS5q8ylpnCZy8WtouT5rcyltoRYC85uymAM7pJjdFASxnmTVgNnRr+2XJk1tZ6yyBk1dL22VJk1dZ6yyBk1dL2+VJk1t5C60IkNec3Z0WwKdPny4OHDxY/PDDgeLkyZM5xEylFKAATsnG0IIUYENfkPAcdiYFyO1M8jHcsQLktWPBOdxMCpDXmeRjuGMFyGvHgnO4VhQgt63IyCIdKUBec0J3WgBH8btl66XFz9edU+zZ83oOsdjU0aPHil/fcHvxq3O2Fq++9sbC0FMAL0x6DpxQgA09IRojC1eA3C7cAgBMoQB5nUIsnrpwBcjrwi0AwBQKkNcpxOKpS6MAuV0aKwAygQLkdQKRRjyFAniEKG3e9fHHnxa/OntrWXrfced9bS491VoUwFPJxZMXrAAb+oIN4PApBchtSjaGFqQAeV2Q8Bw2pQB5TcnG0IIUIK8LEp7DzqQAuZ1JPoY7VoC85gSnAM7pNvFUnAEcxe+27VcW7773/sRzbT+RArhtRVlvngqwoc9TXdaelwLkdl7Ksu48FCCv81CVNeelAHmdl7KsOw8FyOs8VGXNeStAbuetMOu3qQB5zalJAZzTTW6KAljOMmvAbOjW9suSJ7ey1lkCJ6+WtsuSJq+y1lkCJ6+WtsuTJrfyFloRIK85uymAc7rJTVEAy1lmDZgN3dp+WfLkVtY6S+Dk1dJ2WdLkVdY6S+Dk1dJ2edLkVt5CKwLkNWf3xAVwvIFbfJw8eXKiI8Xzqpljx46XM9O8CVzMVPOHDh0ufvzxx4mOWz3p1KlTxYEDB8s1quNXjzV9jmPEseK4Bw4eLE6fPt301MH99ePE8eL7zG1WvmsdkwJ4LYV4fJkUYENfJjfAMqkC5HZSpXjeMihAXpfBBTBMqgB5nVQpnrcMCpDXZXABDNMqQG6nVYznL1IB8ppTf+IC+OfrzinfyGzdmRuL3z74SGPRGeXpLbfeXcTzqplfnHFued++z78otmy9tLx/z57XVyGOAvbV194oLtp2xWC2WmPjpm3Fk0/9feRxH9v9RPn8q3feWBw+fLjY/fiTxfoNmwdrxPFvve2eIq7HO+oWRe+zz71UxDGq48XnDWefX/zpz0+NPGbwvOvuXcWZ6zetmInvn/rrPwaHiec1cY7jvvDCK8XWC3esWCOOHVj2vPrG1MX34MBDX1AADwnCt0utABv6UtsDuAYFyG2DMNy9lAqQ16W0BVANCpDXBmG4eykVIK9LaQug1lCA3K4hEA8vlQLkNWfHxAXwLbfdXZyz8cKyqIxCNYrR4dv+/d8WF1x0efmcKIAv23FtWZJeuO3yIma2X3LVYI3hAjjOnP3P3/6+fF4UoHGsOGa8gdqmLRcPCtK7731gVSFbFcCXX3FdORPHjjJ4ePbe//jNqtn6cSvMcYyYr0rs4WN+9933g5I6SuLAGc/Zec1NZSEceKrbuAL4448/LX519tbyONsuvqrUKjBXRXSUyW++9U611EyfKYBnko/hjhVgQ+9YcA7XigLkthUZWaQjBchrR0JzmFYUIK+tyMgiHSlAXjsSmsO0qgC5bVVOFpuzAuQ1J/DEBXAsH2fQ7rz25rKMjbN045IH1e3EiZPFr2+8vXxs64WXFZ9/8WX1UPn5zbfeHZS/UfAOF8DPPPNCWf5G6fmXJ/624vILcWbwP/75XFmujiqfqwI4Cts4m7Z+7Ch4o5ytSuV9+75Ygas6bhTOgbF+e+PNd8qCdriIrY4XZXeU3vXb8ePHiyiIq9u4AviTTz4r7rzr/uLb2vNjLnS+8uobSsy33X7PqtK6WnuazxTA06jFcxetABv6oh3g+BkFyG1GNWYWpQB5XZTyHDejAHnNqMbMohQgr4tSnuPOogC5nUU9ZrtWgLzmFJ+qAI5DvLf3g+KsX24uP+Lr6vb+Bx8V6zdsKT/efe/96u4Vn6uydbgAjss2bL/k6rLw3PXAwyMvexAl8MO/e7R8zrbtVxYHDx0arF0VsmecdV7x0suvDu6vvvj66/3FeZu3l7PPPPtidXdZtMZZw4EnLi8xfItj3nf/g+Xj9+96aPBwnKUbM7ffce9IrIMnFkV5PeFxl4CIY4y6Bc44xjDXUc+d5D4K4ElU4jnLogAb+rI4AY5pFCC306jFcxetAHldtAMcfxoFyOs0avHcRStAXhftAMfPKEBuM6oxsygFyGtO+akL4KYzWh96+I9lYRmXTmh607V6EVs/A7gqleNyCHFZhKZbdcmEKKDr5XNVAMeZx/Wzkqt1Ak/gikI1nlvdquNGORzYRt2qIrbO6/eP7C7XirOG33//w1Fjg/ua9Bo8YcQXcdby0888Xx4jyuNYY9YbBfCsCjLfpQJs6F2qzbHaUoDctqUk63ShAHntQmWO0ZYC5LUtJVmnCwXIaxcqc4y2FSC3bSvKevNUgLzm1G2lAI7C8uZb7iwLy7vu2dWIpKkMrUrWtc52bZqvCuB6SVsH0VQA//Vv/ywxxyUeNp9/yciPczZeVD6nXi5HWRzPj0I5LklxzXW3FHvf/3DFZSuq4zdhrh6PS2e8+NKe8mziOEb9zetifQrgSik+OynAhu7kdn+4ktv+eOnAhLw6uNwfjuS1P146MCGvDi73jyO57Z+nfWZEXnPutlIANxWsw5CaytC1Ctxqnex8E77quFG0rvUxXMTGdXtvuvnfB29aV5W1UebWL+vQhDk4ffLpvkGRHPNR/kYJHG8qF6VytWasMeuNM4BnVZD5LhVgQ+9SbY7VlgLkti0lWacLBchrFypzjLYUIK9tKck6XShAXrtQmWO0rQC5bVtR1punAuQ1p27rBXBcCqLp1lSG/unPT5Vl52U7ri2OHDnaNN54Pd2qyJ32DODquNsuvqr44ov/LtcPjKM+Dhw8OPIM32+//a544D9/Nzhzd/hN6po4x3px3Ch5b7jxjuKbb1ZegiIukUEB3BgFHui5AmzoPTe4p/TIbU+N7Skt8tpTY3tKi7z21Nie0iKvPTW257TIbc8N7hk98poztJUCOA5dvTFaXAoiLgkx6lZdwzeKzfo1gN98690i3sAtrqm7b98Xo0bL+6r54WsFZwvg115/szyDd9w1gBvBDD1w+PCRYuc1N5Wlbf1SFk0F8FrHpgAeEphvrRRgQ7eyuzdkyW1vrLQgQl4tbO4NSfLaGystiJBXC5t7R5Lc9s7SXhMirzl7WyuAq+vpNpW4cVmEh3/3aFmQDhfA8cZtF227onwsnlO/hEJFqz5/+RXXFUePHqseKt/YLdac9gzgOOs2ruUbZ+0G/llvo0rbpgK4eu6os56D6333P8gZwLMawrysAmzostZZAye31vbLkSevcpZZAyav1vbLkSevcpYBuCgKcksMlBQgrzm3WiuAqzI1itgrr76hvIxCBSkKzX/887ki3mwtHh8ugON5cTmGKGLjOX//xzMrLrcQ88+/8HL5WDwe19mt37JnAMe6ux54uMQTxfUbb7y9qnw+euxYWTDHJRuqW7xpXVwDuH6Ltf7yxN/KtaY5A3j9hi3F22+/N1iqzjV0Gr728OCJU37BNYCnFIynL1QBNvSFys/BkwqQ26RwjC1EAfK6ENk5aFIB8poUjrGFKEBeFyI7B51RAXI7o4CMd6oAec3J3VoBHIePYrYqeeNzXNv2rrt3FVsv3FGWu/ftenDwpmf1S0DEbFw24u57HxgUxJu2XFxeVqKajzI0CuLdjz+xqqTNFsBx3DhDd8cV15XHjfUv3HZ5iTmwxNm5687cuKqEjctdxP3xeDwvPuLs47gvPv7rv54euNF0BnD9GsCVVrHOJZfuLM765ebi1tvuKTFRAA+k5AsjBdjQjczuEVVy2yMzDaiQVwOTe0SRvPbITAMq5NXA5B5SJLc9NLXHlMhrztxWC+Dq7NWzz71gUORGcbvh7POLJ5/6e/Hd/3/WbBSao84ADvhRAsfzhufj+VEiR8Ecxxi+zVIAx1pxlm+U01HexrHqH1FEP/vcSyvOSH70sT8Piu76c4PbMMamAjiO+/kXXxbbL/npjeCqdYJ7nO38Cm8CN2wz3xspwIZuZHaPqJLbHplpQIW8GpjcI4rktUdmGlAhrwYm95Aiue2hqT2mRF5z5k5dAE9ymNOnT5dn1r7z7t5i//7vGt8UrmmtmI8zZD/88JPyTeEOHTo8svhtms/ef/LkyWL//m/LS0HE5yNHjjYuFWV1XLv4nXf2zoQxCu3g9/77H6a0agQ49ACXgBgShG+XWgE29KW2B3ANCpDbBmG4eykVIK9LaQugGhQgrw3CcPdSKkBel9IWQK2hALldQyAeXioFyGvOjrkUwDkoTM1TAQrgearL2m0rwIbetqKs14UC5LYLlTlGWwqQ17aUZJ0uFCCvXajMMdpSgLy2pSTrdKkAue1SbY41qwLkNacgBXBON7kpCmA5y6wBs6Fb2y9LntzKWmcJnLxa2i5LmrzKWmcJnLxa2i5PmtzKW2hFgLzm7KYAzukmN0UBLGeZNWA2dGv7ZcmTW1nrLIGTV0vbZUmTV1nrLIGTV0vb5UmTW3kLrQiQ15zdFMA53eSmKIDlLLMGzIZubb8seXIra50lcPJqabssafIqa50lcPJqabs8aXIrb6EVAfKas5sCOKeb3BQFsJxl1oDZ0K3tlyVPbmWtswROXi1tlyVNXmWtswROXi1tlydNbuUttCJAXnN2UwDndJObogCWs8waMBu6tf2y5MmtrHWWwMmrpe2ypMmrrHWWwMmrpe3ypMmtvIVWBMhrzm4K4JxuclMUwHKWWQNmQ7e2X5Y8uZW1zhI4ebW0XZY0eZW1zhI4ebW0XZ40uZW30IoAec3ZTQGc001uigJYzjJrwGzo1vbLkie3stZZAievlrbLkiavstZZAievlrbLkya38hZaESCvObspgHO6yU1RAMtZZg2YDd3aflny5FbWOkvg5NXSdlnS5FXWOkvg5NXSdnnS5FbeQisC5DVnNwVwTje5KQpgOcusAbOhW9svS57cylpnCZy8WtouS5q8ylpnCZy8WtouT5rcyltoRYC85uymAM7pJjdFASxnmTVgNnRr+2XJk1tZ6yyBk1dL22VJk1dZ6yyBk1dL2+VJk1t5C60IkNec3RTAOd3kpiiA5SyzBsyGbm2/LHlyK2udJXDyamm7LGnyKmudJXDyamm7PGlyK2+hFQHymrObAjinm9wUBbCcZdaA2dCt7ZclT25lrbMETl4tbZclTV5lrbMETl4tbZcnTW7lLbQiQF5zdlMA53STm6IAlrPMGjAburX9suTJrax1lsDJq6XtsqTJq6x1lsDJq6Xt8qTJrbyFVgTIa85uCuCcbnJTFMByllkDZkO3tl+WPLmVtc4SOHm1tF2WNHmVtc4SOHm1tF2eNLmVt9CKAHnN2U0BnNNNbooCWM4ya8Bs6Nb2y5Int7LWWQInr5a2y5Imr7LWWQInr5a2y5Mmt/IWWhEgrzm7KYBzuslNUQDLWWYNmA3d2n5Z8uRW1jpL4OTV0nZZ0uRV1jpL4OTV0nZ50uRW3kIrAuQ1ZzcFcE43uSkKYDnLrAGzoVvbL0ue3MpaZwmcvFraLkuavMpaZwmcvFraLk+a3MpbaEWAvObspgDO6SY3RQEsZ5k1YDZ0a/tlyZNbWessgZNXS9tlSZNXWessgZNXS9vlSZNbeQutCJDXnN0UwDnd5KYogOUsswbMhm5tvyx5citrnSVw8mppuyxp8iprnSVw8mppuzxpcitvoRUB8pqzmwI4p5vcFAWwnGXWgNnQre2XJU9uZa2zBE5eLW2XJU1eZa2zBE5eLW2XJ01u5S20IkBec3ZTAOd0k5uiAJazzBowG7q1/bLkya2sdZbAyaul7bKkyausdZbAyaul7fKkya28hVYEyGvObgrgnG5yUxTAcpZZA2ZDt7Zfljy5lbXOEjh5tbRdljR5lbXOEjh5tbRdnjS5lbfQigB5zdlNAZzTTW6KAljOMmvAbOjW9suSJ7ey1lkCJ6+WtsuSJq+y1lkCJ6+WtsuTJrfyFloRIK85uymAc7rJTVEAy1lmDZgN3dp+WfLkVtY6S+Dk1dJ2WdLkVdY6S+Dk1dJ2edLkVt5CKwLkNWc3BXBON7kpCmA5y6wBs6Fb2y9LntzKWmcJnLxa2i5LmrzKWmcJnLxa2i5PmtzKW2hFgLzm7KYAzukmN0UBLGeZNWA2dGv7ZcmTW1nrLIGTV0vbZUmTV1nrLIGTV0vb5UmTW3kLrQiQ15zdFMA53eSm/s+6i4v4+Gjf4aX+kBMWwHNRgA19LrKy6JwVILdzFpjlW1WAvLYqJ4vNWQHyOmeBWb5VBchrq3KyWEcKkNuOhOYwrShAXnMyUgDndJOb+vm6c4r44IYCCgqwoSu4BMZhBcjtsCJ8v8wKkNdldgdswwqQ12FF+H6ZFSCvy+wO2JoUILdNynD/MipAXnOuUADndJObogCWs8waMBu6tf2y5MmtrHWWwMmrpe2ypMmrrHWWwMmrpe3ypMmtvIVWBMhrzm4K4JxuclMUwHKWWQNmQ7e2X5Y8uZW1zhI4ebW0XZY0eZW1zhI4ebW0XZ40uZW30IoAec3ZTQGc001riGnLAAAgAElEQVRuigJYzjJrwGzo1vbLkie3stZZAievlrbLkiavstZZAievlrbLkya38hZaESCvObspgHO6yU1RAMtZZg2YDd3aflny5FbWOkvg5NXSdlnS5FXWOkvg5NXSdnnS5FbeQisC5DVnNwVwTje5KQpgOcusAbOhW9svS57cylpnCZy8WtouS5q8ylpnCZy8WtouT5rcyltoRYC85uymAM7pJjdFASxnmTVgNnRr+2XJk1tZ6yyBk1dL22VJk1dZ6yyBk1dL2+VJk1t5C60IkNec3RTAOd3kpiiA5SyzBsyGbm2/LHlyK2udJXDyamm7LGnyKmudJXDyamm7PGlyK2+hFQHymrObAjinm9wUBbCcZdaA2dCt7ZclT25lrbMETl4tbZclTV5lrbMETl4tbZcnTW7lLbQiQF5zdlMA53STm6IAlrPMGjAburX9suTJrax1lsDJq6XtsqTJq6x1lsDJq6Xt8qTJrbyFVgTIa85uCuCcbnJTFMByllkDZkO3tl+WPLmVtc4SOHm1tF2WNHmVtc4SOHm1tF2eNLmVt9CKAHnN2U0BnNNNbooCWM4ya8Bs6Nb2y5Int7LWWQInr5a2y5Imr7LWWQInr5a2y5Mmt/IWWhEgrzm7KYBzuslNUQDLWWYNmA3d2n5Z8uRW1jpL4OTV0nZZ0uRV1jpL4OTV0nZ50uRW3kIrAuQ1ZzcFcE43uSkKYDnLrAGzoVvbL0ue3MpaZwmcvFraLkuavMpaZwmcvFraLk+a3MpbaEWAvObspgDO6SY3RQEsZ5k1YDZ0a/tlyZNbWessgZNXS9tlSZNXWessgZNXS9vlSZNbeQutCJDXnN0UwDndlmbqvb0fFFW5O8nnpQEOEBQYowAb+hhxeGhpFSC3S2sNwEYoQF5HiMJdS6sAeV1aawA2QgHyOkIU7lp6Bcjt0lsEwJoC5LUmxhRfUgBPIdYyPpUCeBldAdOsCrChz6og84tQgNwuQnWOmVWAvGaVY24RCpDXRajOMbMKkNescswtUgFyu0j1Ofa0CpDXaRX76fkUwDnd5Kaqs4PlgAPYUgE2dEvb5UmTW3kLrQiQVyu75cmSV3kLrQiQVyu7e0OW3PbGSgsi5DVnMwVwTje5KQpgOcusAbOhW9svS57cylpnCZy8WtouS5q8ylpnCZy8WtouT5rcyltoRYC85uymAM7pJjdFASxnmTVgNnRr+2XJk1tZ6yyBk1dL22VJk1dZ6yyBk1dL2+VJk1t5C60IkNec3RTAOd3kpiiA5SyzBsyGbm2/LHlyK2udJXDyamm7LGnyKmudJXDyamm7PGlyK2+hFQHymrObAjinm9wUBbCcZdaA2dCt7ZclT25lrbMETl4tbZclTV5lrbMETl4tbZcnTW7lLbQiQF5zdlMA53STm6IAlrPMGjAburX9suTJrax1lsDJq6XtsqTJq6x1lsDJq6Xt8qTJrbyFVgTIa85uCuCcbnJTFMByllkDZkO3tl+WPLmVtc4SOHm1tF2WNHmVtc4SOHm1tF2eNLmVt9CKAHnN2U0BnNNNbooCWM4ya8Bs6Nb2y5Int7LWWQInr5a2y5Imr7LWWQInr5a2y5Mmt/IWWhEgrzm7KYBzuslNUQDLWWYNmA3d2n5Z8uRW1jpL4OTV0nZZ0uRV1jpL4OTV0nZ50uRW3kIrAuQ1ZzcFcE43uSkKYDnLrAGzoVvbL0ue3MpaZwmcvFraLkuavMpaZwmcvFraLk+a3MpbaEWAvObspgDO6SY3RQEsZ5k1YDZ0a/tlyZNbWessgZNXS9tlSZNXWessgZNXS9vlSZNbeQutCJDXnN0UwDnd5KYogOUsswbMhm5tvyx5citrnSVw8mppuyxp8iprnSVw8mppuzxpcitvoRUB8pqzmwI4p5vc1P9dd34RHz8cPLmwDznRALwwBdjQFyY9B55BAXI7g3iMdq4Aee1ccg44gwLkdQbxGO1cAfLaueQcsAUFyG0LIrJEZwqQ15zUFMA53eSmfrbu6uLf1j29sI/935+Q0wzAi1OADX1x2nPkvALkNq8dk90rQF6715wj5hUgr3ntmOxeAfLaveYccXYFyO3sGrJCdwqQ15zWFMA53eSmKIDlLLMGzIZubb8seXIra50lcPJqabssafIqa50lcPJqabs8aXIrb6EVAfKas5sCOKeb3BQFsJxl1oDZ0K3tlyVPbmWtswROXi1tlyVNXmWtswROXi1tlydNbuUttCJAXnN2UwDndJObogCWs8waMBu6tf2y5MmtrHWWwMmrpe2ypMmrrHWWwMmrpe3ypMmtvIVWBMhrzm4K4JxuclMUwHKWWQNmQ7e2X5Y8uZW1zhI4ebW0XZY0eZW1zhI4ebW0XZ40uZW30IoAec3ZTQGc001uigJYzjJrwGzo1vbLkie3stZZAievlrbLkiavstZZAievlrbLkya38hZaESCvObspgHO6yU1RAMtZZg2YDd3aflny5FbWOkvg5NXSdlnS5FXWOkvg5NXSdnnS5FbeQisC5DVnNwVwTje5KQpgOcusAbOhW9svS57cylpnCZy8WtouS5q8ylpnCZy8WtouT5rcyltoRYC85uymAM7pJjdFASxnmTVgNnRr+2XJk1tZ6yyBk1dL22VJk1dZ6yyBk1dL2+VJk1t5C60IkNec3RTAOd3kpiiA5SyzBsyGbm2/LHlyK2udJXDyamm7LGnyKmudJXDyamm7PGlyK2+hFQHymrObAjinm9wUBbCcZdaA2dCt7ZclT25lrbMETl4tbZclTV5lrbMETl4tbZcnTW7lLbQiQF5zdlMA53STm6IAlrPMGjAburX9suTJrax1lsDJq6XtsqTJq6x1lsDJq6Xt8qTJrbyFVgTIa85uCuCcbnJTFMByllkDZkO3tl+WPLmVtc4SOHm1tF2WNHmVtc4SOHm1tF2eNLmVt9CKAHnN2U0BnNNNbooCWM4ya8Bs6Nb2y5Int7LWWQInr5a2y5Imr7LWWQInr5a2y5Mmt/IWWhEgrzm7KYBzuslNUQDLWWYNmA3d2n5Z8uRW1jpL4OTV0nZZ0uRV1jpL4OTV0nZ50uRW3kIrAuQ1ZzcFcE43uSkKYDnLrAGzoVvbL0ue3MpaZwmcvFraLkuavMpaZwmcvFraLk+a3MpbaEWAvObspgDO6SY3RQEsZ5k1YDZ0a/tlyZNbWessgZNXS9tlSZNXWessgZNXS9vlSZNbeQutCJDXnN0UwDnd5KYogOUsswbMhm5tvyx5citrnSVw8mppuyxp8iprnSVw8mppuzxpcitvoRUB8pqzmwI4p5vcFAWwnGXWgNnQre2XJU9uZa2zBE5eLW2XJU1eZa2zBE5eLW2XJ01u5S20IkBec3ZTAOd0k5uiAJazzBowG7q1/bLkya2sdZbAyaul7bKkyausdZbAyaul7fKkya28hVYEyGvObgrgnG5znzpy5Gjxww8Hivjcxo0CuA0VWaMrBdjQu1Ka47SpALltU03WmrcC5HXeCrN+mwqQ1zbVZK15K0Be560w689DAXI7D1VZc14KkNecsrIF8I8//lgcOnS4LEmjKK1/HDt2PKdGx1NHjx4rfn3D7cWvztlavPraGyuOfsed9xU/X3dOEZ/buFEAt6Eia3SlABt6V0pznDYVILdtqsla81aAvM5bYdZvUwHy2qaarDVvBcjrvBVm/XkoQG7noSprzksB8ppTVrYAjpL36p03liVpFKXDH+dsvLD446N/Ko4fX94y+OOPPy1+dfbWkUUvBXAu0Ez1QwE29H746MaC3Lo5rs2XvGr754aevLo5rs2XvGr754qe3Lo6r8mbvOZ860UBHGfQbj7/kmLjpm3FL844d0UZvPPam4s403YZb4Erit5t268s3n3v/RUQKYBXyME3ZgqwoZsZ3hO65LYnRprQIK8mRveEJnntiZEmNMiridE9o0lue2Zoz+mQ15zBvSiAH9v9xAr2hw8fLv7jvt8MyuAnn/r7iscVvqEAVnAJjPNSgA19Xsqy7jwVILfzVJe121aAvLatKOvNUwHyOk91WbttBchr24qyXhcKkNsuVOYYbSlAXnNK9rIADinizdMu23FteTbw7XfcW8Q1g5VuFMBKboG1bQXY0NtWlPW6UIDcdqEyx2hLAfLalpKs04UC5LULlTlGWwqQ17aUZJ0uFSC3XarNsWZVgLzmFOxtARxyVCXqJAXwqVOnigMHDhaj3kCueizeaC6eE9/P+1Zhj89t3HgTuDZUZI2uFGBD70ppjtOmAuS2TTVZa94KkNd5K8z6bSpAXttUk7XmrQB5nbfCrD8PBcjtPFRlzXkpQF5zyva2AK6fATx8iYjqzdfiDdg++vjT4umnny/Wb9hcni0cbyxXlcCff/5lcd2vby3WnblxxXWFz1y/qfjtg48UJ06cXKF6HGf4zehGfV/hiUJ5y9ZLy5k9e15fsRYF8Ao5+MZMATZ0M8N7Qpfc9sRIExrk1cTontAkrz0x0oQGeTUxumc0yW3PDO05HfKaM7iXBXBc7mH340+U1wC+4KLLi/37v12hTr0AfvxPTxbrN2wZFLdVARwlcHwdBe55m7YXt9x2d3H3vQ8Ul1y6c3Bt4V0PPLzi0hKTFMB1PBTAK2zhGxQYKMCGPpCCL4QUILdCZgG1IK+EQEkB8qrkFljJKxlQVIDcKrrmi5m85rzvRQEcl3h48aU95cdTf/3HoKTdeuGO4pNP961SpiqAz/rl5mLTlouLKHKPHz9ePu9//ud/ylI3CuC77t5VvP32eytK3iiXH33sL2UxvPn8S4pvvtm/av3hOz788JPinI0XFnHmcOCsbhTAlRJ8RoGVCrChr9SD7zQUILcaPoHyJwXIK0lQUoC8KrkFVvJKBhQVILeKrvliJq8573tRAI+6zMIFF+0odj/+ZHH48OFVylQFcMxVZ/wOPymK3tOnTw/fXX7/9df7i/M2by/OOOu84s233h35nOrOo0ePFTuvvbksjB/+3aMrymQK4EolPqPASgXY0FfqwXcaCpBbDZ9A+ZMC5JUkKClAXpXcAit5JQOKCpBbRdd8MZPXnPe9KIAv3XFNeXmGuERDnLW77eKrBtftjev8vvraGyvUqRfAf/3bP1c8ttY3UQzHtYHjzOEokIev3Vufj+fG2cXxvCiBowyu3yiA62rwNQr8SwE29H9pwVc6CpBbHa9AWnAJCEIgpQD7q5Rd9mDJq30EJAUgt5K22YImrznre1EAV2+qVpfg8OEjxU233FmWrxvP21bs+/yLwcNVARyXgHhv7weD+4e/iAI3nvvAf/6uuPjSq4tzNl5Urlc/43hcARyXe4jLPsTlH+IyEMM3CuBhRfgeBX5SgA2dJCgqQG4VXfPFTF59vVdkTl4VXfPFTF59vVdmTm6V3fPDTl5znve2AA454vq8cZ3eKGz/9OenBgpVBXCcHRxfj7rF2bo333rXoPBdd+bG8qzfOJM3rjlcvXFcUwH8zTffFlsvvKx8w7hnnnlh1CEKCuCRsnAnCnBmGhmQVIAXIpK22YImr7bWSxInr5K22YImr7bWSxMnt9L22YEnrznLe10Axxu5xTV+owC+4877BgqtVQDXL90QBfKbb72z4nrA44rbOEj9ur9xWYpTp04Njl3/Ytw6gXcYd3122q9/tu7q4t/WPb2wj/3fn5gWMs83VoAN3dh8YerkVtg8Q+jk1dB0YcrkVdg8Q+jk1dD0HlAmtz0w0YgCec2Z3esC+MiRo8VlO64ti9T7dz00UGitAvjAgYPl2btRwD7z7IuDueqLccVtlMe7H3+iPPP3om1XFN999301turzuHUogFfJxR1GCrChG5ndI6rktkdmGlAhrwYm94giee2RmQZUyKuByT2kSG57aGqPKZHXnLm9LoCra/D+4oxzi+eef2mg0FoFcFXMNl0j+PU33i7OOOu8slgevgREnC0c1/2Ny0t88OHHg2OO+qI6ThTNw+tQAI9SjPtcFGBDd3G6XzzJbb/87Dsb8tp3h/vFj7z2y8++syGvfXe4n/zIbT997Ssr8ppztncFcJyBe+DgweKx3X8p1m/YXJa0l11+bXH48OGBQmsVwPUzgB986A8rLv/w1VffFBdcdHm57nBxu3//t+VjUTjHWcCBZdyNAnicOjzmrAAburP7utzJra53jsjJq6PrupzJq653jsjJq6Pr+pzJrb6HTgzIa87tXhTAUcQ2fWy7+KoiStv6ba0CuH4N4ChzL7l0ZxHX8r3hxjvKs3uvu/7WYuOmbSvOAI7r/N551/2NOOr4Htv9RAmHArjuCl+jwL8UYEP/lxZ8paMAudXxCqQFb7ZJCKQUYH+VssseLHm1j4CkAORW0jZb0OQ1Z30vC+B1Z24sovh9+unnixMnTq5SZq0COAaOHz9e3HXPriLWqsrb+DquJfzfX31dbNl66YoC+LXX3yyv+1s9d9xnCuBVlnAHCqxQgA19hRx8I6IAuRUxCpilAuSVICgpQF6V3AIreSUDigqQW0XXfDGT15z3sgVwju70U8eOHS/27fui/IivVW8/W3d18W/rnl7Yx/7vT6hKB+4FKMCGvgDROeTMCpDbmSVkgQ4VIK8dis2hZlaAvM4sIQt0qAB57VBsDtWaAuS2NSlZqAMFyGtOZArgnG5yUxTAcpZZA2ZDt7Zfljy5lbXOEjh5tbRdljR5lbXOEjh5tbRdnjS5lbfQigB5zdlNAZzTTW6KAljOMmvAbOjW9suSJ7ey1lkCJ6+WtsuSJq+y1lkCJ6+WtsuTJrfyFloRIK85uymAc7rJTVEAy1lmDZgN3dp+WfLkVtY6S+Dk1dJ2WdLkVdY6S+Dk1dJ2edLkVt5CKwLkNWc3BXBON7kpCmA5y6wBs6Fb2y9LntzKWmcJnLxa2i5LmrzKWmcJnLxa2i5PmtzKW2hFgLzm7KYAzukmN0UBLGeZNWA2dGv7ZcmTW1nrLIGTV0vbZUmTV1nrLIGTV0vb5UmTW3kLrQiQ15zdFMA53eSmKIDlLLMGzIZubb8seXIra50lcPJqabssafIqa50lcPJqabs8aXIrb6EVAfKas5sCOKeb3BQFsJxl1oDZ0K3tlyVPbmWtswROXi1tlyVNXmWtswROXi1tlydNbuUttCJAXnN2UwDndJObogCWs8waMBu6tf2y5MmtrHWWwMmrpe2ypMmrrHWWwMmrpe3ypMmtvIVWBMhrzm4K4JxuclMUwHKWWQNmQ7e2X5Y8uZW1zhI4ebW0XZY0eZW1zhI4ebW0XZ40uZW30IoAec3ZTQGc001uigJYzjJrwGzo1vbLkie3stZZAievlrbLkiavstZZAievlrbLkya38hZaESCvObspgHO6yU1RAMtZZg2YDd3aflny5FbWOkvg5NXSdlnS5FXWOkvg5NXSdnnS5FbeQisC5DVnNwVwTje5KQpgOcusAbOhW9svS57cylpnCZy8WtouS5q8ylpnCZy8WtouT5rcyltoRYC85uymAM7pJjdFASxnmTVgNnRr+2XJk1tZ6yyBk1dL22VJk1dZ6yyBk1dL2+VJk1t5C60IkNec3RTAOd3kpiiA5SyzBsyGbm2/LHlyK2udJXDyamm7LGnyKmudJXDyamm7PGlyK2+hFQHymrObAjinm9wUBbCcZdaA2dCt7ZclT25lrbMETl4tbZclTV5lrbMETl4tbZcnTW7lLbQiQF5zdlMA53STm6IAlrPMGjAburX9suTJrax1lsDJq6XtsqTJq6x1lsDJq6Xt8qTJrbyFVgTIa85uCuCcbnJTFMByllkDZkO3tl+WPLmVtc4SOHm1tF2WNHmVtc4SOHm1tF2eNLmVt9CKAHnN2U0BnNNNbooCWM4ya8Bs6Nb2y5Int7LWWQInr5a2y5Imr7LWWQInr5a2y5Mmt/IWWhEgrzm7KYBzuslNUQDLWWYNmA3d2n5Z8uRW1jpL4OTV0nZZ0uRV1jpL4OTV0nZ50uRW3kIrAuQ1ZzcFcE43uSkKYDnLrAGzoVvbL0ue3MpaZwmcvFraLkuavMpaZwmcvFraLk+a3MpbaEWAvObspgDO6SY3RQEsZ5k1YDZ0a/tlyZNbWessgZNXS9tlSZNXWessgZNXS9vlSZNbeQutCJDXnN0UwDnd5KYogOUsswbMhm5tvyx5citrnSVw8mppuyxp8iprnSVw8mppuzxpcitvoRUB8pqzmwI4p5vcFAWwnGXWgNnQre2XJU9uZa2zBE5eLW2XJU1eZa2zBE5eLW2XJ01u5S20IkBec3ZTAOd0k5uiAJazzBowG7q1/bLkya2sdZbAyaul7bKkyausdZbAyaul7fKkya28hVYEyGvObgrgnG5yUxTAcpZZA2ZDt7Zfljy5lbXOEjh5tbRdljR5lbXOEjh5tbRdnjS5lbfQigB5zdlNAZzTTW6KAljOMmvAbOjW9suSJ7ey1lkCJ6+WtsuSJq+y1lkCJ6+WtsuTJrfyFloRIK85uymAc7rJTVEAy1lmDZgN3dp+WfLkVtY6S+Dk1dJ2WdLkVdY6S+Dk1dJ2edLkVt5CKwLkNWc3BXBON7mpKIDj48U3vlvIx/7vT8hpBuDFKcCGvjjtOXJeAXKb147J7hUgr91rzhHzCpDXvHZMdq8Aee1ec444uwLkdnYNWaE7BchrTmsK4JxuclM/X3dOER/cUEBBATZ0BZfAOKwAuR1WhO+XWQHyuszugG1YAfI6rAjfL7MC5HWZ3QFbkwLktkkZ7l9GBchrzhUK4JxuclMUwHKWWQNmQ7e2X5Y8uZW1zhI4ebW0XZY0eZW1zhI4ebW0XZ40uZW30IoAec3ZTQGc001uigJYzjJrwGzo1vbLkie3stZZAievlrbLkiavstZZAievlrbLkya38hZaESCvObspgHO6yU1RAMtZZg2YDd3aflny5FbWOkvg5NXSdlnS5FXWOkvg5NXSdnnS5FbeQisC5DVnNwVwTje5KQpgOcusAbOhW9svS57cylpnCZy8WtouS5q8ylpnCZy8WtouT5rcyltoRYC85uymAM7pJjdFASxnmTVgNnRr+2XJk1tZ6yyBk1dL22VJk1dZ6yyBk1dL2+VJk1t5C60IkNec3RTAOd3kpiiA5SyzBsyGbm2/LHlyK2udJXDyamm7LGnyKmudJXDyamm7PGlyK2+hFQHymrObAjinm9wUBbCcZdaA2dCt7ZclT25lrbMETl4tbZclTV5lrbMETl4tbZcnTW7lLbQiQF5zdlMA53STm6IAlrPMGjAburX9suTJrax1lsDJq6XtsqTJq6x1lsDJq6Xt8qTJrbyFVgTIa85uCuCcbnJTFMByllkDZkO3tl+WPLmVtc4SOHm1tF2WNHmVtc4SOHm1tF2eNLmVt9CKAHnN2U0BnNNNbooCWM4ya8Bs6Nb2y5Int7LWWQInr5a2y5Imr7LWWQInr5a2y5Mmt/IWWhEgrzm7KYBzuslNUQDLWWYNmA3d2n5Z8uRW1jpL4OTV0nZZ0uRV1jpL4OTV0nZ50uRW3kIrAuQ1ZzcFcE43uSkKYDnLrAGzoVvbL0ue3MpaZwmcvFraLkuavMpaZwmcvFraLk+a3MpbaEWAvObspgDO6SY3RQEsZ5k1YDZ0a/tlyZNbWessgZNXS9tlSZNXWessgZNXS9vlSZNbeQutCJDXnN0UwDndlmbqvb0fFFW5O8nnpQEOEBQYo8A33x8t4oMbCigpQG6V3AIreSUDSgqQVyW3wEpeyYCiAuRW0TVfzOQ15z0FcE63pZmatADecsFlxSN/fHxpcAMEBVAABVAABVAABVAABVAABVAABVAABVAABVBg/gpQAM9fY46AAiiAAiiAAiiAAiiAAiiAAiiAAiiAAiiAAiiAAgtRgAJ4IbJzUBRAARRAARRAARRAARRAARRAARRAARRAARRAARSYvwIUwPPXmCOgAAqgAAqgAAqgAAqgAAqgAAqgAAqgAAqgAAqgwEIUoABeiOwcFAVQAAVQAAVQAAVQAAVQAAVQAAVQAAVQAAVQAAXmrwAF8Pw15ggogAIogAIogAIogAIogAIogAIogAIogAIogAIosBAFKIAXIjsHRQEUQAEUQAEUQAEUQAEUQAEUQAEUQAEUQAEUQIH5K0ABPH+NOQIKoAAKoAAKoAAKoAAKoAAKoAAKoAAKoAAKoAAKLEQBCuCFyM5BUQAFUAAFUAAFUAAFUAAFUAAFUAAFUAAFUAAFUGD+ClAAz19jjoACKIACKIACKIACKIACKIACKIACKIACKIACKIACC1GAAnghsnNQFEABFEABFEABFEABFEABFEABFEABFEABFEABFJi/AhTA89eYI6AACqAACqAACqAACqAACqAACqAACqAACqAACqDAQhSgAF6I7BwUBVAABVAABVAABVAABVAABVAABVAABVAABVAABeavAAXw/DXmCCiAAiiAAiiAAiiAAiiAAiiAAiiAAiiAAiiAAiiwEAUogBciOwdFARRAARRAARRAARRAARRAARRAARRAARRAARRAgfkrQAE8f40XeoTTp08Xn3/xZfHiS3vKj48+/rQ4derUQjFx8OVS4MSJk8Wf/vxU8cmn+yYCdvToseKNN98p87Rnz+vFgQMH5zrXtHjXOLLHa8LP/dMpEDmLvMVe9vIrrxVfff1NEfvbWrfsHpida8KTXa/ruSb83D+dAocOHR7sk5HZaf7vze41J0+eLN55Z+/g38g333xb/Pjjj9MBrz07iyM71zb+GhW+TChw5MjR4ocfDhTxedwtu0dFNiOjsZ/Hv5HIbmQge8viyM61jT/L23Guymbkc9RH7L/j9r7sXpOda/Ko672ybfxNvLh/vAJ1H2Lvi5+pIgtNt+xek51bFhxt42/ixf3/UiA6ovh5a9S+Ouq+yPKoWz3j8X/8pK9Hs3OjMMR92fW6nmvCP6/7KYDnpewSrPvRR58UWy/cUfx83TkrPuK+d97duwQIgbBoBT7//FOO7MoAAB0FSURBVMvikkt3lvmIcm3cLYri3/z298W6MzeuyFN8f/+uh4rjx4+PHM/OjVysKIrsel3PNeHn/ukU+Pa774ubbv734hdnnLsid7GvxV4W+1zTLbsHZueWBUfb+Jt4cf9qBT7b93lx0bYrVmU18nr2uRcUe159o7GYyO5RUWD95Yn/KtZv2LziuPFvJv7txIv2aW5ZHNm5tvFPw5Xnjlbg22+/Ky646KfXj3fced/oJxVFuf9mXmfGD4NXXHn9irxW/0aef+Hlxn8jTUCye152rm38Tby4f7UCUVDcfMudq7JT/1nn6p03FseOrX5Nmt1rsnOr0f90T9d7Zdv4m3hx/3gFwvff/f6xVf9XR3a3bL105P/V2b0mO9fEILte13NN+Ll/MgU+/vjT4ldnbx27v9b32uHuILvXZOeaWGXX63quCf+876cAnrfCC1r/ww8/Kc7ZeGH5DzhenMcPh48+9ufyP5j4hxuPxXO4+SkQv1GN4veGG+9YUaoNb+J1ZeIF9933PlDm6cz1m4r4gfCfTz9X3HzrXYNCOB4fPrs8O1c/dv3r7Hpdz9Ux83VegcOHDxfbL7m6zN2mLRcXux54qMzdv995X7Hh7PPL+5v2suwemJ1rYpldr+u5JvzcP50CsY9G8Rq/WNv9+BPF88+/XOY2yt/4vzf2zzffemfVotk9KvbzOE4cM34Zd92vby3/jcR+XBXCO6+9eezZRXUwWRzZubbx17nwdU6B8OTh3z1a5jUy21QAZ/eo/fu/LS646PJy/Y2bthV/+OOfiqf++o9i28VXDf6NxFlxk96yOLJzbeOflCfP+0mBKHaj4I09L/Kz+fxLVn3cets9xfHjJ1ZIlt1rsnMrDl77puu9sm38NSp8OYUCcYZv/P8ce2r8Xx0Zjn0vPm686Y7iou1XrCqAs3tNdq6JTna9ruea8HP/5ArESQzbL7lq1Z5a32dj3439N4riKIyrW3avyc5Vxx3+nF2v67lh3F1+TwHcpdodHSt+w/jrG28v/5OJoiS+r27xH9CVV99QPhbPqT9WPYfP/VXgyy+/Gvzg9dMvAi4qC4n4elwBHIVFFBex2e/d+8EKgeJsnTPOOm9ksZGdW3GA2jfZ9bqeq0HmyxkUiDMXowB+9rkXV13uIR67/Irryr3sxpv+fcWfDmf3wOxcE8Xsel3PNeHn/ukViEsuxS/Yhm8HDx4qLttxbZnX62+4bUVe47nZPWrf518UG8/bVu7Bzz730oozJz/48ONyz44X6n/92z+HIY38PosjO9c2/pGkuHMqBSpP4nVBfIwqgLN7VPyAteuBh8t1r7zq18Xhw0cG2KIYu/Ou+8vHogw+cHDty0tlcWTn2sY/IM8XEytw9NixIrIzXD6stUCV63i9Os1emZ1rwtP1Xtk2/iZe3N+sQOxt9/7Hb8q9beuFlxWfffb5qifHmYexv1S37F6TnauOO/w5u17Xc8O4+X4+CoSv1S+I4//y+L66Zfea7Fx13OHP2fW6nhvG3eX3FMBdqt3Rsd7b+0Fx1i83l2f57tv3xaqjvv7G2+UPi9O+eFq1EHfIKVD9aUecPbn78SeLr7/ePzgrvKkAjhcu1Z/b3Xf/gys2+xAgfpC67vqffqsdP7xV/xlk55pEza7X9VwTfu6fXoE40yf+FLnp9sr/O9ty+E/nsntgdq4JX3a9ruea8HN/uwpECRuF2nBes3tUoHvo4T+Wa8YeHHtx/RZ7cezZccymP4muPz+LIzvXNv46F77OKRBe3nLr3eVrxOpSJqMK4OweFa85ztu8vVw/XosO3+I1a/xVR/zSIvb3tW5ZHNm5tvGvxY/HVysQv/yNPXTan2Gye2V2bjXyovwruczr6VgriyM7Nwo/9+UUqJf+8YvZSW7ZvSY714Qpu17Xc034ub9dBaqSNE48iK/rt+xek52rH7v+dXa9rufqmLv+mgK4a8U7OF4V4FFnGcXhDx46VGzbfmX5Q+GkZwV1AJtDdKBAXE81rkFZXa+3eiEdBUFTAVz/T/zNt94dibIqNiJXka+4ZedGHmCG9bI4snNN+Lm/fQWqX2gM/yCY3QOzc03Msut1PdeEn/vbVSD22FEFcHaviTdCqs4qbvq/PPbsOOPt3PMuKt8QdhyjLI7sXNv4x3HjsckUqP6iJ/5C7PeP7C7zOqoAzu5Rzzz7Yrlm/bVCHVm88Uq8do1/J/HeAmvdsjiyc23jX4sfj69WoHrdOvyLtNXP/Nc92b0mO/evI6/8quu9sm38K9nw3SQKxC/Vbrv9nnJPG3USTdMa2b0mO7csONrG38SL+6dXILJ81z27yizHWcDVCV+xUnavyc41oc+u1/VcE/6u7qcA7krpjo4T17yK6/3Fi+c/PvrnkUetn60T/5C5+SpQvZAeVwC/9vqb5dk4cf2f7777fqRY1dk0cZ3LTz/dVz4nOzfyAEVRZNfreq4JP/e3r0CVu/oPgtk9MDvXxCq7XtdzTfi5v30FHtv9RPl/8/AvZ7N7VOy1sefGX3TEm1mNulWFQ5xRGccZd8viyM61jX8cNx5bW4F4s5748+Q4A/eTTz4rqrwOF8DZPSoQVD883n7HvSt+eKyjq8rZeC0bx2q6ZXFk59rG38SL+8crUO0b9f/3x08U5evSzF5ZHWvRe2wWR3ZuLT15fHIFqv+D4y9z4zXrpLfsXpmda8KVXa/ruSb83N+eAtVJN/GeLF999c2KhbN7TXZuxcFr32TX63quBnkhX1IAL0T2+R30wIGD5Qv4KPReevnVxgPFmRXxnOEfRBsHeKCXCkxSAP/pz0+VWYlrrsW110bd4rqXcYZZnGlWnSWcnRu1ftyXXa/ruSb83N+uAvGb5+o6VPU/f8/ugdm5JlbZ9bqea8LP/e0q8N9ffV3+3xzXUh/+0/bsHjVJ8TrNX/xkcWTn2sbfrmNeq8WJAXEJp/hFQbypYOyvTQVwdo+apHgN1Uf9RdEoN7I4snNt4x/FifvWVqAqIca9Jh1eJbvXZOeGj1993/Ve2Tb+igefJ1eg+iuc+OVa7D2xt8Yv215+5bXyLy+///6HVb8My+412bkmNtn1up5rws/97Skw7uzfOEp2r8nONTHLrtf1XBP+ru6nAO5K6Y6OM0mhF1CqF/aTXBewI+gcZgEKTJKXSbIyap3sXJMM2fW6nmvCz/3tKlC9g3sUFs8888Jg8VFZHDxY+2I4F9m52pIrvsyu1/XcCtB804oC8cZWr7zyWvHiS3uK+HPGW267u3yTzPUbNpfv+B0/ANZvw1msP1Z9PSoXTZeUqGbic1xHO/6fj1/4xnHG3bI4snNt4x/HjcfGKxCla+ylcdZtvFlw3Cpfh88AHpXFUatX89XrzEmzOEku4nhZHNm5tvGP0oz71lagKtRiT6t/nLdpe/HbBx8ZeaLCJJka5W92ronF8L+JUc8blc8sjuzcKFzcl1OgKv1jH/zii/8urrjy+hW5jQzHfVEKV7dRWaweq38e9jc7V1+z/nV2va7n6pj5ej4KVNfnj78QGvX+UsNZHIViVC6yc6PWj/uy63U914S/q/spgLtSuqPjVKewr/WnJpO8COkIModZoAKjXmgOw6n+jCfeuCJ+AzjqNmqd7Nyo9eO+7HpdzzXh5/72FHj/g4+KeAOCeOF80y13rnjzq+wemJ1rYpVdr+u5Jvzcn1egOkOtXk5cefUNxbvvvV/EO30P37J7VPWDZVwHOK5fNuo26gX3qOfFfVkc2bm28Tfx4v7xClS/TIsf7OLr6la9ThwugLN7VP3M2/jFSNNtkh/EYjaLIzvXNv4m/tw/XoEqH/X9tf51vDb46ONPVyyS3WuycysOXvum672ybfw1Knw5oQJxOcbI59XX3FTE64C4nEj8Uvjuex8ofn3D7cW6MzeWj8ebblaX2cvuNdm5JirZ9bqea8LP/e0oECctVG8o3HQd6+xek51rYpZdr+u5Jvxd3U8B3JXSHR2n+sFz+E2Rhg9fvbCvzswYfpzvPRQYVdwOM48f/uLFy/APgfXnjVonO1dft/51dr2u5+qY+bpdBaI8+8sT/1XEmZSRyZtvvWtwtlp1pOwemJ2rjjv8Obte13PDuPl+dgXiTJ5dDzxU/oAX+8/WC3cMfsi77PJriy+//GrFQbJ71CT/j09TAGdxZOfaxr9CVL6ZSIEoHKJ4iLN/h99IsPIn/K3fsnvUqNcJ9XWrr6uCb61rvGZxZOfaxl/x5fPsCsRZ64/t/svgtUG9TIvVqyyP+5ln1F6ZnWti1PVe2Tb+Jl7c36xA5XkUvVftvKH8y4X6s99//8PyuuvxmjbeeDNu2b0mO1fHU/86u17Xc3XMfN2+At98s7+I9wFav2FLESfgjLpl95rs3CgMcV92va7nmvB3dT8FcFdKd3SceDEf/0jjP5J4Ed10myToTbPc3x8FJvlPevDb6503ln9OPIr9qHWyc6PWj/uy63U914Sf+2dTIP6sPs72jb0tXkg/8ofHV5z5W62e3QOzc9Vxhz9n1+t6bhg3389HgW+/+748+yfyO1xOZPeouM5/rDeuKBtVajQxzOLIzrWNv4kX949WIP6iJ85CiwzF5+G/8KleJw4XwNk9Kt5DIK7bGseLtZtukxbAWRzZubbxN/Hn/rwCcdmduM56ZKz+C43sXpOda2LQ9V7ZNv4mXtzfrEBVAEd5Fn8FNHyrn11Z/TVPdq/Jzg1jqr7Prtf1XIWXz/NR4Mmn/l7uqeN+gZbda7JzTUyz63U914S/q/spgLtSuqPjjCriRh26ehO4cX/WP2qO+/qlwCR5qX4IHLfxV28CV7/0SHauSeHsel3PNeHn/rwCka94A434oS5+wfXOu3sbF5sk0zE8vAdm55qAZNfreq4JP/e3r0C8a3K8e/JwOZHdoyYpyupvAjfuz+6DbRZHdq5t/O071t8Vo+yNs83izN9Ld1xTXpsy9p76R/Umm/GXFtX98QuF7B416S8jqjeBq8qQJheyOLJzbeNv4sX9eQVOnDhZxJvCxh4bl1uobtm9JjtXHXf4c9d7Zdv4h/nw/doKVJ6P28+GfcruNdm5JhbZ9bqea8LP/bMrUPcyiuCm23CGRz1v1OvR7Nyo9eO+7HpdzzXh7+p+CuCulO7oOJP81i1e+EfxGy+QHnr4jx0h4zDLqMAkPwhN8lux9/Z+UET5e97m7cXXX+8vqWbnmnTKrtf1XBN+7s8pENfyq1/vN84EHnfL7oHZuSYs2fW6nmvCz/3tK1D/v7deTmT3qI8++qS8nuC4Sz7Ffhz7cv2Xc03Msjiyc23jb+LF/asVqP/fH68FJ/2IMiO7R8WZbrffcW95rOGziusI43Vp4FnrBIUsjuxc2/jrnPm6PQWqMy7rGcvuNdm5JjZd75Vt42/ixf3NClS/0Iq/foi9Z9RtuHzK7jXZuVGY4r7sel3PNeHn/tkViEs+xNnrTW/+Vh0hu9dk56rjDn/Ortf13DDurr+nAO5a8Q6Ot9abDHz//Q/F+VsvLc/8eGXMZSI6gMohFqxA/YfAeAEy6jbJG6ZUv+GunyWcnRuFIe7Lrtf1XBN+7p9egbiuX7xpRpQBo/5EuWnF7B6YnVsWHG3jb+LF/TkF6gVwnIFe3bJ71CRvtBL/x8dZnvF/fvzfP+6WxZGdaxv/OG48tlKBAwcPlpdjiL+oaPr41Tlby703rrlePaf6s/rsXrPWG63UzzaK1xVr3bI4snNt41+LH49Pp0DTHpvda7JzTai73ivbxt/Ei/ubFRh1gszws6tfDMRfuoVnccvuNdm5YUzV99n1up6r8PK5XQXiL4XiZ7D4y4r4C4umW3avyc4tC4628Tfxavt+CuC2FV2C9aof+Jp+W/Pc8y+VPxDGdQir/2iWADYQFqDAJAVw/QeyUe/+GSXd5VdcV/4HUf/zkOxckwzZ9bqea8LP/dMrUO1V8cZZhw8fnniB7B6YnWsCll2v67km/NzfrgL1S0DUL8eQ3aPiLJs777q/8cV5lCG33X5P+fiovXuYXRZHdq5t/MN8+H42Bapf7NbPpKxWzO5R1RuwnXHWecXrb7xdLTf4POnZRtVAFkd2rm38FQ8+t6PAvn1flGeqxS+94vVDdcvuNdm56rjDn7veK9vGP8yH79dWoPoZadQbbcZ0/f/p+P86vo9bdq/JzjUxya7X9VwTfu7PK1Dfr9b6hWx2r8nONbHKrtf1XBP+ru6nAO5K6Q6PU/1nE7+x2XntzUV8X93iB9ALLrq8LIDjt3PcvBWYpAAOhaoiLt5cI95ko7qdPn26ePSxvwx+oRBvrlK/ZeaOHz9R5nb4BXysm1lvEXN1Dfg6r0B1ltaoAmLcqtk9MDtXndUTZ8nFu+VWt+x6Xc9VePk8mwLxC9VdDzy8IgPVivU3gdt28VVFnIFZv2X3tqowi/1y9+NPlH+yGevGi9nnX3i5fEOk+GXwJ598Vj9ceX3MeI1Qvet49WAWR3Yui7/Cy+f5KTCuAM7uUfWyI16L7t//7YBAXN5n5zU3lb+wuPc/fjMoQuIJy7LHZvEPSPLFzArEL8/q/89WC3722eflG2zGvjbql8bZvSY7V71+aWuPzeLIzlW68nl2BeIvJ+L/6Pi/+P33PxwsGP9P/+Ofz5X/T8fPV2++9c7gsexek51r2mOz63U9NxCOL1pToHp/n/iF7Ztvvbvmutm9Jjv32utvlv+u4iS0eE1S3bLrdT1X4V3EZwrgRajewTE//PCT8j+aeCG0cdO2IgqUG268Y/DuuNf9+tYV/1g6gMQhllCBSQvg+I+8erfwdWduLOJSD3fdvavYeuGO8oe1+BPR+BOm4Vtmrrpm5XCZFmtn1lvE3LAOfD+9AidPniyuv+G2Ml+xj631MVwSZ/fAzFz8QBr46mdvVIwz68Vs13MVXj7nFaj20/hBLy65EJmMfXPHFdcN/u+N61nHda2Hb9m9LX6AjOI3jhkfl1y6szxmfI7vY7+OX/bG86rbkSNHi3hDmriuW7zgrd+yOLJzGfx1vHw9PwXGFcBx1OweFaVvlL+xZ244+/ziltvuLj/i67gvfkFSL4bjWMu0x2bwz88lv5VjXx3eY2M/i70u8hOvHT/5dN8qYbJ7TWZuHntsBkeIkJ1bJSB3pBWIMymv//VPr2frP0NduO2nE7Iiz/Vf4FYHyu41mblxe2xmveDQ9VylG5/bUaAqWOvv7zNu5exek52r3i9g+Jds2fW6nhun5bwfowCet8ILXD8uaB2XeYgXRNVH/IYxzlA6fvz4ApFx6GVRoCosIh9N1wCusMa1f3774CODIqPKVGTsnXf3Vk9b9XnaufgtY/y2sekNYP6/9u6mt5EaDABw/zpCcODAH4AbN7hwgsP+iJU4rYRAHJuPdttm74PeSM6G2UzicVMTe56Roml367H92H0zfet65l4vNah2uVSvc5nA8Z8epbl27jxOAEetpTFwbrnYzzXaFjfQp46510vXqF0u1etcJhAx5udffv0iRsbciPfeSHTFSuCpozRGxV9ixPY7KYGWvk/il7+xCjhuao+PtKpj6qnkpe0oLTe3/cd98fHbCVxKAEfNpTFqs3nY7+8eiY80XyMx8sOPPw1xXzI+bi3Gzm3/uD8+Lxf47fd3kzE2Fiaci7GlsWZuubeKsXPbkZRLy6Xyzq8XiJ+74+fvuBdIMS/OU+/TqcbSWDO33KUYO/d6tduf6nO+nkC6Bzj3AMNxbaWxZm65tEho6gHHc6+X+lG7XKq39lkCuLZ45friB7/d7tMQm9Df36+G+IZxEHiNQMyhmEsxp2JujZMLU9fOLZfecKaSaen6uddLX5/Otculep3/H4HSGJhbLiWqL/2GPPd6Y6Xa5cb1+3y+QNxAxhYPsR/lhw9/7vfajxWyuUdpjIo6ttvH/S/kIokW7Th1pP1PY/XEuaO0HaXlctt/rs3+r75AaYyKlsZKyVhJHN8rEUtPHbcaY3Pbf6pP/u11AhErYsudmDslMbY01uSWe+sYm9uOsXJpufF1fF4ucPz+GPcJU+/T4xpyYuW4THyeUy43xuZer7Qd1yx36lr+rZ5AaazJLRcPNY6/tJtayJB6mnu99PXpXLtcqrfWWQK4lrR6CBC4KBABN1b+XkqmXbyQLyBQSSBtWTK1Yr1SM1RDIFsgEr9TqyayL+ILCVQSEGMrQavmagJi7NUoXaiCgBhbAVkVVxWIRWhxH3tpIcNVK+3oYhLAHQ2mrhBoXSBWdHz19Xf7vV/jt+QOArcukPbIiod8OAjcukB6yOY3334/vOx2t95c7SMwiLEmQUsCYmxLo6WtISDGmgetCcSzLXIfTtda32q0VwK4hrI6CBDIEoingL9//8cQ+6c5CLQgEHM15mzMXQeBWxeIfXrjh72//v7n1puqfQT2AmKsidCSgBjb0mhpawiIseZBawJxDxv3shFvHfMFJIDnmylBgAABAgQIECBAgAABAgQIECBAgACBJgQkgJsYJo0kQIAAAQIECBAgQIAAAQIECBAgQIDAfAEJ4PlmShAgQIAAAQIECBAgQIAAAQIECBAgQKAJgakE8HrzPKTXZvsy3DXRG40kQIAAAQIECBAgQIAAAQIECBAgQIAAgYOABPCBwgcECBAgQIAAAQIECBAgQIAAAQIECBDoS+B+9TjEa7X6+Pm1fjqs/o1VwFYA9zXmekOAAAECBAgQIECAAAECBAgQIECAwEIEvkgAr5+GlQTwQkZfNwkQIECAAAECBAgQIECAAAECBAgQ6FrgUgI4Vv9aAdz1FNA5AgQIECBAgAABAgQIECBAgAABAgR6FZAA7nVk9YsAAQIECBAgQIAAAQIECBAgQIAAgcULSAAvfgoAIECAAAECBAgQIECAAAECBAgQIECgVwEJ4F5HVr8IECBAgAABAgQIECBAgAABAgQIEFi8gATw4qcAAAIECBAgQIAAAQIECBAgQIAAAQIEehWQAO51ZPWLAAECBAgQIECAAAECBAgQIECAAIHFC0gAL34KACBAgAABAgQIECBAgAABAgQIECBAoFeBSACvVh8/v9ZPw2r9NKw3z/vXZvsyxOuuVwD9IkCAAAECBAgQIECAAAECBAgQIECAQK8C/0kAj5K/kQSWAO515PWLAAECBAgQIECAAAECBAgQIECAAIHuBc4lgFPy1wrg7qeBDhIgQIAAAQIECBAgQIAAAQIECBAg0KOABHCPo6pPBAgQIECAAAECBAgQIECAAAECBAgQGIYhJwG8fdjZA9hsIUCAAAECBAgQIECAAAECBAgQIECAQGsCOQ+AkwBubVS1lwABAgQIECBAgAABAgQIECBAgAABAsMwHBLAZx4AJwFsqhAgQIAAAQIECBAgQIAAAQIECBAgQKBBgakE8PED4CSAGxxYTSZAgAABAgQIECBAgAABAgQIECBAgIAEsDlAgAABAgQIECBAgAABAgQIECBAgACBTgUuJYBj9a8VwJ0Ovm4RIECAAAECBAgQIECAAAECBAgQINC3wD4BfGH/XwngvueA3hEgQIAAAQIECBAgQIAAAQIECBAg0KnAqQTweP9fCeBOB1+3CBAgQIAAAQIECBAgQIAAAQIECBDoW0ACuO/x1TsCBAgQIECAAAECBAgQIECAAAECBBYssMrY/sEK4AVPEF0nQIAAAQIECBAgQIAAAQIECBAgQKBdgXEC+NT2DxLA7Y6vlhMgQIAAAQIECBAgQIAAAQIECBAgsGCBSACvN8+H16kE8MPjp+FuwUa6ToAAAQIECBAgQIAAAQIECBAgQIAAgSYFphLAseo3vSSAmxxajSZAgAABAgQIECBAgAABAgQIECBAYOkCxwngU6t/IwksAbz0WaL/BAgQIECAAAECBAgQIECAAAECBAg0KXBq+4e08jclfyWAmxxajSZAgAABAgQIECBAgAABAgQIECBAYOkCKQF8bvVvJID/BfkfXMGXA/bFAAAAAElFTkSuQmCC;" parent="1" vertex="1">
          <mxGeometry x="-190" y="467" width="294.97" height="150" as="geometry" />
        </mxCell>
        <mxCell id="bWYZ4k5fsg8GDxKLtTMg-10" value="At Lecture" style="text;html=1;align=center;verticalAlign=middle;resizable=0;points=[];autosize=1;strokeColor=none;fillColor=none;" parent="1" vertex="1">
          <mxGeometry x="-79.01" y="624" width="73" height="26" as="geometry" />
        </mxCell>
        <mxCell id="bWYZ4k5fsg8GDxKLtTMg-11" value="" style="shape=image;verticalLabelPosition=bottom;labelBackgroundColor=default;verticalAlign=top;aspect=fixed;imageAspect=0;image=data:image/png,iVBORw0KGgoAAAANSUhEUgAABYAAAALMCAYAAABdbBa3AAAgAElEQVR4Aey9ibcURaKve/7C7tPd56x731rvvXXXPffZIsqgqCACgoIyiOKsKIo4YdvOfRTnGUVBZJR5kEHmeVSIt35ZRhGVu7IqM3ZmVUTmV2sluXdVZmTEF7/Kyvp2EPlvhgcEIAABCEAAAhCAAAQgAAEIQAACEIAABCAAAQhEReDgr8fMr4eOJ8uhQydMshw+aQ4dPmkOHzmVLEeOnjb/FlWrqCwEIAABCEAAAhCAAAQgAAEIQAACEIAABCAAAQgYBDAhgAAEIAABCEAAAhCAAAQgAAEIQAACEIAABCBQUwII4Jp2LM2CAAQgAAEIQAACEIAABCAAAQhAAAIQgAAEIIAAJgMQgAAEIAABCEAAAhCAAAQgAAEIQAACEIAABGpKAAFc046lWRCAAAQgAAEIQAACEIAABCAAAQhAAAIQgAAEEMBkAAIQgAAEIAABCEAAAhCAAAQgAAEIQAACEIBATQkggGvasTQLAhCAAAQgAAEIQAACEIAABCAAAQhAAAIQgAACmAxAAAIQgAAEIAABCEAAAhCAAAQgAAEIQAACEKgpAQRwTTuWZkEAAhCAAAQgAAEIQAACEIAABCAAAQhAAAIQQACTAQhAAAIQgAAEIAABCEAAAhCAAAQgAAEIQAACNSWAAK5px9IsCEAAAhCAAAQgAAEIQAACEIAABCAAAQhAAAIIYDIAAQhAAAIQgAAEIAABCEAAAhCAAAQgAAEIQKCmBBDANe1YmgUBCEAAAhCAAAQgAAEIQAACEIAABCAAAQhAAAFMBiAAAQhAAAIQgAAEIAABCEAAAhCAAAQgAAEI1JQAArimHUuzIAABCEAAAhCAAAQgAAEIQAACEIAABCAAAQgggMkABCAAAQhAAAIQgAAEIAABCEAAAhCAAAQgAIGaEkAA17RjaRYEIAABCEAAAhCAAAQgAAEIQAACEIAABCAAAQQwGYAABCAAAQhAAAIQgAAEIAABCEAAAhCAAAQgUFMCCOCadizNggAEIAABCEAAAhCAAAQgAAEIQAACEIAABCCAACYDEIAABCAAAQhAAAIQgAAEIAABCEAAAhCAAARqSgABXNOOpVkQgAAEIAABCEAAAhCAAAQgAAEIQAACEIAABBDAZAACEIAABCAAAQhAAAIQgAAEIAABCEAAAhCAQE0JIIBr2rE0CwIQgAAEIAABCEAAAhCAAAQgAAEIQAACEIAAApgMQAACEIAABCAAAQhAAAIQgAAEIAABCEAAAhCoKQEEcE07lmZBAAIQgAAEIAABCEAAAhCAAAQgAAEIQAACEEAAkwEIQAACEIAABCAAAQhAAAIQgAAEIAABCEAAAjUlgACuacfSLAhAAAIQgAAEIAABCEAAAhCAAAQgAAEIQAACCGAyAAEIQAACEIAABCAAAQhAAAIQgAAEIAABCECgpgQQwDXtWJoFAQhAAAIQgAAEIAABCEAAAhCAAAQgAAEIQAABTAYgAAEIQAACEIAABCAAAQhAAAIQgAAEIAABCNSUAAK4ph1LsyAAAQhAAAIQgAAEIAABCEAAAhCAAAQgAAEIIIDJAAQgAAEIQAACEIAABCAAAQhAAAIQgAAEIACBmhJAANe0Y2kWBCAAAQhAAAIQgAAEIAABCEAAAhCAAAQgAAEEMBmAAAQgAAEIQAACEIAABCAAAQhAAAIQgAAEIFBTAgjgmnYszYIABCAAAQhAAAIQgAAEIAABCEAAAhCAAAQggAAmAxCAAAQgAAEIQAACEIAABCAAAQhAAAIQgAAEakoAAVzTjqVZEIAABCAAAQhAAAIQgAAEIAABCEAAAhCAAAQQwGQAAhCAAAQgAAEIQAACEIAABCAAAQhAAAIQgEBNCSCAa9qxNAsCEIAABCAAAQhAAAIQgAAEIAABCEAAAhCAAAKYDEAAAhCAAAQgAAEIQAACEIAABCAAAQhAAAIQqCkBBHBNO5ZmQQACEIAABCAAAQhAAAIQgAAEIAABCEAAAhBAAJMBCEAAAhCAAAQgAAEIQAACEIAABCAAAQhAAAI1JYAArmnH0iwIQAACEIAABCAAAQhAAAIQgAAEIAABCEAAAghgMgABCEAAAhCAAAQgAAEIQAACEIAABCAAAQhAoKYEEMA17ViaBQEIQAACEIAABCAAAQhAAAIQgAAEIAABCEAAAUwGIAABCEAAAhCAAAQgAAEIQAACEIAABCAAAQjUlAACuKYdS7MgAAEIQAACEIAABCAAAQhAAAIQgAAEIAABCCCAyQAEIAABCEAAAhCAAAQgAAEIQAACEIAABCAAgZoSQADXtGPTzVqw8FGjhQcEIAABCEAAAhCAAAQgAAEIQAACEIAABCDQHAII4Mj7euu2HWbchCl9l1tvu8vMmrPInL/4OwsMgs/Ajn2njBbyyvs1pgyQW/JKXslATBmIqa6cX3lvkVcyEFMGYqwr51neYzHldueB02b3gVOR27zBVx8BPHjmpR4RAcyJOqYTdd66cgFCrvNmJaTtyC25DSmP/epCXslrv4yE9Dp5Ja8h5bFfXcgree2XkRBfJ7fkNsRcZtUJAeynFRHAftyi24sRwJzQs06eIT7PBQh5DTGX/epEbsltv4yE9Dp5Ja8h5bFfXcgree2XkZBeJ6/kNaQ85q0LuSW3ebMSwnYIYD8liQD24xbdXghgTughnKjz1oELEPKaNyshbUduyW1IeexXF/JKXvtlJKTXySt5DSmP/epCXslrv4yE+Dq5Jbch5jKrTghgPyWJAPbjFt1eCGBO6FknzxCf5wKEvIaYy351Irfktl9GQnqdvJLXkPLYry7klbz2y0hIr5NX8hpSHvPWhdyS27xZCWE7BLCfkkQA+3GLbi8EMCf0EE7UeevABQh5zZuVkLYjt+Q2pDz2qwt5Ja/9MhLS6+SVvIaUx351Ia/ktV9GQnyd3JLbEHOZVScEsJ+SRAD7cYtuLwQwJ/Ssk2eIz3MBQl5DzGW/OpFbctsvIyG9Tl7Ja0h57FcX8kpe+2UkpNfJK3kNKY9560JuyW3erISwHQLYT0kigP24RbcXApgTeggn6rx14AKEvObNSkjbkVtyG1Ie+9WFvJLXfhkJ6XXySl5DymO/upBX8tovIyG+Tm7JbYi5zKoTAthPSSKA/bhFtxcCmBN61skzxOe5ACGvIeayX53ILbntl5GQXiev5DWkPParC3klr/0yEtLr5JW8hpTHvHUht+Q2b1ZC2A4B7KckEcB+3KLbCwHMCT2EE3XeOnABQl7zZiWk7cgtuQ0pj/3qQl7Ja7+MhPQ6eSWvIeWxX13IK3ntl5EQXye35DbEXGbVCQHspyQRwH7cotsLAcwJPevkGeLzXICQ1xBz2a9O5Jbc9stISK+TV/IaUh771YW8ktd+GQnpdfJKXkPKY966kFtymzcrIWyHAPZTkghgP27R7YUA5oQewok6bx24ACGvebMS0nbkltyGlMd+dSGv5LVfRkJ6nbyS15Dy2K8u5JW89stIiK+TW3IbYi6z6oQA9lOSCGA/btHthQDmhJ518gzxeS5AyGuIuexXJ3JLbvtlJKTXySt5DSmP/epCXslrv4yE9Dp5Ja8h5TFvXcgtuc2blRC2QwD7KUkEsB+36PZCAHNCD+FEnbcOXICQ17xZCWk7cktuQ8pjv7qQV/LaLyMhvU5eyWtIeexXF/JKXvtlJMTXyS25DTGXWXVCAPspSQSwH7fo9kIAc0LPOnmG+DwXIOQ1xFz2qxO5Jbf9MhLS6+SVvIaUx351Ia/ktV9GQnqdvJLXkPKYty7kltzmzUoI2yGA/ZQkAtiPW3R7TZjylJky/wuz7N1fWWAQfAYWv77faCGvvF9jygC5Ja/klQzElIGY6sr5lfcWeSUDMWUgxrrW7Ty7+8AFE4KopA7ViHUEsJ+SRAD7cYtuLwngSQt3ssCADJABMkAGyAAZIANkgAyQATJABsgAGahtBhDA1YjXUIQ2AthPSSKA/bhFtxcCGPnNHwDIABkgA2SADJABMkAGyAAZIANkgAzUPQMIYARwdNJuABVGAA8AcgiHQADzIV/3D3naR8bJABkgA2SADJABMkAGyAAZIANkAAGMAA7Bw4VWBwRwaD1SUX0QwHwIciFEBsgAGSADZIAMkAEyQAbIABkgA2Sg7hlAACOAK1JrUReLAI66+/JXHgHMh3zdP+RpHxknA2SADJABMkAGyAAZIANkgAyQAQQwAji/LWvOlgjghvQ1ApgPQS6EyAAZIANkgAyQATJABsgAGSADZIAM1D0DCGAEcENUX6FmIoAL4Yp3YwQwH/J1/5CnfWScDJABMkAGyAAZIANkgAyQATJABhDACOB47V11NUcAV8c2qJIRwHwIciFEBsgAGSADZIAMkAEyQAbIABkgA2Sg7hlAACOAgxJygVQGARxIR1RdDQQwH/J1/5CnfWScDJABMkAGyAAZIANkgAyQATJABhDACOCqHVuM5SOAY+w1jzojgPkQ5EKIDJABMkAGyAAZIANkgAyQATJABshA3TOAAEYAe2iz2u+CAK59F7caiADmQ77uH/K0j4yTATJABsgAGSADZIAMkAEyQAbIAAIYAdwQ1VeomQjgQrji3RgBzIcgF0JkgAyQATJABsgAGSADZIAMkAEyQAbqngEEMAI4XntXXc0RwNWxDapkBDAf8nX/kKd9ZJwMkAEyQAbIABkgA2SADJABMkAGEMAI4KCEXCCVQQAH0hFVVwMBzIcgF0JkgAyQATJABsgAGSADZIAMkAEyQAbqngEEMAK4ascWY/kI4Bh7zaPOCGA+5Ov+IU/7yDgZIANkgAyQATJABsgAGSADZIAMIIARwB7arPa7IIBr38WtBiKA+RDkQogMkAEyQAbIABkgA2SADJABMkAGyEDdM4AARgA3RPUVaiYCuBCueDdGAPMhX/cPedpHxskAGSADZIAMkAEyQAbIABkgA2QAAYwAjtfeVVdzBHB1bIMqGQHMhyAXQmSADJABMkAGyAAZIANkgAyQATJABuqeAQQwAjgoIRdIZRDAgXRE1dVAAPMhX/cPedpHxskAGSADZIAMkAEyQAbIABkgA2QAAYwArtqxxVg+AjjGXvOoMwKYD0EuhMgAGSADZIAMkAEyQAbIABkgA2SADNQ9AwhgBLCHNqv9Lgjgirr4ypUr5tTp0+bkyVPm8uXLhY9y7tz5ZF+ty3gggPmQr/uHPO0j42SADJABMkAGyAAZIANkgAyQATKAAEYAl+HR6lZGcAL46tWr5syZs4n81Fq/Zz3cbS9cuJi1WfK8FaqSspKzVT8kfmfMnGvGTZhi1q5dX/hwzy59OdlX6zIeCGA+BLkQIgNkgAyQATJABsgAGSADZIAMkAEyUPcMIIARwGV4tLqVEaQAXvr8K4n8nD1noTl95kwm88OHj5o7p89Jtn1l+RuZ2/3+++/mqcVLk+0effwZrxG5mYVnvIAA5kO17h+qtI+MkwEyQAbIABkgA2SADJABMkAGyEBoGUAAI4AzVF2jnw5OAKs3Vn77QyJrb5880+zevTezg35cu96Mn3hHsu28+Q+brOkSTpw4ae76YzTue+9/nFlemS8ggPkQDO1DkPqQSTJABsgAGSADZIAMkAEyQAbIABmoewYQwAjgMv1eXcoKUgDvP3DQ3HHnPYnY/ezzr7uy1vQPdqSwplnoJYs3btpiJt5yp7nl1ulm67YdXcsr+0kEMB+qdf9QpX1knAyQATJABsgAGSADZIAMkAEyQAZCywACGAFctuOrQ3lBCmDdNE1TNUjsauoGTeGQfmhqCE0RcfOkaYn81bZZslijfvV6vykl0scYze8IYD4EQ/sQpD5kkgyQATJABsgAGSADZIAMkAEyQAbqngEEMAJ4ND6vrvsGKYAF20pbTd2gKRzSD43k1YheSd3FTy9LBK9GBKdvGufK5G6v23K1naStFp8bxUlSnzp12tib0eUVwLohnY6n7d2b3nETOD6U6/6hTPvIOBkgA2SADJABMkAGyAAZIANkgAyUnQEEMALYuj7W1wgEK4Ct4NXUDZrCIf2wglhSd+XK7zNH+Lo3itPcwunHrt17zYKFj7bnEtZIYS23Tb7LvP7Gu+bixYvpXZJ5iTXlhBbt/803q8yk26Yn+z246IlEAvcTwBLGH3z4aXIce0ytZ9493+zatccggPkQLPtDkPLIFBkgA2SADJABMkAGyAAZIANkgAzUPQMIYATwCJHHEyZYAWyneJAUfePNf3V0lTuqV1LXzhncbY5fO/+v5hTWdvahkcKffPplMoWEjiGB+8STz5rnly03d89e0BbCix5+ypw/f8Hulqx1YzorgFd88ImZdNuMRP6qnDwCWPJ32YuvtveZNuPeRPgueujJpD5T75xt7pl9f/K6RHAZjwlTnjJ1P8nTPi5kyAAZIANkgAyQATJABsgAGSADZIAMNDsDCGAEcBkerW5lBCuABfqV5W8kElQS9uLFS232dlTvndPnGP186dJl88ijTyfbamSw+5A8dsWsfW3L1u2JuB0/8Q7z6j/eSsqwr2ktcTxl6t3Jvi++9FrHPMRWAEs4S94uf/XN9kjh3377LZmGotcIYM1VrONq/uKvvv6uY9oK7bfwwceT46reCOBmf3Bx4UL/kwEyQAbIABkgA2SADJABMkAGyAAZyJ8BBDAC2PV7/NwiELQA/nHt+kSUWtFrO+27VauT53WjOI0G1sNOCeE+J2kseSyR6o4i1j5PPPlc8vxjTywZIX/tcTS1hERtevSwFcDdxLLdN0sAazTxgvsfSY795lv/3SF/7b6HDh1JxDICOP8Jng9DWJEBMkAGyAAZIANkgAyQATJABsgAGSADCGAEsPVrrK8RCFoA25G+krCSwXpo6gbN+ys56o72tXMGu7LY7p+eGsI+75Z7Dcm1n3TzOd2ETsdy5w92BbBG83Z7ZAlgW09NIaFyuj00RcRTi5cmx2UEMB9eXMCQATJABsgAGSADZIAMkAEyQAbIABkgA/kygABGAHdzbU1/LmgB7M71q+kg9LBzA6elrn3elbp2BPHsOQuT/WxnWwmbHtlrX7frCxcuJnP6pmWzFcDpOtj9tM4SwBLJKm/m3fPMqVOn3V06fuYmcPlO7HwAwokMkAEyQAbIABkgA2SADJABMkAGyAAZsBlAACOAOwQbvyQEghbAqqFu1CZhOm/+w+bcufPGytu01HVHBltZbOcQ1ohhvW4fa9euT8qcMXNuImrt8+l1PwHcaxRvlgC2U1XYm8Wlj2l/RwDz4WU/vFiTBTJABsgAGSADZIAMkAEyQAbIABkgA/kygABGAFu3xvoageAFsB1ta2WrFahpqasm2dG1ksXHjh1vj951p2/QduvWb+w6t/A1LK2fqhTAVminj2l/RwDnO7HzAVhTTvfvMJNYYEAGyIBPBhbW9LxIuwyf+WSbDJABMkAGyAAZyJMBBDAC2Lo11tcIBC+ANepXslSjgD/86DOjm7zp57TUVZP2HziY3LBNUzv8sHpt+2c97z7sdhNvudOs37DZfanjZzsHsDuthDZIS+mOnf74JWsEsB197M5VnN7fFc/MAcwHXJ4PuOi38ZE87IMcJANkIE8GEKeIUzJABsgAGSADZIAMNCoDCGAEcNqz8bsxwQtgdZKdymHBwkeNxGnW3L2uOH1myQuJKO421cKlS5fNI48+nby++OllRjdd6/ZYufL7ZKTw9LvuM0eOHG1vMhoBbOWzJLamt+j22LJ1u5l024ykfghgBHD0cjd9sZVH2LANYo8MkIEqM5A+L/F7o74U1u5zlfySXzJABsgAGSADHRlAACOAu7m2pj8XhQC2N3ObdNt0o1G73aSu7cg33vxXIk4lWLXo924PlXnzpGmJ4H3r7feMpLD72L59p5ky9e7k9fdXfNwxh/BoBLBks5XTKn/jpi3uYZNRzLpBnK0/AhgBXJsvqiXLnFvu325YYEAGmpWB0qeG4ctSx5el2nze0K/0KxkgA2SADJCBRmcAAYwA7hBt/JIQiEIA26kYrBTNkrpqkYSqJLG21TotWG2/66ZwErua3kHbSsYufmaZWfbiq+a+uYvaz+v39Ajh0QhgHf/o0WNm1j0LkuPq+DqejiOxPeHmqWbRw0+Zxx5fkryOAEYAR/+F3FP8IvaaJfbob/q7jAx4C2K+JDb6S2L0n7Pkl/ySATJABsgAGejIAAIYAWzdH+trBKIQwBKwTy1e2lfqqlmuLL5r5tzk92vN7fxJElhzBc+YOTcp2wpmradOm51M0ZCWvyphtAJYZRw8eMjMW9Ca29geV/JXo4PPnj1nJH71PAIYARztF9MC4rcM8UMZCEQyQAa6ZaCQFObLU8eXp2g/f+hH+pEMkAEyQAbIQKMzgABGAHfaP35LPOSvx8yvh44ny6FDJ0yyHD5pDh0+aQ4fOZUsR46eNv9WZ1wSwWfOnDX79h0wO3fuMadOnzZXrlwZSJN1kzsdU8fWHMZVPSZMearRHwB8iR2gSM8hfrtJmsznFmwzt7DAgAyQgV4ZKDAlTC4hzJdGrhnIABkgA2SADJABMhBtBhDACOCq3FrM5UYxAjhmwKHUHQE8QAHa5AuFPvI3U/JK3vSSO6nXbl6wzbDAgAw0MwNFzhW9zjl9RXCTz+W0PdovvPzBm+s9MkAGyAAZIAM7DQIYARyKiwupHgjgkHqjwroggLkQGMiFQIYAzpQwKbHrip1S5d78reZmFhiQgTAzUOIfdNxzyIifM0YJZ4pgJCgSlAyQATJABsgAGSADUWYAAYwArlCvRVs0AjjaritWcQQwArhSAVxE/HaRvpmyF2EXprCjX+iXEDOQIZJHiGCdg7rIYEQwn5OVfk4iEKIUCGSC8wIZIANkIM4MIIARwMWMWTO2RgA3o58NAjjOD67gLzgyxK9EygjBkhK/XaVvF6k0cf4WwwIDMkAGemWg6wj/LkJ4hAxOieBMCaxzHQIPBmSADJABMkAGyAAZiCIDCGAEcENUX6FmIoAL4Yp3YwQwArgSeZEhgDvkby/xmxK+mYJn3s9mYsFlwrzNhgUGZCCuDBR9nyfbZ/yRaIQUdoRwLxGcKYH5whfFF75KPuvoe/qeDJABMkAGyEBUGUAAI4DjtXfV1RwBXB3boEpGACOAS/9SXFD+doz4dcTvCOmbEr19Bd7cTWYCCwzIQL0z0OcPOiPEcUoKd8jgLBHsjAZGAvOZWfpnJuIgKnFA/3MOIANkgAzEnQEEMAI4KCEXSGUQwIF0RNXVQADH/QEW5AVIFwGcNfK3LX+zxK8jfTuEb4bUG3/fRsMCAzLQzAxk/sHHkcQdQtiRwd1EcMdo4H4SGImHxCMDZIAMkAEyQAbIQPAZQAAjgKt2bDGWjwCOsdc86owARgCXJpG7iN8Rc/460z6k5W97xG836esI35Fyb4MZf1/O5d4NZjwLDMhAnBnI+z5PtuuU4B1y+A8h3E0Gt0XwH6OBC0lgnQP54gcDMkAGyAAZIANkgAwEmwEEMALYQ5vVfhcEcO27uNVABDACuDRh0UUA5x3568rfbiN9r0lfR/RmSLxx9643LDAgA83KQOYfdjqkcUsKt2VwemTwHyOCRyWB+cIX7Be+0j7r6GP6mAyQATJABshAtBlAACOAG6L6CjUTAVwIV7wbI4ARwKV8KfaUv6741Wi8RP7+Mdp3hPR1hG+H3Juzzozrsdw05yfDAgMyUK8M9HrPJ685fwjqkMNtITxSBrdHBLsi2GckMF8Ko/1SWMrnIf1P/5MBMkAGyAAZCDYDCGAEcLz2rrqaI4CrYxtUyQhgBPCov/DmlL+9pnyw4nfi3E3m5vmbzcR5G1vL3A1mwtz115b71pkJ960z4+/9qfAybs5awwIDMhBvBnze9zpfJIt7HtF5JZkvXP+jwBHB7tQQrgTWHOVpEcycwMF+sRv1Zxpf2ulbMkAGyAAZIAO1zQACGAEclJALpDII4EA6oupqIIARwKP+spwSwHmmfXBH/kr+Tpy3ySx4bqf5+Nuj5pdfL5hLl6+Yq1WHn/IhAIFGEbhy5ao5dvKS+WHjSfPUP3ab2xZucuYP32jcqSGS0cCuBE4LYM1n3ksC88Wxtl8cR/2ZSTbIBhkgA2SADJCBoWUAAYwAbtQXoJyNRQDnBBX7ZghgBPCovsym5G/WTd/s6DnNrTlC/s7dZP77y8Pm7PnfY387UX8IQCAiAmt/PmVmPPpz64Z4zo3jEhGc/GHq5/b5KpkXOC2BewlgnRv5cgcDMkAGyAAZIANkgAwElQEEMAI4oq8rA6sqAnhgqId7IAQwAnhUkiIlgN0RcbdohNwfwiQRwBny9+sfj5uLl64M943A0SEAgUYS2PnLWTPr8S2OBG5NC1GKBOYLX1Bf+Eb1WUdf0pdkgAyQATJABmqRAQQwAriRX3r6NBoB3AdQXV5GACOAvb8Up+Rvx+jfP+RvWwBrDk0rgP+42Zvm3mTkb13OJLQDAvES0Ejg6Y9sbklg3Wzyj9HAaQmcjAL+Yz5g+weuZP3HSGCdA0csfFmsxZdF789J+p/+JwNkgAyQATIQVAYQwAjgeL+1VFdzBHB1bIMqGQGMAPb+YpuSHblG//4hfyVW5i3Zbg4fvxTU+4HKQAACzSSw7J295pb56824e9c7o4E3muQGlc50EIWnguBLX1Bf+rw/7+hH+pEMkAEyQAbIQC0ygABGADfz207vViOAe/OpzasIYASw1xfilPztNvq317y/EsCM/q3NaYSGQCB6Aj9uPmmmPbzJjJuzrlMAz92USOC+N4VjFHAtvhR6fR4iBOh7MkAGyAAZIAPRZAABjACO/otLBQ1AAFcANcQiEcAIYK8vvD4C2Bn9q+kf1m87bX77/WqIbwvqBAEINIzAsZOXzKzHN5ub5vw0chRwSgL3GgU8YgoInSv5UggDMkAGyAAZIANkgAwEkQEEMAK4YV9zcjUXAZwLU/wbIYARwF5yIiWA09M/jBj9mwiYjWoAACAASURBVJK/mmNz78HzBv0b/zmEFkCgDgSuXLlq5jz1s7lp9tpkFPCIqSDmbjLJKOB5P5uJ87ckc5rb85w7D7DOhSMkMF/4gvjC5/VZR9/Rd2SADJABMkAGapUBBDACuA7fXcpuAwK4bKKBlocARgB7fSnOEsB/3PzNipH0jd809YNG/46/d4PZf/hCoO8KqgUBCDSRwJynNpsbZ//YGgU8Z11rJHCvG8It2GZ0rmvfEC5rGgi+ONbqi6PXZyYZIANkgAyQATJABoLIAAIYAdzE7zn92owA7keoJq8jgBHAXl9m8wjg+VuTkXIaLaeRc235K6GCAK7JGYRmQKA+BGY/ucnceM+aZBRw16kgnJvBuaOAEcB8jnp9jiICghAB9B3vXzJABshAszKAAEYA1+fbS3ktQQCXxzLokhDAzfrAK+UCJ0v+avTbHyPikhHAVgCnp3+4d0Myso4RwEGfGqgcBBpHYPYTG83Yu1e3RgG7U0HkHQX8xwhgpoHgc7WUz1oEMYKYDJABMkAGyEDpGUAAI4Ab9yUnR4MRwDkg1WETBDBfVAt/Uc0SwH2mf0imfvhj9O+4OeuYAqIOJxDaAIEaEbjniQ0tAZwxClj/i2GCMwq40M3g+AJX+he4wp9d9AF9QAbIABkgA2Sg8RlAACOAa/T1pbSmIIBLQxl2QQhgBHDhL9F5BLAd/Tt/SyJM3OkfdHMlBHDY5wVqB4EmErACuD0KeM5PyblKU9boxpX6I5bOZcnN4DS1jXMzOKaB4LO08GcpEqLxEoLMcN4gA2SADAw+AwhgBHATv+f0azMCuB+hmryOAB78h070H/SOANZ/dW4v7ghgK4A7pn9ozf0r+av5NfcfOl+TdxHNgAAE6kDgnsfXmxtm/dBjFHBLAHcbBZwWwCOmgUD2IfvIABkgA2SADJABMjD0DCCAEcB1+N5SdhsQwGUTDbQ8BDACuLCQ9hDA6ekfbpq9FgEc6DmBakGgqQRaAvj7tgC+cfaPyR+r9L8W7CjgrGkgEMB8lhb+LEUCDF0C0Ge8b8kAGSADzcsAAhgB3NTvOr3ajQDuRadGr0kAT75/lXn01QMsMMiVgUeW7zfXln3mkeWt5eFXfjEPv7w3WR56eY9Z9NIes+jF3ebBF3aaB5btMA8s227uX7rV3L90i1nw7M/m8PGLNXon0RQIQCB2Ak+/9rO5b/E6M/fp9WbeMxvN/Gc3mwXP/ZycsxY+vy05h+lc9uCLu5Jzm85xOtfZ857OgfZ82FpfO1fG9Bn7wIt7jZaY6kxdm3sNR16b2/cxvu/JK3klt8PPAAIYARz7d5Yq6o8AroJqgGXeettdZtacReb8xXqfCGhfef177sJvxi5nz182djlz7pI5ffaiOXXmQrKcPH3eHD951hw7ccYcPX7aHD560hw6csL8euiYOXDwiLn8228BviOoEgQg0FQCv+z/1ezeu9/s3XfQ7DtwyOw/cNgc/PWo+fXw8eTcdeTYqeRcpnPaiVPnjM5x9nync5/OgfZ8qLU9T2od02fQjn2njJaY6kxdy/uMj40leW1u38eWVdWXvJJXcksGYsxATHXeeeC02X3gVFO/zni3GwHsjS6uHRHAfAgVPaG7UsPKDomPtACWILECWOJEAlgiBQEc1zmC2kKgKQQkgHft2Wf2/HLA6Oe2AD50LBHAOofpj1kSwDq3dRPArgR2z5VFz7PD3B5BwXXBMPNX9NjklbwWzcwwtyev5HWY+fM9Nrklt77ZGcZ+CGC/b24IYD9u0e2FAOaEXvTE7EqNLAEsMZIlgDWijhHA0Z0qqDAEak9AI3/TAljnKv3RSv97IS2A3VHAdgQwApjP1KKfqWw/uswgJkbHj/wNlh95HSxv8l0Ob3JbDkfyOBiOCGC/r2wIYD9u0e2FAB7MiaguJ3xX/urnIgI4mf7h8PHkv1RrZB1TQER3uqDCEKg1ASuA3WkgrADW/14YjQDW+TKWzwG+6HFdEEtWVU/ySl7JKxmIKQMx1pXzLO+xmHKLAPb7uoYA9uMW3V4IYE7oRU7oPgJY/2VaU0AggKM7PVBhCDSKgATwzt2/dMwDnBbAOpfZKSCKjABGAPNZW+Szlm3z5wUxkZ8VuRo+K/I6/D7gfVC8D8htcWbkbHjMEMB+X98QwH7cotsLATy8k1OMHwyjFsCHjjECOLqzBBWGQDMIZAlgeyM4jQBGAPOZGeNnd53rjJjgPRlTvskreY0pr7au5Jbc2izEsEYA+31vQwD7cYtuLwQwJ/QiJ/JeAlhzYGo5deZCcnMkOwdwxwhgBHB05wgqDIGmEBitALbzANupcdLnyyLn2mFuyxc9rguGmb+ixyav5LVoZoa5PXklr8PMn++xyS259c3OMPZDAPt9c0MA+3GLbi8EMCf0IidmV2hYyaG1bnzUTQDrv0pLAGvkXDIFxKFjyQ3g9h04xBzAozxbXL161Wi5cuVKstbPPo+yyvE5NvtAICQCe345YHbs2jviRnB2BLDOYRoBrHPa8ZNnkxtd6oaX+qOXPf+5N4HTudE9ZxY51w5zW77ocV0wzPwVPTZ5Ja9FMzPM7ckreR1m/nyPTW7JrW92hrEfAtjv2xUC2I9bdHshgDmhFzkxuzIjVAFshaa77vXGdLdzf87ax93G/Tlr+6qeP3nypFm9erVZuXKlOXDggPntt9+8DlVWOV4HZycIBEQAAdz6POSLHtcFRa4Lhr0teSWvw85gkeOTV/JaJC+hbEtuyW0oWcxTDwSw35crBLAft+j2QgBzQs9zIrXbFBHAGiE3jBHA586dM8eOHTNHjx4158+fT0bI9npjagTt6dOnk+2PHz9uLl++nIyozdrH3V7HuXjxYs/ts8oZ7fMbN240kydPNtddd5354IMPkrb6lFlWOT7HZh8IhESgiADWuS19E7j0FBCMAObz1X52sq4uC4iJ6tiS2/LZktfymZLT6pmS2+oZk+PyGCOA/b5dIYD9uEW3FwK4vJNNE07cMQjg7777ztx6662JGH3mmWfMiRMnegpajYC9//77zZgxY8zNN99s1q9fn0jgrDezZPHChQuT7adMmWJ27Nhhfv/996zNK3u+LHFbVjmVNZSCITAgAgjg1uchX/S4Lojpeoa8klfySgZiykCMdeU8y3ssptwigP2+OCGA/bhFtxcCmBN6kRP6aATwr4ePm18HMAfwwYMHzezZs83f//53M2vWLLN3796eo4B//vlnM3Xq1EQYazTtihUrjEYRZz127txppk+fnmy/aNGiZOSwpoIY9KMscVtWOYNuP8eDQNkEegrgQ8eSecztHMCMAOazs8hnJ9tWlxfERHVsyW35bMlr+UzJafVMyW31jMlxeYwRwH7fkBDAftyi2wsBXN7Jpgkn7hgEsKZk0MjfG2+80UyYMMGsWbPGXLp0qet7U+L27bffTraT/NXy+OOPG00F0U3q6rlPP/3U3HLLLcm277zzjjl79mzXsqt+sixxW1Y5VbeX8iFQNQEEcOvzkC96XBfEdD1DXskreSUDMWUgxrpynuU9FlNuEcB+35gQwH7cotsLAcwJvcgJvZ8APnXmgtFy8vR5k54DeFAjgPUm1CheTecgoSvBK0nbTehqpO9jjz1mbrjhBnP99dcn2/caNaypHl566SUzbty4RBr/+OOPPaeLqPKEUJa4LaucKttK2RAYBIHRCGCd95gDmM/TIp+nbFtOXhAT5XAkj4PhSF4Hw5k8l8uZ3JbLk3xWyxMB7PetCQHsxy2YvbZu22HGTZjSd0EAV3sCqtsJ3kcA679MHz560gxSAG/bts3ceeedidB98MEHzZEjR7oK4F9++SWZJkICWOJ37NixPUcNu/MF33333Ub766Zw6Ydks130uhb7ezcRbfd3t+n3cxFx65aVrkuRcmw9WUOgjgTyCGCdy44eP53c4NK9CRwCmM/Sun3ex9IexATvvViyqnqSV/IaU15tXcktubVZiGGNAPb7loYA9uMWzF55BfCEm6caLa4g4udr8g4WnSyszNRao2Ht8ttvvyUjYTXVgpYLFy6Y8+fPJ3PpnjlzxujGaZKnmlrh2LFjiZCt8sZpp06d6rhR2/bt20fcqE19++233yY3jNNo4ddee61987isUcNbt25tzxe8ZMmS5AZz7pve5kU81Na1a9ealStXJoumojh06FDCyW7n7quftZ9uWnf06FEjbpbz4cOHk6ksNF+xuGr/POJW26kM9cmuXbvMqlWrkrr89NNPSX+oD/KUk64nv0OgjgQ0f/i+ffvMgQMHzK+//mr0vtN7UecsvS91XtG5TP+jQP97QO9FTTljz3uXL19O3sP2vKi1e8607/vQ17sPnDRaQq8n9ev8fG4qD/JKDmLKPnklrzHl1daV3JJbm4UY1q28nqrjV5VK24QArhRvOIXbUcLh1IiahEzAPem7YkOiw0pgSRBJESuBJUskMyVPJFEkRiVVtE9VD9Xzn//8pxk/frwZM2aM+fLLL5P6uMfT8e10DgsWLDCbN282c+fOTaaC6DZqWGV+8sknyfy/mi7is88+6yhTr6vMLVu2mPnz5yfHtfMKu+sZM2aYdevWJdJI+7gPOyJZN7B74YUXEhEl0az5jFXGpEmTkvJ1nH7iVmWrT7766qtEWqtMtx4a9fzWW2+Z7777zkyePDl57YMPPkikllsnfoZAUwhI+u7fv99IBOuPNfqfA5K/OmfpD1iSvzqXWfmrc5zkr855rvx1z416H9olFo67D5wyWnhAIAYC5DWGXqKOlgB5tSRYx0SA3MbUW9SVvPplAAHsxy26vRDA0XXZUCtsRYbWruSQkAxJAAuS5ue9/fbbE7Gp0b2SN6q3fbjTOUgWS04///zz5qabbjJTpkwx6VHDEjxLly5NXr/11lsTEas224d4fP755+1RxBKuugmd5KrKk4y28wxrDmGNDJZAcuvkCmAdSzezUxnaT4vao1HIeQSw6vvGG28k+0v8an8JZNVH9ZcAlhxfuHBhMqextkEA295k3UQCCOBWr3Ph3MT0x9tm8hpv3zWx5uS1ib0ef5vJbfx92KQWkFe/3kYA+3GLbi8EcHRdNtQKxySANYLv3nvvTcSnRuRK7riyVSNoJWYlfDU1gkbySeDecsstXUcNa9SyHSGsEcMq35antUb13nHHHYlwlmDVyFs7XYM6TUJWo4btaFvJXNXBlciuAJ4zZ04ibDUCWKMSVT/VQWVKNvcaAaz6rF69ui3AVS8JcZVhH/pv7hrpLBFsRwYjgC0d1k0koHOEOwUEI4CbmALaHBsBvujF1mPNri95bXb/x9p6chtrzzWz3uTVr98RwH7cotsLARxdlw21whKLdgl9BLCmodAIWk2fICGr+XOtbFUbNM+vRtdOnz49mR9X7dE8ufpdQlRTMGjaCm2rhzv/r0YM67+C24dGFz/00EOJTJVA1hy7Er7ph8r64osv2qOEn3322WTksT2GK4BVhyeffDL57+f2dbe8XgJY9V60aFEisiWaN23a1G67W4aEsuS4HZmMAHbp8HPTCCCAWz3OhXPTkh93e8lr3P3XtNqT16b1eD3aS27r0Y9NaQV59etpBLAft+j2QgBH12VDrbBEpF1CF8AC9dFHHxnd4E2C89NPP23Pb6s5PB977LFE2D7xxBOJZNX2mq/44YcfTp7X6GGNklU71eb333/fTJw4sWPEsO0MO5pY0vbFF19MxLF9Lb2WLJac1cjbadOmJdJZUzro4Qpg1XvDhg1dxa227SWA3fo899xzyfyl6XrY31esWJEwUt0RwJYK6yYSQAC3ep0L5yamP942k9d4+66JNSevTez1+NtMbuPvwya1gLz69TYC2I9bdHshgKPrsqFW2MpfrWMQwO6IXo0G1jy/qrsVrRLDrvTUa++8804yMlgCdv369clIXo0mfvrpp5PRxO6IYXWGu487nURWR2n7V199NZl3VyOQ3akZbL00f7AV0Nq+2yNLALv10ehn3eRN9c96ZJWTtT3PQ6CuBBDArZ7lwrmuCa9nu8hrPfu1rq0ir3Xt2Xq3i9zWu3/r1jry6tejCGA/btHthQCOrsuGWmHJRbvEIIDdEb2zZs0ye/fuTcT1t99+m0zD0G2UraZL0NzA7qhhd/5fd8SwOkOjd1966aVE6Ooma1u2bEme69VRmgtYU0VIGLuC1hXAmp9Xx816ZIlb9cvy5ctz1yernKzj8jwE6koAAdzqWS6c65rweraLvNazX+vaKvJa156td7vIbb37t26tI69+PYoA9uMW3V4I4Oi6bKgVtvJX6xgEsOqp+XrHjx+fjOpds2aNuXDhQjJNw7hx48x9992XTPOg7ezj2LFjZt68eYkAtqOGJUklhTUy98MPP2xPJaF93NHBRQWwpl34+OOP2+W5ArjfVBJZ4rZofbLKsTxYQ6ApBBDArZ7mwrkpia9HO8lrPfqxKa0gr03p6Xq1k9zWqz/r3hry6tfDCGA/btHthQCOrsuGWuHYBLBgaYoF3QhNslU3ftuzZ08ieMeMGdN1vl7dvO35559PRufaUcNvvfVWIpB1MzmN8LU3k1P57vZWALuvpztMDN0RwKtWrTKXLl1KNitDAKusJUuWJNNV5KkPAjjdQ/zeVAII4FbPc+Hc1HdAnO0mr3H2W1NrTV6b2vNxt5vcxt1/Tas9efXrcQSwH7fo9kIAR9dlQ61wjALYHdH7+OOPm6+++ioZzaubsOlnjQhOPz7//PNkigbN0avpIrSf5tNdsGCBOXToUDINhrvPG2+8kYwy1jbavtecu+4UDekpKMoQwKrXa6+9ltRHU0x8//33bcHs1lk/qz9XrlyZTIfBTeDSdPi9aQQQwK0e58K5acmPu73kNe7+a1rtyWvTerwe7SW39ejHprSCvPr1NALYj1t0eyGAo+uyoVY4RgHsjtCdOXOmeeyxxxI5qikdduzY0XW+Xvfmcc8995yZNm1aMiWEppM4c+bMiD5Yu3atmTx5cjLK+Nlnn23fbC69ofidOnXKaH5fjUDWFBQHDx5sC+WyBPCXX35pNPpXUlfzAeuYOnb6odHCap/ENQI4TYffm0YAAdzqcS6cm5b8uNtLXuPuv6bVnrw2rcfr0V5yW49+bEoryKtfTyOA/bhFtxcCOLouG2qFYxTAAmZH9GpErKaDkHxdtGhRcpO1bmLUvXncHXfcYcaOHZtMCeFO1+B2xOnTp81DDz1kNKpYcwt/8803ychiy0vb6mfdME5z/uoGcJpP+F//+pfRseyjLAEsqTxnzpzkGGqvpnmQCLf10VojkTU9hkS45C8C2PYC66YSQAC3ep4L56a+A+JsN3mNs9+aWmvy2tSej7vd5Dbu/mta7cmrX48jgP24RbcXAji6LhtqhdMC0d4ITmJT895KMmrRFAiaWuH8+fOJ4NSoWY1CPXHihDl+/HgiXrXPoB7uiF4rO995550O+erWRe20N4+z20+fPt2oHLW522PDhg3mzjvvTESqJLDKV1vFRW2VJH799dfNxIkTk20WLlxoJJx0LPsoSwDreHbeYtVfo5M1FcS5c+eSuqhvJKIlhzUNxfXXX48Atp3AurEEEMCtrufCubFvgSgbTl6j7LbGVpq8Nrbro244uY26+xpXefLq1+UIYD9u0e2FAI6uy4Za4VgFsDuiV0JUc/tq9KtkddbDvXmc9nniiScSoZu1vdho6gXJVo3uteJYwlfHs89prakf9u7dO0ImlyWAVceTJ0+25y62ddEIZY0+1lr10CjhFStWmNtuuw0BnNWxPN8YAgjgVldz4dyYyNeioeS1Ft3YmEaQ18Z0da0aSm5r1Z21bwx59etiBLAft+j2um7Cg+Z/TVhqXnx3DwsM+mbghXd2m2vLLvPCO61l2ds7zfNv7TDPv9lanntjm3nu9a3m2de3mCWvbTbPvLbJPP3qRrN4+Xrz1CvrzJMvrzXHToy8+VqVb6B33303kZ8a7XrPPfcYydas0byqh272Nnfu3GT6B00Z8eGHHyYjmnvVURJ4586d5pFHHkmmgtCxJFq11iL5qlHAujFdt2Pv27fPzJ49OxG0L730UjJqOut4mzZtMlOnTk3KzaqbRvzqeJoP2K2LBPBTTz2VzD+s6SH6lZNVB56HQJ0IIIBbvcmFc51SXf+2kNf693GdWkhe69SbzWkLuW1OX9ehpeTVrxcRwH7cottLAvg/JnzDAoOcGfja/MeE1vK38V+ZjmXcl+av475oLTd9bv5y42fmLzd+av597MfJ8ucbPjR/HvOB+dOYFeZP179ndu07Hd37pUiFNQ3Gnj17zOrVq42mh5D01XQQ7pQPRcobzbZuXbZs2ZJMfTGMeoymDewLgaoJIIBbhLlwrjpplF8mAfJaJk3KqpoAea2aMOVXQYDcVkGVMqsiQF79yCKA/bhFtxcCGPld7A8ACODo3uRUGAIQyEUAAdzCxIVzrriwUSAEyGsgHUE1chEgr7kwsVFgBMhtYB1CdXoSIK898WS+iADORFOvFxDACGAEcL3e07QGAhDwI4AAbnHjwtkvP+w1HALkdTjcOaofAfLqx429hkuA3A6XP0cvRoC8FuNlt0YAWxI1XyOAEcAI4Jq/yWkeBCCQiwACuIWJC+dccWGjQAiQ10A6gmrkIkBec2Fio8AIkNvAOoTq9CRAXnviyXwRAZyJpl4vIIARwAjger2naQ0EIOBHAAHc4saFs19+2Gs4BMjrcLhzVD8C5NWPG3sNlwC5HS5/jl6MAHktxstujQC2JGq+RgAjgBHANX+T0zwIQCAXAQRwCxMXzrniwkaBECCvgXQE1chFgLzmwsRGgREgt4F1CNXpSYC89sST+SICOBNNvV5AACOAEcD1ek/TGghAwI8AArjFjQtnv/yw13AIkNfhcOeofgTIqx839houAXI7XP4cvRgB8lqMl90aAWxJ1HyNAEYAI4Br/ianeRCAQC4CCOAWJi6cc8WFjQIhQF4D6QiqkYsAec2FiY0CI0BuA+sQqtOTAHntiSfzRQRwJpp6vYAARgAjgOv1nqY1EICAHwEEcIsbF85++WGv4RAgr8PhzlH9CJBXP27sNVwC5Ha4/Dl6MQLktRgvuzUC2JKo+RoBjABGANf8TU7zIACBXAQQwC1MXDjnigsbBUKAvAbSEVQjFwHymgsTGwVGgNwG1iFUpycB8toTT+aLCOBMNPV6AQGMAEYA1+s9TWsgAAE/AgjgFjcunP3yw17DIUBeh8Odo/oRIK9+3NhruATI7XD5c/RiBMhrMV52awSwJVHzNQIYAYwArvmbnOZBAAK5CCCAW5i4cM4VFzYKhAB5DaQjqEYuAuQ1FyY2CowAuQ2sQ6hOTwLktSeezBcRwJlo6vUCAhgBjACu13ua1kAAAn4EEMAtblw4++WHvYZDgLwOhztH9SNAXv24sddwCZDb4fLn6MUIkNdivOzWCGBLouZrBDACGAFc8zc5zYMABHIRQAC3MHHhnCsubBQIAfIaSEdQjVwEyGsuTGwUGAFyG1iHUJ2eBMhrTzyZLyKAM9HU6wUEMAIYAVyv9zStgQAE/AgggFvcuHD2yw97DYcAeR0Od47qR4C8+nFjr+ESILfD5c/RixEgr8V42a0RwJZEzdcIYAQwArjmb3KaBwEI5CKAAG5h4sI5V1zYKBAC5DWQjqAauQiQ11yY2CgwAuQ2sA6hOj0JkNeeeDJfRABnoqnXCwhgBDACuF7vaVoDAQj4EUAAt7hx4eyXH/YaDgHyOhzuHNWPAHn148ZewyVAbofLn6MXI0Bei/GyWyOALYmarxHACGAEcM3f5DQPAhDIRQAB3MLEhXOuuLBRIATIayAdQTVyESCvuTCxUWAEyG1gHUJ1ehIgrz3xZL6IAM5EU68XEMAIYARwvd7TtAYCEPAjgABucePC2S8/7DUcAuR1ONw5qh8B8urHjb2GS4DcDpc/Ry9GgLwW42W3RgBbEjVfI4ARwAjgmr/JaR4EIJCLAAK4hYkL51xxYaNACJDXQDqCauQiQF5zYWKjwAiQ28A6hOr0JEBee+LJfLFRAvjChYvm5MlT5syZs+bq1auZUOr4AgIYAYwAruM7mzZBAAJFCSCAW8S4cC6aHLYfJgHyOkz6HLsoAfJalBjbh0CA3IbQC9QhLwHympdU53bRC2CJ3FOnT5sNG382P6xemyxrflxnfj102Pz+++8drX3v/Y/NuAlTzIOLnjCSwXkfOsaHH31mJt023Sx/9c0R5eYtZ5jbIYARwAjgYb4DOTYEIBAKAQRwqye4cA4lkdQjDwHymocS24RCgLyG0hPUowgBcluEFtsOmwB59euBaAXwlStXzLffrTbTZtybSF2J3fRy86RpiRi2aHwFsGSxpLHKnzFzbjKK2JYZyxoBjABGAMfybqWeEIBAlQQQwC26XDhXmTLKLpsAeS2bKOVVSYC8VkmXsqsiQG6rIku5VRAgr35UoxTAmsZh0cNPtYXvhJunJmJ28TPLjJa7Zs0zkr8StmvXrm+T8RXAGgH86WdfmZl3zzMqIz2yuH2AgH9AACOAEcABv0GpGgQgMDACCOAWai6cBxY5DlQCAfJaAkSKGBgB8jow1ByoRALktkSYFFU5AfLqhzg6AXz06DEz654FidyV5H37nffN+QsXRrReklZTQezevbf9mq8AbhcQ8Q8IYAQwAjjiNzBVhwAESiOAAG6h5MK5tEhR0AAIkNcBQOYQpREgr6WhpKABEiC3A4TNoUZNgLz6IYxKAF+6dNk89sSSRP5OmXq32bhpS6FWI4CRoMUkaJN5fW3+Y0Jr+dv4r0zHMu5L89dxX7SWmz43f7nxM/OXGz81/z7242T58w0fmj+P+cD8acwK86fr3zO79p0u9D6NdWP9TwG7aIoau9jn8rbLbm/319o+l7cMu532G+3+oy3D1iXEteXqsnZ56fVuD9/98pZly886frdysp5zy3Lb6T6fta99tU1rTQAAIABJREFU3m7r7p+Hk93frm05Wrtl2eftdlWvEcAtwlw4V500yi+TAHktkyZlVU2AvFZNmPKrIEBuq6BKmVURIK9+ZKMSwKvX/GQm3nKnGT/xDrNy5feFW9xNAGuk8KlTp5N5fYvcGK7XwfVl9syZs0mZWuv3fg8dW1NbaMm7T78y3dcZAdxkmevTdgSw+/7p97Pe47/99ps5fPiw+eGHH8xrr71mXn31VfP111+bAwcOmMuXL/eVuCpDUuzs2bNm06ZN5q233jL/+Mc/zHfffWeOHTuWlK9t8pxP7HYnTpww7777rtm4caO5dOlSv2Z0vK4ydH5ct26dee+995I6qH51eKhtasvFixfNvn37zMqVK83LL79sXnzxRfPpp58m/M+cOZNs47bX3W/nzp3m22+/Tfr6+eefNx999JHZunWr0X7iZvvA3d/92ZZl+1uMly1blrBWOefPn0+Or+18HrZ828ZVq1Z11HXbtm3m3Llz7WN0O44tQ9tt2bIlybPl9Pnnn5tdu3Z11LNbGbbuei39HnnppZfMF198kfs9Yssa7RoB3CLIhfNok8T+gyRAXgdJm2ONlgB5HS1B9h8GAXI7DOoc05cAefUjF40A1hfqpxYvTUb/6oZsPrLWFcD60v3+ik/MpNumJ2VqvmCJ5cVPLzNnz54bQfPZpS8n22ntPjTFxO2TZyaLfv55yzYz8+757TJVrn7fs3efu1vyswTE99//OGJ77TN12myz9qcNuWTPiIK7PIEA9pGgTd4nXgF8ReLyiuTlVfPb71fai567ciWfQO3yFsp8SmJr//795pFHHjFjx44111133Yhl3rx5iRy0IjhdmMqQqJOsvfnmm0fsf8MNNxjJsqNHj7aFXboM/a5yrGhbvXq1mTFjhvn73/9uPvjgg0TUddsn/Zz217lJx1q6dKkZN26cmTVrlvnll1+S59Pbx/a7ZS3Re8cddyR8uvXZgw8+mDBw26c+Wr58edc+smXceOONiUzu1VeqgwTvm2++mVnW5MmTE/l/4cKFwp8DKl/y//XXXze33nrriDzZuqpvlblTp061s+O2V88//fTTSQbsPun1xIkTzX//93+b06dPdy1D5ak+kq5Z7xFl9P777zd79uxpy3O3HmX/jABuEeXCuexkUV6VBMhrlXQpu2wC5LVsopQ3CALkdhCUOUZZBMirH8loBPDx4yfM9LvuS8SqRK7PwwrgBfc/ktwsTjePk0yW1J024962tJUElnB2H3kE8Gv/fDu5+ZyE7/PLlpt58x82OoaE7j2z7zdqg/uw8ljbzL73gWQfHUfyV/tojuONm352d/H+GQHcZJnr0/b4BHAifn+/ar5de9Q8/OI2c9PsNeZ/Tlpp/nPiN+b/TPve3PPEJvPOp/vNydOXSxXBGl07bdq0RCSOGTPGTJo0yUjeTZkyJRFnkluSZrfffnsyErebBJbk0+hTCTltf9NNN5k5c+Yk5epnW8YLL7yQiD0JNfeh3yVtVbZGai5cuNBIGltZ108Aa39bhkTe22+/bW677bb2/nURwGrj8ePHzaOPPtrBx3Jy190EsISoRKX62d22288PPfSQOXToUMI13VcaUfvMM88YyeJu+9rnlAeNkJUsVt3zPjTqfPbs2e3c2PKy1osXL05kd/oYkv7qe5u/rP31fK9s7t6929x99919y5k5c6bZvn17e7R73vYW3Q4B3CLGhXPR5LD9MAmQ12HS59hFCZDXosTYPgQC5DaEXqAOeQmQ17ykOreLRgDv2rXH3Db5rmQKiKJz/9omWwEs4XrXzLlGZdqHhO+yF19NxKtG9Lo3j9M2/QSwRg9rNPFXX3/X8UX9h9VrE5ErofvJp1/awyXrPXt+MUuff8UcS4nh8+cvmIUPPp7U5ZklL4yQ0R2F5PwFAewjQZu8T1wCWCN7V649am67/yfzP25eaXrN9fxf0743r33wizl1pjUtQ863UOZmn332WSJLJfz03+r139ztQ2JXUznYUb2Sh2kpKOmm/04vcSzRJhmnqSQkdPXQ9hK6ko4aYSwhmB4VKkGoetxzzz1tOelKu34CWMeSpNOIX43olNBz96+DABbnLPF6/fXXJ30k6S0pq98XLVo0YgSwFcCS6+l9XF5WlL7zzjvJlB6uWJWk/+c//2nGjx/flr/aV6JfOUnLZY1SVq7Sf5S0Geu2dsWtylZd3SVdVx1TI6LTolnlSNzqdS3KqBa1P12GsqkpTzRK2j7Ubk1f8sADD3S0S/sqZ+4fNyyzxx9/PNnHZWbLK2uNAG6R5MK5rERRziAIkNdBUOYYZREgr2WRpJxBEiC3g6TNsUZLgLz6EYxGAK9duz5TzuZtuhXAmkdY8wmnH4cPHzV3Tp+THGfltz90vNxPAEvwPv/C8hFf0t2pKzSFhfslXtIl60uujq8yZ89ZaE6fOdNRF59fEMBNlrk+bY9HAEv+vvbBPvO/7ljVU/ympfDCpVvNkeMXM9+Ded9n33zzjdGiaWW6vZ8l/CRWJbsmTJhgfvzxx475eDVVgKaIkKCTbOs21YIEoEYZS5J1k8gahaxRx3pd5Wibf/3rX+3//t9PAEva6b/6S35aOadRwJKgeq4OAljnW7VJfWBlo1g99dRTyRQe9tys7Q4ePJjM76s+dR8SwBq5++GHH5qTJ0+2+1v8xFhy1Jat9fz58zuEv/KxY8eO9tQc2ka8NfpbUzbo2BL56WkbNO2EnWLBrU/Wz1bcqq2aV1jH1BzQKl9505zFGl3s1rVbrjQ/sv4goTmSNbexzbdEuurkSmyVJTZqh33oeCtWrGj/AUTbqE4qT8xUzrPPPtsxElr10jzaReestsfMs0YAtyhx4ZwnLWwTCgHyGkpPUI88BMhrHkpsExoBchtaj1CfXgTIay862a81UgDPvHtecuO3NBbNK6wpISRe09NM9BPAGgG8bv3GdJHJ71Y85527WCLim5WrknrMmDk3uTFc14ILPIkA9pGgTd4nDgGsaR/+6SF/rQxOJPCJ0UlgvV+tGMt6S+pGblbq6WZhGmmph/bTXL12ugVJ27R01HauRL7lllvMhg0bkufs8XTTuKlTpxr9F3odS+W7UjiPAF6yZElSx+eeey6Zr1VlWCkcuwAWZ92w7K677mqPXJX81Ry8RcSqypHU7Nbfbh9ZsZrmpn11g0BXnN57773JTdD0Wrqv3XL27t3bHhVu+z1rrTmpdQNBrW257rZqs+S+O02IpizR9AtWhGt77aulW3u7lZGeNkOSXGLZHdWsemlf+5BsT09XoekkJNu7HdfuN5o1ArhFjwvn0aSIfQdNgLwOmjjHGw0B8joaeuw7LALkdljkOa4PAfLqQ82YaASwpn3QyN1bbp1utm7b4dXafiJ2NAK427QRtpK9jnvp0mWjaSKWPPuikZh2b0onEY0AbrKEHWbb4xDA3/501Fw344dCI3+t/LXr5e/tNafPXrZv10rWWTJWck0jKTXqUf/9X2LXnULCrYz+i77kr8Sl/e/69nVJY8k2V95lHdPu4661n0aGulNLuKOC0yLT3TeGn8VZU3G4o38lJiUCy5KMKkdy05W7aW7dhKimg9DoWvfh/sHAjppNjxx3t0//3Evcalu3b61k1uhlzR/tZihdrvt7tzLS02YogxLL9hjir3ZIltuHftaIZI2Qt9ulpbjdtqw1ArhFkgvnshJFOYMgQF4HQZljlEWAvJZFknIGSYDcDpI2xxotAfLqRzAaAbx37z4z+Y5ZyajYzz7/2qu1vUSsChy0AN6zd1/7xnaSvZK/ksCLn1lmHnpkMSOAJwxTgDb92OELYI3+nfX4xr5z/lrRm7XWnMB7D54rTQSmT04Sg5q3V4JN0ylI7kme6aH/Aq85TzUSU/P36r/cS951e/z8889tmfbyyy8nIyS7bWefKyKA7T7u2hV8aZHpbhfDz2nxKt5fffVVW3hbYaq1+quoFNb24qXR0+pjKzKfeOKJ5KZzltHOnTvN9OnT26+n82C30xQOGs3tzrPrjhy32/muJfrt6G5bV41C37p1ay4BrPZqhK5G/Lqje19//fW2zNY277//fntOaR1HOeo2ktn+ccOnLj4MEMAtalw4+6SHfYZFgLwOizzH9SFAXn2osc+wCZDbYfcAxy9CgLwWoXVt22gE8Llz5828+Q8nUvSRR582Gjlb9BGSAD51+rSZfe8DSXsef+JZc+TI0Y7m2DmPGQHcdBE7rPaHL4C/K2H0r5XCr76/15w5V/yc0vGmzfhFc5laMSjJplGWdpSv5kvVPLEa1Zv+7/Pp4iQFJdAkBSWNjx8/nt6k43cE8DUcafFqpzuQCJVYl7jUFBiagmPPnj3J/LMSmFq6PVxhrBGzGsUqyX/77bd3yF07160tY82aNe3pPiQ7NaJ78+bN7TzY7SSsFyxY0CFX80h/u3+vtdqkqSH0BwdXMN93333JVBTpNuv3dHvFTTe4szc3VFs0xYkyZ7MtLi+99FLHXMO6GdyRI0dGcF2/fn0HO40G/v777yubBxgB3EoIF8693im8FhoB8hpaj1CfXgTIay86vBYqAXIbas9Qr24EyGs3Kv2fi0YAqylvv/N+IkxvnjTN/Lh2ff/WpbYISQBrvmDNG6ybzunmc+kHAnhY4pPjtqRo+AL42Td2mf9n8nejmv7BCuCZj200h49dSL8NR/275NlPP/1k7rjjjkQMakTosWPH2gLMlbrpG2ilDy5ppf8an0cWa18E8DWC3377bXsOZslKyU/daCw9P60dgSoZb0djp4WoStUobk1boFG0jz32WCIvXZk6duxYo6kd0vML6wZvkr72OFmjbjW6Nl033ShOz4/mobZIVqtu7lQVqrutb7p8ba96648Yau/DDz/cIX61r8r6+OOP23Nbqwx3BLltr/ZV/tMPN6vaVgJ41apVCOA0qJJ/58K5ZKAUVykB8lopXgovmQB5LRkoxQ2EALkdCGYOUhIB8uoHMioBfPz4CXPP7PsTCTz9rvuMplAo8ghJAFvBq1HNGt3sPvQl/eVXXk/ayQhghKyVlINdhy+Ay5j+wTLVNBC//HrOfRuO6me9h7VodKn9r/waHaqbtdkRkjqAK4D7CT5XCvYbLayyXanW7yZw3RrrCrzYp4BIT0WgaRimTZvWMcLWSkq7fuihh8yhQ4fast5llL6Rm91H0yGob9TPGvmtDLiPdD2yuLp9bcvulw/3ON1+Vl1UpxUrVnRIaJU/Y8aM5CZ53eb/dXNg62LXmsJi8eLFZvfu3Umu3fa605vY7bPa4GZV2yKAu/Vg+c9x4Vw+U0qsjgB5rY4tJZdPgLyWz5QSqydAbqtnzBHKI0Be/VhGJYDVRN0wTSOA7Zy5773/UXs+TYtAX0KPHDlmXnrln2bDhs32aROSALYjgCfdNsNs3ry1XUfVfdX3a9ptRAAjgK2kHOw6fAE8af7aUkb/iut/TvzG7N5/tv0+HM0Peg9LpGkEo0b+aoSkbn6Vng5Ax0AAj4Z0/n2zhK1G6krMT548uWPuXklIjbR+7733knmaXbGpo2aVp/00LcLSpUuT6RSUA3ff9H6DEsCqw/nz582rr77acSM81VfZdOelTlPtJYC1v/hpCg1N7WDnUFYZRSQ2AjhNfTC/c+E8GM4cpRwC5LUcjpQyGALkdTCcOUq5BMhtuTwprVoC5NWPb3QCWM2UPLU3hJMI1lQKU6fNTm6oppHBVhDrNY20tY+QBLA7B7Dqq3mAl734qrlv7iJzy63TzdPPvMAIYG4CV5rgLC6PEcD2vFFkLdGmkY/Lly9v/xd7CUFNQSCRln74CGCmgEhT7P97WrxKXM6ePTuZ71fSUg9NsZGed1fzM+t5V+JqW4lhjezWXMISqBr5604BofI1J+6PP/7YMRJYotSdekECuNtN0YrI016tV721qA0a0ayb36ludlHdNXex5vTNemjUsPKsUcJqr+rfrb3ioZvIaYS7jqnpLzTnr3uTuBdeeKHrNBYI4Cz61T7PhXO1fCm9XALktVyelFYtAfJaLV9Kr4YAua2GK6VWQ4C8+nGNUgCrqSdPnjL/eO0tc9vkuxJRKtnrLnper58+c6ZNJiQBrErtP3DQzLmvdSM4W3eJbY0A1hzHeo4RwIwALi5vy2AWvgC++/GN5n/csrIUSf5/pmsKiM6pWNonjhw/WNGm/wovaWgF2Zw5c8y2bds6pn1wi3MFcJYcs9sfPXrUzJ07lzmALZAC67QAlsRcvXr1iDlm887Rmz60RtdqXzvi2wpWSVFlwk6tkC7f3ozOvm7LtQJYst+WlTV9gt0nvVYmVa5usCZ5mxbUquu6deuSOYHT+/b7XXL37bffHjGVhKa/sNNmdBs5nHXzQgRwP+LVvM6FczVcKbUaAuS1Gq6UWg0B8loNV0qtlgC5rZYvpZdLgLz68YxWANvm6kvumTNnzb59B8yGjT8bzROcnlPXbhvi2tZ/+/ad5ujR421RUHZdr5vwYCmibDgysgyhSRnF+i58Abz0zd3m/y3pJnCaT/jwsZEjdPO+DzWKVKM977zzzkS0aW5USUeJPL3Hsx779+9PbkgmOacRmu4N4tL7uLI4jwx0pVrT5wDWvLcaiW1lqub/3bVrVzJlgctZczZLytrtJk2aZLZs2ZL7vKwMaEoEu78E7qefftq+OdqXX35pVKZ93Zbvzgut+riy326r+YM1ujzvQ5n86quvOuqjslQn3Yzw4MGDI9qft2xtp1x/+OGHHVw1otiOetbI4SVLlnRMrWHnrk6/J9asWWN0QzzbVnHZvHlz5h9OitSz27YaEa2b/B04cCAZHa3pK/TeO378uDl58mQyevnMmTMJb8l9jZBWe3RDPC3qL8l1MbaL2mSXbscM8TkunEPsFeqURYC8ZpHh+RAJkNcQe4U69SNAbvsR4vWQCJBXv96IXgD7Nbt5eyGAEcB1E8Dfrz9m/n7XD6X8YeO1FXvNmXO/eZ0YJH1++umn9uhPjay0Eqxfge5/k7/33nsTISWh1O0hIWblZB4ZiAC+RlFz3GpKBisYNTJ3z549IwTozp07jW4QZ7ezgjY9QvdayZ0/nThxIhkBnjVyV4JZ+bDl6w8F3aYHSddD2/Wap7ezFi05u2HDBjN16tT2sXRMlfPOO+8Yyc20hE2Xked3TV8hlu7oYvePDW+88UbHlBfduKse3W6O121qjDx1yrMNArhFiQvnPGlhm1AIkNdQeoJ65CFAXvNQYpvQCJDb0HqE+vQiQF570cl+DQGczaZWryCAEcB1E8B6g97zxKZRTwPx/03/3uzznP5B8kojc++5555kZGV6Xtl+JxGNJnz++efNTTfdlAhKCcL0aFCV4UoyO8pS+/Z6IICv0dFoX1fsajSwpkZwGYqxpoVwR6LqZ03hIQGs193lWunXfuo2ctcdra3pEST6XUGsqRRcIatjaNTwLbfc0pa3ksY7duzIPRJZf1hIz/mr3HS7EeG12nf+5LZVP6cfei4tqiWZXQGcFu/duGt07dNPP90xUlgjlDUat6oHArhFlgvnqhJGuVUQIK9VUKXMqgiQ16rIUm6VBMhtlXQpu2wC5NWPKALYj1t0eyGAEcB1FMCr1h8z149iFPB/TvjGvPaB/+hficFXXnnFjBs3zkyePNnrv61//vnnybQAkoIff/xxMl1AWrjpv6FLio0dO9bcfffdiXTOGilsT04IYEvCJP+V3/Kzo2+XLVtmNGLXik7NWWtlvN1GN4Wzc9pKFmtUqqZhEHu7n13ruR9++KFjygWNjNU0Ceo/PXSMZ555pkN2uqNiVZZk8GOPPZb0ta2H5s51pwfRdjqeu+g5PbT++uuvO6aaULb+9a9/JWW7+6R/1r62HNVVf9xQ3bWdfc2ulf301Br6Q8aqVavacytrmgXl1R0hLO6aZsGWs3379o45ilXXTz75pM0saVTJ/yCAW0C5cC45WBRXKQHyWileCi+ZAHktGSjFDYQAuR0IZg5SEgHy6gcSAezHLbq9EMAI4DoKYL0R3/xov/nfd64qPBWE5O+iZdvMsZOXvN/PEkm60ZuklcSeRi2mpVr6dyu+tNZDc7GqDEkyyUCNVk2PONWUEpr+Qdu8++675uzZs33rjADuRGRFu5WqN9xwg3n99dcTsSrp+tZbb5mJEye2R93qRn4SnHbeXXtTM/WRntf8sXpOI7bV7++9917HNBM6jqaQUD+4o7o15YM7yljbSU5rPmj1q+aO1mhdW0/9ccGVqmqVRgO/9NJLychZjZ6VZLaZkKheunRpMqrclqG2LFy40CxevLi9j/ZzF5WnNil7etgb0WnE8hdffGE0T67K1iIpvnz58o566lh33XVXx9Qa2lY3N5QYtnXRz5ryQeXreJoXWH1hX8/7B47O3i32GwK4xYsL52K5YevhEiCvw+XP0YsRIK/FeLF1GATIbRj9QC3yESCv+Tilt0IAp4nU9HcEMAK4rgJYb1lJ4P8qIIH/c+Lo5a+O6940TIJNIxf13+x7LRolKvklMayHRLAEnv0v/ypn9+7d7ZtNbdq0KRHDksyaYiLv3KgI4ARv+x+J3CeffLJjZK2Vjt3Wjz76qDl8+HDHiNj0VAXd9rPPSdZLkqqv3UfRejz11FOJYLZ/MNBa8/i6ktiddsGKW0lfW5c86/R8x0XLkcT96KOPRozc1TQRkubuKOCs+qiMzz77LLnpmsus7J8RwC2iXDiXnSzKq5IAea2SLmWXTYC8lk2U8gZBgNwOgjLHKIsAefUjiQD24xbdXghgBHCdBbDekJoOYsoD68z/NWmlkeDt1l49rxvHvfnxPu+bvrlvfleyZkmt9PNp0aby9N/sn3322Y6RkhqNqtGSVpxpHljdCM4dTerWJf2zWzdXEKa3y/rdjnjVjcNmzZqVa9qJrLJCeV6jbOfPn98x4jTdP+J93333jRDt4pGeviG9r/1d8lUjX91pG1wGeeuhPwZoGgX7xwKVcenSJbNkyZL2NBKaV1c3fLO5KCpubZ3TuVQ5On4ekdzr5nIS1vqDiPJrs2yP6a41vYlGP2v+Yiu7XWZl/iwBrD7QCGT9rNHN6iuN5Nb0FKqDRoVL1uu9qXmKxd2OgBZrjZR2R/erznYps65VlsWFc5V0KbtsAuS1bKKUVyUB8lolXcquigC5rYos5VZBgLz6UUUA+3GLbi8EcHch2E0S8pxYfd1e/jb+K9OxjPvS/HXcF63lps/NX278zPzlxk/Nv4/9OFn+fMOH5s9jPjB/GrPC/On698yufacH+n75fv0x8/gr283E+340//ft3yZCWNL33sWbzXtfHChF/NoGaXTu1KlTkykgNEI3z3L77bebrVu3tv+rvS1LglHTO2h6AJUjWaa1RkVKxNmpIez2/dZu3dx5aPvtZ19XfSQax48fn9zkTvPBuiLSbhfbWnLvH//4RzLi2vaXZa22atSuZGC6rRJ+ukmcpuuQrEzvq98lQufNm5cIWQnDXg/NP6xpFyRw02VJ/mt6CjtHsVuOnpPE1j4SqJLVEplWmqp9DzzwQEcdbfm91ulcSnZqNO6MGTOSDNp9LSv9rj9QaH5ijfK1Atqtq/1ZddNcv8qxGGlftxzdoE/TXChzg3hYAazpVzSdBQJ4ENQ5BgRGR4AveqPjx96DJUBeB8ubo5VDgNyWw5FSBkOAvPpxRgD7cYtuLwQwAriY2I5XAEf35kxVWOJtz549iWzcsmVLMhoxLSNTu/CrBwFxljhds2ZNwlo/S9pakdqrSIlKicO1a9cm4vKnn35KftfzefZ3yy5aD8lWCVM7elYyW9K3yodGwWrErFhJ1GrE8dGjR5MRsUXbq7IkgzUVisqR0B50vhHArbRw4Vzlu4ayyyZAXssmSnlVEiCvVdKl7KoIkNuqyFJuFQTIqx9VBLAft+j2QgAjgBHA0b1tqTAERhDQTeRuvfXWRABrBG76BnEjduCJEQSyBLBkdLcpICT2mQJiBEaegMBACfBFb6C4OdgoCZDXUQJk96EQILdDwc5BPQmQVz9wCGA/btHthQBGACOAo3vbUmEIdBDQaFtNDWFvAKeRwJoaZNAjaDsqFeEveQTw2bNn23MAI4Aj7GSqXDsCfNGrXZfWukHktdbdW9vGkdvadm0tG0Ze/boVAezHLbq9EMAI4DIF8N/sPMDOHMB/ufGTIOYAju7NSYUhkJOARqFqjmLNyztlypTkZ92sjUcxAqMRwJrrmJvAFePN1hAogwBf9MqgSBmDIkBeB0Wa45RJgNyWSZOyqiZAXv0II4D9uEW3FwIYAYwAju5tS4UhAIEKCCCAW1C5cK4gXBRZGQHyWhlaCq6AAHmtACpFVk6A3FaOmAOUSIC8+sFEAPtxi24vBDACGAEc3duWCkMAAhUQ6CWANaJaN9XLmgKCEcAVdAhFQiAHAb7o5YDEJsEQIK/BdAUVKUCA3BaAxaZDJ0Be/boAAezHLbq9EMAI4EEJ4H+/4SPz5zEfmD+NWWH+dP17Zte+09G9X6gwBCBQXwII4FbfcuFc34zXsWXktY69Wt82kdf69m2dW0Zu69y79WsbefXrUwSwH7fo9kIAI4ARwNG9bakwBCBQAYEiAvjChQvGvQkcI4Ar6BCKhEAOAnzRywGJTYIhQF6D6QoqUoAAuS0Ai02HToC8+nUBAtiPW3R7IYARwFUJ4L8mN4L71NibwDECOLrTAxWGQKMIIIBb3c2Fc6NiH31jyWv0XdioBpDXRnV3bRpLbmvTlY1oCHn162YEsB+36PZCACOAfQXwf0z42vxt/FfXlnFfmr+N+9L8ddwXRvIXARzd6YAKQ6DRBPoJ4DNnziRzAJ8/f97kGQF89epV4y6xwOXCOZaeop4iQF7JQUwEyGtMvUVdLQFya0mwjoEAefXrJQSwH7fo9kIAI4BLE8CSwSME8GcjRgAn8wBf/z5zAEd3tqDCEKg3gUOHDpkDBw4YieDDhw+bo0cWxf4YAAAgAElEQVSPmuPHj5sTJ04Y3QSunwD+/fffjZYrV64kiyt/9XMsDy6cY+kp6ikC5JUcxESAvMbUW9TVEiC3lgTrGAiQV79eQgD7cYtuLwQwAhgBHN3blgpDAAIVEMgSwCdPnkQAV8CbIiFQBgG+6JVBkTIGRYC8Doo0xymTALktkyZlVU2AvPoRRgD7cYtuLwQwAnigAviGDw0jgKM7TVBhCDSCQB4BfO7cOZM1BQQjgBsRExoZGAG+6AXWIVSnJwHy2hMPLwZKgNwG2jFUqysB8toVS98nEcB9EdVjAwQwAriYABavr9tLxxzAmVNAfGr+fezHJrkJHAK4HicOWgGBGhKQAD548KDR2p0CQiOAT58+nUwB4SuAY8LFhXNMvUVdySsZiIkAeY2pt6irJUBuLQnWMRAgr369hAD24xbdXghgBPDABPDYj82frQAes4I5gKM7W1BhCNSbgKSvFcBHjhwxx44dS+b/zRLAly5dMpcvX06W3377LZn/N2sO4JjIceEcU29RV/JKBmIiQF5j6i3qagmQW0uCdQwEyKtfLyGA/bhFtxcCGAFciQAe94X5602fm7/cqJvA/TECGAEc3fmBCkOgSQQkgHUDOI0AdgWwbgCnEcBnz541dgTwxYsXTTcBbG8Ap7V7E7iYOHLhHFNvUVfySgZiIkBeY+ot6moJkFtLgnUMBMirXy8hgP24RbcXAhgBXLYA/tu4L81fUwL4Lzd+cm0aiDEfmD+NWWF2/nLKXL0a3VuGCkMAAjUlYAWwO/3DiRMnOm4AJwF84cIF4wpgjf61I4ARwDUNB80KlgBf9ILtGirWhQB57QKFp4InQG6D7yIq6BAgrw6MAj8igAvAinlTBDACuFQB3HUe4E9NhwD+YxqI7XsRwDGfO6g7BOpEQKN1NerXjv49evSoOX78uHGnf9AI4Lw3gGMEcJ3SQVtCJsAXvZB7h7qlCZDXNBF+j4EAuY2hl6ijJUBeLYliawRwMV7Rbo0ARgBXL4A1DcQfI4CdaSC+XXvIXLr8e7TvHSoOAQjUh4BG8EoAa/SvO/2DK4Dt9A/dRgBr7l93/l8EcH2yQUvCJsAXvbD7h9p1EiCvnTz4LQ4C5DaOfqKWLQLk1S8JCGA/btHtJQH8Pyd8aG68Zw0LDPJl4O7V5kZnGXv3DyZZZv1gxs76wdww63tzw8xVZszM78yYu75NlutnrDR/n/61+fv0r8x107401935hXnjg53mzNnL0b1nqDAEIFA/AhrZK/nbbfqHrPl/7RzAdvoHVwC78//q55geXDjH1FvUlbySgZgIkNeYeou6WgLk1pJgHQMB8urXSwhgP27R7TVuwhSjhQcE8hJIiw0756UdAScZcvny5WSRINFoOckVjZ7Tf6GWTNFNlbRoHx4QgAAEhk1AI33t9A/Hjh0rNP0DAnjYvcfxm0yAL3pN7v342k5e4+szamwMuSUFMREgr369hQD24xbdXgjg6Lps6BXOEsASwRK6kiFWAksA62ZJksBWAJ85cyaRvxIuel778YAABCAwLAL6A5WmfdBi5/61N39Lj/7tNv2DFcD2j2Fap8+Tw2qbz3G5cPahxj7DIkBeh0We4/oQIK8+1Nhn2ATI7bB7gOMXIUBei9C6ti0C+BqLWv+EAK5191bWuLTcsOIjPQrYFcB2FLAEsKSKBLAki4SKyuMBAQhAYNAEdI5Kz/1rb/6m/6Wg85X+54L+gOXKX+2n/+lg5a/OffY8mD4/DrpNoz0eF86jJcj+gyRAXgdJm2ONlgB5HS1B9h8GAXI7DOoc05cAefUjhwD24xbdXgjg6LosiAqnBYcVH2kBLEFiJbAVwJIp7ihgyRa9pjJ4QAACEBgUAQldO++vvfGbzkc+o38RwIPqNY4DgU4CfNHr5MFvYRMgr2H3D7XrToDcdufCs2ESIK9+/YIA9uMW3V4I4Oi6LIgKZwlgSVyJkKxpIKwEtqOANcJOssVKF72ufbNGBGucMGOFg4gAlShAgNwWgFXhpjqv6Pyi84zOOb/++msigNNTP+h/J+h/Kbijf7WPprPR4o7+tSOA7R/BtE6fHytsUiVFc+FcCVYKrYgAea0ILMVWQoC8VoKVQismQG4rBkzxpRIgr344EcB+3KLbCwEcXZcFUeG04NDvVoCkRwFLlmjRaDsrgO0oYHcqCAkZ3XzJ/nds3ZBJgubgwYPmwIEDZv/+/ea7H382367ZbH755Zdk2bt3r9GyZ8+ejmX37t2GBQahZODrVRuMllDqU6d6pN/79pxgzxH79u1Lzh06f+g8ovOJzis6v2j0bzf5m576Qectd/oHO/WDlb+9Rv/q3Bjbgwvn2Hqs2fUlr83u/9haT15j6zHqKwLklhzERIC8+vUWAtiPW3R7IYCj67IgKpxXAEuQuNNAdJPAki12PmArgXUjpm4ieNWPW4wWyRyJHbtY2aO1FUCsW3IcDsPnsPKHTUYLfVFNX7jvf3tOsOJX0reX+NUfnez/QNB5SOejXjd+6zb6FwEcxMcSlWgoAb7oNbTjI202eY204xpebXLb8ABE1nzy6tdhCGA/btHthQCOrsuCqXBaAtsRwFqnRwH3ksCSLXkksEbs/fDTNvP92q3tUcF2ZLCEsF1cAcTP1yQ5LIbHQqPWtdAH1fSBfe/btSt93RG/6VG/WfLXnfpBf7TKO/q3DtM/6AOGC+dgPmapSA4C5DUHJDYJhgB5DaYrqEgBAuS2ACw2HToB8urXBQhgP27R7YUAjq7LgqlwWgDrdyuBrQDWOj0KWHNodpsKopsElqBxRwOvWb/DrF63Pfnv2/pv3HaKCEkeO1WElT9511Yasb4m0WFRLgtNXaIFrvm45n3vutvZc4AVvnaaByt93ekedF7JI3+7Tf1gp39wz3H2vNftnBjMCbtARbhwLgCLTYdOgLwOvQuoQAEC5LUALDYNhgC5DaYrqEgOAuQ1B6QumyCAu0Cp41MI4Dr26uDalBYeVoRobQWJBHBaAqengnDnBO4lgtds2Gm0SObYRYLHLlYKF1m74oifWyIdDuVy0Kh1O3Idtv3ZFnn/2m3tOcAVvlb62nl+84hfnYvOnTuX/JHKHfnbb+oHnfPS58PBnYnLPRIXzuXypLRqCZDXavlSerkEyGu5PCltMATI7WA4c5RyCJBXP44IYD9u0e2FAI6uy4KqcFp46PcsCayRc1lTQUi4dJPA7tzAmqdz7abdyaJRwXZksOSOXawULrJ2xRE/X5PpsCiPhUat25HrcO3Ptcj7125rzwF2bc8RrvR15/p15/t1p3woS/7qXBjrgwvnWHuumfUmr83s91hbTV5j7blm15vcNrv/Y2s9efXrMQSwH7fo9kIAR9dlwVU4LYG7CWB3KohuEjg9JYSEjJ0b2B0RvO7nveanzXuSmzbZG8ZZwaO1lT6sW4IcDmFw+HHjLqOF/qiuP9zzgH7W+cEuJ06cMFqs9NU5RecXnWdc+avzUHrah6yRvzqnuee69HkwuBN1gQpx4VwAFpsOnQB5HXoXUIECBMhrAVhsGgwBchtMV1CRHATIaw5IXTZBAHeBUsenEMB17NXBtiktPvS7K0a6TQWRlsDulBDuaOC0CN6wZZ9Z//MvicixUsddW+HD+pr8gsXwWeiPFu4fLuiT8vvEPQ/YnyV8XembJX7dUb/dpn3Q+cpOZWPPZ+45rts5cLBn4XKPxoVzuTwprVoC5LVavpReLgHyWi5PShsMAXI7GM4cpRwC5NWPIwLYj1t0eyGAo+uyICvcTYC4gsRKEytRJFRcCawbw1kJbEcDp0WwZPDGrfuTRSLHXazo6bW2Uoh1azQkHAbHQSPXtcB8dMx7vb/ta+55wQpfd7SvO+LXil931K/ORRr16zvyV+fC2B9cOMfeg82qP3ltVn/H3lryGnsPNrP+5LaZ/R5rq8mrX88hgP24RbcXAji6Lgu2wnklsGSwvSmclcCSLVYCZ4lgzRG8aftBs3HbgfZ/3ZbY6bWkZRC/d4pzeAyGh0aua4F3ebx7ve+7CV+dP+wN3tLiN++oX5273D9sdTvnBXuCLlAxLpwLwGLToRMgr0PvAipQgAB5LQCLTYMhQG6D6QoqkoMAec0BqcsmCOAuUGJ6auu2HcbK3TzrmNpGXcMk0E2G6DlXmNiRwFYCp0WwJLBdJGXSMnjzjl+NFitz0muN7mOBQWgZ0B8t3D9chFa/OtQnfS6wv0v22sWd49dKX3u+cUf9dpvyIY/81fmuDg8unOvQi81pA3ltTl/XoaXktQ692Lw2kNvm9XnMLSavfr2HAPbjFsxeCOBguqJxFekmgotIYCtirJixIljrn3f+mixW5Fixk2dthRDr1khIOAyOg0aua4H56JjneZ/bbew5wq7d84g9t9hzjdZ2Whpf+VunEz0XznXqzfq3hbzWv4/r1ELyWqfebE5byG1z+roOLSWvfr2IAPbjFt1ednRwdBWnwsES6CaA84wEdkcDu1NDSM5YYbN192GzZdehZGSwK3T0sxU9rM/D4nxYDNJ/uCCj1fRP+pxgf7fnD61d6ZslfnUucv+3gvsHrKzzW7AnZI+KceHsAY1dhkaAvA4NPQf2IEBePaCxy9AJkNuhdwEVKECAvBaA5WyKAHZg1PlHBHCde3d4bcuSJK5IcQWLOyVEWgS7MnjbniNGiyt0uv1sxQ/r1jQacBguB/3RIusPF/TN6Pqm2/vffS4tfNPS1x3xmxa/TZr2wf204MLZpcHPoRMgr6H3EPVzCZBXlwY/x0KA3MbSU9RTBMirXw4QwH7cotsLARxdl0VR4SwBnB4JLCHcSwSnZfD2PUeNFlcKdxM8Wc+5Yoifr823DItqWWjkuhY4+3POek/3e17nivSi80p6SZ+H3D9W6ede57QoTsoFKsmFcwFYbDp0AuR16F1ABQoQIK8FYLFpMATIbTBdQUVyECCvOSB12QQB3AVKHZ9CANexV8NpU5Y0ScuVbiI4PSpYwmb73mPJkhY6/D5ScsEkHCbuHy7ol8H3S1r22t/T0le/dzs3ZZ3HwjnTllsTLpzL5Ulp1RIgr9XypfRyCZDXcnlS2mAIkNvBcOYo5RAgr34cEcB+3KLbCwEcXZdFWeEsgdJNtmTJYMmZHb8cTwSwFTijXSPjBi/jmsgcAeyXs9G+v939u8le+1zWeSjrvBXlSbhApblwLgCLTYdOgLwOvQuoQAEC5LUALDYNhgC5DaYrqEgOAuQ1B6QumyCAu0Cp41MI4Dr2anhtyhIp9vksAZOWwRLAWqy4Sa9d4cPPI/+bO0yGw8SOXId/tfzT54Nev/c659jzUtY6vDNsuTXiwrlcnpRWLQHyWi1fSi+XAHktlyelDYYAuR0MZ45SDgHy6scRAezHLbq9EMDRdVm0Fc6SKe7zvaSMXtu570SypMVwL9HDa79nCnPYDIZNvz9c0A/V9UO/c4r7unsuyvo52hNwgYpz4VwAFpsOnQB5HXoXUIECBMhrAVhsGgwBchtMV1CRHATIaw5IXTZBAHeBUsenEMB17NWw25QlVro978oZ/ewK4PRr/H6l6/ylcBk+F3I7/D7o9j7ods7Jei7ss2q5tePCuVyelFYtAfJaLV9KL5cAeS2XJ6UNhgC5HQxnjlIOAfLqxxEB7Mctur0QwNF1WW0qnCVaej2/a//J9gjgbkKH58IUbU3vFwTw8HPZ67zS67XanHALNIQL5wKw2HToBMjr0LuAChQgQF4LwGLTYAiQ22C6gorkIEBec0DqsgkCuAuUOj6FAK5jr8bVpl7yJf2aBLCW9PPu702XjbR/+LIx3QcI4Or7xD0HlPFzXGfRcmvLhXO5PCmtWgLktVq+lF4uAfJaLk9KGwwBcjsYzhylHALk1Y8jAtiPW3R7IYCj67LaVjiPtMkjgPOUwzZXe0p0+JTLh9yWy7PKfNb2BFugYVw4F4DFpkMnQF6H3gVUoAAB8loAFpsGQ4DcBtMVVCQHAfKaA1KXTRDAXaDU8SkEcB17tT5tSoseRFo8Ii3dd03+ndyGmdv6nCnLbQkXzuXypLRqCZDXavlSerkEyGu5PCltMATI7WA4c5RyCJBXP44IYD9u0e2FAI6uyxpdYURamCKtyXI3T9vJbRi5bfTJs0DjuXAuAItNh06AvA69C6hAAQLktQAsNg2GALkNpiuoSA4C5DUHpC6bIIC7QKnjU9dNeND814QnzXtfHmSBQfAZePHdXUZLv7zW8b1Km+IlwIVIvH3XxJqT1yb2erxtJq/x9l0Ta05em9jr8beZ3Mbfh01qAXn1620EsB+36PaSAP6PCd+wwKA2Gbh57tro3odUuN4EuBCpd//WrXXktW49Wu/2kNd692/dWkde69ajzWgPuW1GP9elleTVrycRwH7cotsLAYz8rtsfABDA0Z2Gal9hLkRq38W1aiB5rVV31r4x5LX2XVyrBpLXWnVnYxpDbhvT1bVoKHn160YEsB+36PZCACOAEcDRvW2pcGQEuBCJrMMaXl3y2vAARNZ88hpZhzW8uuS14QGItPnkNtKOa2i1yatfxyOA/bhFtxcCGAGMAI7ubUuFIyPAhUhkHdbw6pLXhgcgsuaT18g6rOHVJa8ND0CkzSe3kXZcQ6tNXv06HgHsxy26vRDACGAEcHRvWyocGQEuRCLrsIZXl7w2PACRNZ+8RtZhDa8ueW14ACJtPrmNtOMaWm3y6tfxCGA/btHthQBGACOAo3vbUuHICHAhElmHNby65LXhAYis+eQ1sg5reHXJa8MDEGnzyW2kHdfQapNXv45HAPtxi24vBDACGAEc3duWCkdGgAuRyDqs4dUlrw0PQGTNJ6+RdVjDq0teGx6ASJtPbiPtuIZWm7z6dTwC2I9bdHshgBHACODo3rZUODICXIhE1mENry55bXgAIms+eY2swxpeXfLa8ABE2nxyG2nHNbTa5NWv4xHAftyi2wsBjABGAEf3tqXCkRHgQiSyDmt4dclrwwMQWfPJa2Qd1vDqkteGByDS5pPbSDuuodUmr34djwD24xbdXghgBDACOLq3LRWOjAAXIpF1WMOrS14bHoDImk9eI+uwhleXvDY8AJE2n9xG2nENrTZ59et4BLAft+j2QgAjgBHA0b1tqXBkBLgQiazDGl5d8trwAETWfPIaWYc1vLrkteEBiLT55DbSjmtotcmrX8cjgP24RbcXAhgBjACO7m1LhSMjwIVIZB3W8OqS14YHILLmk9fIOqzh1SWvDQ9ApM0nt5F2XEOrTV79Oh4B7Mctur0QwAhgBHB0b1sqHBkBLkQi67CGV5e8NjwAkTWfvEbWYQ2vLnlteAAibT65jbTjGlpt8urX8QhgP27R7YUARgAjgKN721LhyAhwIRJZhzW8uuS14QGIrPnkNbIOa3h1yWvDAxBp88ltpB3X0GqTV7+ORwD7cYtuLwQwAhgBHN3blgpHRoALkcg6rOHVJa8ND0BkzSevkXVYw6tLXhsegEibT24j7biGVpu8+nU8AtiPW3R7IYARwAjg6N62VDgyAlyIRNZhDa8ueW14ACJrPnmNrMMaXl3y2vAARNp8chtpxzW02uTVr+MRwH7cotsLAYwARgBH97alwpER4EIksg5reHXJa8MDEFnzyWtkHdbw6pLXhgcg0uaT20g7rqHVJq9+HY8A9uMW3V4IYAQwAji6ty0VjowAFyKRdVjDq0teGx6AyJpPXiPrsIZXl7w2PACRNp/cRtpxDa02efXreASwH7fo9kIAI4ARwNG9balwZAS4EImswxpeXfLa8ABE1nzyGlmHNby65LXhAYi0+eQ20o5raLXJq1/HI4D9uEW3FwIYAYwAju5tS4UjI8CFSGQd1vDqkteGByCy5pPXyDqs4dUlrw0PQKTNJ7eRdlxDq01e/ToeAezHbcRev//+uzl16nSy6OfQHghgBDACOLR3JfWpGwEuROrWo/VuD3mtd//WrXXktW49Wu/2kNd6929dW0du69qz9WwXefXr11oJ4KtXr5ozZ86akydPmQsXLvoR8dxr9+695vbJM5NFP9vH+fMXzGOPLzG3T5lpflq3wT498DUCGAGMAB74244DNowAFyIN6/DIm0teI+/AhlWfvDaswyNvLnmNvAMbWn1y29COj7TZ5NWv42olgCV9H1z0hBk3YYp57/2P/Yh47pUlgO3zqtOzS1/2LH30uyGAEcD/P3tv3uVGea57f8n9xzlfIGudtc5KDDgOYGxjwGYwkxnCDJtpg9kJkJCASQIkOwnzYObBzBjYgBk8D9um3vcuTinVapVaulUq6arrp7V6dbek+6lr8mP11dUlCuDZ/x2xAgqMU4AXIuPU4bFlU4C8Lpsj4BmnAHkdpw6PLZsC5HXZHAHPJAqQ20lU4jnLogB5zTlBAZzTbdVUVfTGWcDDZwBH8btt+5XFu++9v2quqzsogCmAKYC7+tfGcVwV4IWIq/OavMmrpm+uqMmrq/OavMmrpm/uqMmtewK0+JPXnF8UwDndVk01FcCrnrigOyiAKYApgBf0j4/D2ijACxEbq3tBlLz2wkYbEuTVxupeECWvvbDRjgS5tbNcmjB5zdlHAZzTbdUUBTAFa98K1mXnc+ale1b9O+QOFFikArwQWaT6HHtaBcjrtIrx/EUqQF4XqT7HnlYB8jqtYjx/GRQgt8vgAhgmVYC8TqrUyufZF8BHjhwt3zTuwMGDxenTp1eq0/BdXGs43mguPk6ePFk+a9YCuL5mvJFdvKFdmzfOAKagXvZCd1p8FMBt7hCs1YYCvBBpQ0XW6EoB8tqV0hynDQXIaxsqskZXCpDXrpTmOG0qQG7bVJO15q0Aec0pbFMAR1m7Zeul5RvE7dnzevHll18Vl11+bfl9vEFbfJx97gXFa6+/2ahkzFx+5fXFL844dzC37syNxW9++/ti794Pirj+7/A1gIePW188CucXXnil2HrhjsF6FZaNm7YVe159o7UimAKYAnjagnXZn08BXN9N+HoZFOCFyDK4AIZJFSCvkyrF85ZBAfK6DC6AYVIFyOukSvG8ZVKA3C6TG2BZSwHyupZCox+3LIAffOgPxTkbLyyiZI03aNt5zU3Fmes3lSVs3P/JJ5+tUuvDDz8pZ6KgjefGTMxu2nJxOXfpjmuKDWefP1UBXJ01HCXytouvKu66e1e5ZuCqjvPmW++swpK5gwKYAnjZC91p8VEAZ3YCZuapAC9E5qkua7etAHltW1HWm6cC5HWe6rJ22wqQ17YVZb0uFCC3XajMMdpSgLzmlLQsgKPA/f0ju4tTp04NVKsXvPfd/+CKM2/j8hBR0EYpe+XVN5SXfqgG41IN//jnc4MCeZozgKNovvOu+4tvv/u+Wq78fPTosfI4cbzbbr9nBc4VT5ziGwpgCuBpC9Zlfz4F8BQbAE/tRAFeiHQiMwdpSQHy2pKQLNOJAuS1E5k5SEsKkNeWhGSZThUgt53KzcFmVIC85gS0LICv3nljEdfcHb499PAfy5L3sh3XFnFt4Or23PMvlZd9iLN9v/rqm+ruwecogR/+3aPl7DQFcFwCoulav888+2K53rbtVxYHDx0aHCv7BQUwBfCyF7rT4qMAzu4GzM1LAV6IzEtZ1p2HAuR1Hqqy5rwUIK/zUpZ156EAeZ2Hqqw5bwXI7bwVZv02FSCvOTUtC+A//fmpkWrFtYHjrNu4VnBcuzducZbwzbfcWd4fZ+s2Fbbv7f2gOOuXm6e6BMRIEP/vmE8/8/wqLE3Pn+R+CmAK4GkL1mV/PgXwJP/yeU6XCvBCpEu1OdasCpDXWRVkvksFyGuXanOsWRUgr7MqyPwiFCC3i1CdY2YVIK855SwL4Ch6R91GFcBxJnCcERzFcFNxHGtV1/Od5gzgmDtx4mTx4kt7itvvuLfYeuFlxfoNm8tjxfGGy+hRmCe9jwKYAnjZC91p8VEAT/qvn+d1pQAvRLpSmuO0oQB5bUNF1uhKAfLaldIcpw0FyGsbKrJG1wqQ264V53izKEBec+pRANd0G1UAx5nAcUZwlLFNxXEskSmAP/l0X7H5/EsGhW+Uv1EC33Lb3cU1191CAbyO0nbaUtTp+RTAtc2LL5dCAV6ILIUNgJhQAfI6oVA8bSkUIK9LYQMgJlSAvE4oFE9bKgXI7VLZAZg1FCCvawjU8DAFcE2YtQrguC5v023aArj+xnI33HhH8c03+1csPQrLiidM+Q1nAFMm960cpgCechPg6XNXgBcic5eYA7SoAHltUUyWmrsC5HXuEnOAFhUgry2KyVKdKUBuO5OaA7WgAHnNiUgBXNNtVOkabxYXbxoXZwDHm8Q13V7Z83r5RnGTXgLitdffLJ9/3ubtxddfryx/4xijsDQde5L7KYApgCmAJ/mXwnNQIK8AL0Ty2jHZvQLktXvNOWJeAfKa147J7hUgr91rzhFnV4Dczq4hK3SnAHnNaU0BXNOtqXS9f9dDZQF80bYrigMHDtYmfvoy3ijullvvLp8zaQFcHSuuLxzXGa7f4o3m7rv/QS4BwSUgir6Vtm3y4Qzg+q7B18ugAC9ElsEFMEyqAHmdVCmetwwKkNdlcAEMkypAXidViuctkwLkdpncAMtaCpDXtRQa/TgFcE2XqpSNa/7GtX+r2/sffFSs37ClLGRv//f/KI4fP149VET5+/tHdpdn88ZZwpMWwNUZwLHu22+/N1gvyt/nX3i5OHP9JgpgCmAK4DEZoAAebBt8sSQK8EJkSYwAxkQKkNeJZOJJS6IAeV0SI4AxkQLkdSKZeNKSKUBul8wQ4IxVgLyOlafxQQrgmjRNBXCUsrsff2JQ8m44+/zyjdruuPO+YuOmbWVZ+5vf/r4sfyctgOvXAI6yN64DfPe9DxSXXLqzOOuXm4tbb7uHAnhM+dfmmaSspXl5DArg2ubFl0uhAC9ElsIGQEyoAHmdUCiethQKkNelsAEQEypAXicUiqctlQLkdqnsAMwaClKamPMAACAASURBVJDXNQRqeJgCuCZMUwEcT4kzfXc//mSxfsPmspiNs33jIwrgPa++UXz08adTFcCx5udffFlsv+SqFeudfe4F5RnAcU3hWH/4bOQa3Km+5BrAmiUn5XSzbxTAU20BPLkDBXgh0oHIHKI1Bchra1KyUAcKkNcOROYQrSlAXluTkoU6VIDcdig2h5pZAfKak7BXBXBOgummogjev/+74p1395aXiTh9+vR0Cww9O84uPnTocPH++x+W68b687hRADcXiZSsmtpQAM9jp2DNWRTghcgs6jHbtQLktWvFOd4sCpDXWdRjtmsFyGvXinO8NhQgt22oyBpdKUBec0pTAOd0k5uiANYsOSmnm32jAJbbhnoPmBcivbe4VwTJa6/s7D0Z8tp7i3tFkLz2yk4bMuTWxupeECWvORspgHO6yU1RADcXiZSsmtpQAMttQ70HzAuR3lvcK4LktVd29p4Mee29xb0iSF57ZacNGXJrY3UviJLXnI0UwDnd5KYogDVLTsrpZt8ogOW2od4D5oVI7y3uFUHy2is7e0+GvPbe4l4RJK+9stOGDLm1sboXRMlrzkYK4JxuclMUwM1FIiWrpjYUwHLbUO8B80Kk9xb3iiB57ZWdvSdDXntvca8Iktde2WlDhtzaWN0LouQ1ZyMFcE43uSkKYM2Sk3K62TcKYLltqPeAeSHSe4t7RZC89srO3pMhr723uFcEyWuv7LQhQ25trO4FUfKas5ECOKeb3BQFcHORSMmqqQ0FsNw21HvAvBDpvcW9Ikhee2Vn78mQ195b3CuC5LVXdtqQIbc2VveCKHnN2UgBnNNNbooCWLPkpJxu9o0CWG4b6j1gXoj03uJeESSvvbKz92TIa+8t7hVB8torO23IkFsbq3tBlLzmbKQAzukmN0UB3FwkUrJqakMBLLcN9R4wL0R6b3GvCJLXXtnZezLktfcW94ogee2VnTZkyK2N1b0gSl5zNlIA53STm6IA1iw5KaebfaMAltuGeg+YFyK9t7hXBMlrr+zsPRny2nuLe0WQvPbKThsy5NbG6l4QJa85GymAc7rJTVEANxeJlKya2lAAy21DvQfMC5HeW9wrguS1V3b2ngx57b3FvSJIXntlpw0ZcmtjdS+IktecjRTAOd3kpiiANUtOyulm3yiA5bah3gPmhUjvLe4VQfLaKzt7T4a89t7iXhEkr72y04YMubWxuhdEyWvORgrgnG5yUxTAzUUiJaumNhTActtQ7wHzQqT3FveKIHntlZ29J0Nee29xrwiS117ZaUOG3NpY3Qui5DVnIwVwTje5KQpgzZKTcrrZNwpguW2o94B5IdJ7i3tFkLz2ys7ekyGvvbe4VwTJa6/stCFDbm2s7gVR8pqzkQI4p5vcFAVwc5FIyaqpDQWw3DbUe8C8EOm9xb0iSF57ZWfvyZDX3lvcK4LktVd22pAhtzZW94Ioec3ZSAGc001uigJYs+SknG72jQJYbhvqPWBeiPTe4l4RJK+9srP3ZMhr7y3uFUHy2is7bciQWxure0GUvOZspADO6SY3RQHcXCRSsmpqQwEstw31HjAvRHpvca8Iktde2dl7MuS19xb3iiB57ZWdNmTIrY3VvSBKXnM2UgDndJObogDWLDkpp5t9owCW24Z6D5gXIr23uFcEyWuv7Ow9GfLae4t7RZC89spOGzLk1sbqXhAlrzkbKYBzuslNUQA3F4mUrJraUADLbUO9B8wLkd5b3CuC5LVXdvaeDHntvcW9Ikhee2WnDRlya2N1L4iS15yNFMA53eSmKIA1S07K6WbfKIDltqHeA+aFSO8t7hVB8torO3tPhrz23uJeESSvvbLThgy5tbG6F0TJa85GCuCcbnJTFMDNRSIlq6Y2FMBy21DvAfNCpPcW94ogee2Vnb0nQ157b3GvCJLXXtlpQ4bc2ljdC6LkNWcjBXBON7kpCmDNkpNyutk3CmC5baj3gHkh0nuLe0WQvPbKzt6TIa+9t7hXBMlrr+y0IUNubazuBVHymrORAjinm9wUBXBzkUjJqqkNBbDcNtR7wLwQ6b3FvSJIXntlZ+/JkNfeW9wrguS1V3bakCG3Nlb3gih5zdlIAZzTTW6KAliz5KScbvaNAlhuG+o9YF6I9N7iXhEkr72ys/dkyGvvLe4VQfLaKzttyJBbG6t7QZS85mykAM7pJjdFAdxcJFKyampDASy3DfUeMC9Eem9xrwiS117Z2Xsy5LX3FveKIHntlZ02ZMitjdW9IEpeczZSAOd0k5uiANYsOSmnm32jAJbbhnoPmBcivbe4VwTJa6/s7D0Z8tp7i3tFkLz2yk4bMuTWxupeECWvORspgHO6yU1RADcXiZSsmtpQAMttQ70HzAuR3lvcK4LktVd29p4Mee29xb0iSF57ZacNGXJrY3UviJLXnI0UwDnd5KZ+KoD/Ufzv9c/ygQZLn4H/ddazRXyMyysFsNw21HvAvBDpvcW9Ikhee2Vn78mQ195b3CuC5LVXdtqQIbc2VveCKHnN2UgBnNNNburn684p4oMbCigowIau4BIYhxUgt8OK8P0yK0Bel9kdsA0rQF6HFeH7ZVaAvC6zO2BrUoDcNinD/cuoAHnNuUIBnNNNbooCWM4ya8Bs6Nb2y5Int7LWWQInr5a2y5Imr7LWWQInr5a2y5Mmt/IWWhEgrzm7KYBzuslNUQDLWWYNmA3d2n5Z8uRW1jpL4OTV0nZZ0uRV1jpL4OTV0nZ50uRW3kIrAuQ1ZzcFcE43uSkKYDnLrAGzoVvbL0ue3MpaZwmcvFraLkuavMpaZwmcvFraLk+a3MpbaEWAvObspgDO6SY3RQEsZ5k1YDZ0a/tlyZNbWessgZNXS9tlSZNXWessgZNXS9vlSZNbeQutCJDXnN0UwDnd5KYogOUsswbMhm5tvyx5citrnSVw8mppuyxp8iprnSVw8mppuzxpcitvoRUB8pqzmwI4p5vcFAWwnGXWgNnQre2XJU9uZa2zBE5eLW2XJU1eZa2zBE5eLW2XJ01u5S20IkBec3ZTAOd0k5uiAJazzBowG7q1/bLkya2sdZbAyaul7bKkyausdZbAyaul7fKkya28hVYEyGvObgrgnG5yUxTAcpZZA2ZDt7Zfljy5lbXOEjh5tbRdljR5lbXOEjh5tbRdnjS5lbfQigB5zdlNAZzTTW6KAljOMmvAbOjW9suSJ7ey1lkCJ6+WtsuSJq+y1lkCJ6+WtsuTJrfyFloRIK85uymAc7rJTVEAy1lmDZgN3dp+WfLkVtY6S+Dk1dJ2WdLkVdY6S+Dk1dJ2edLkVt5CKwLkNWc3BXBON7kpCmA5y6wBs6Fb2y9LntzKWmcJnLxa2i5LmrzKWmcJnLxa2i5PmtzKW2hFgLzm7KYAzukmN0UBLGeZNWA2dGv7ZcmTW1nrLIGTV0vbZUmTV1nrLIGTV0vb5UmTW3kLrQiQ15zdFMA53eSmKIDlLLMGzIZubb8seXIra50lcPJqabssafIqa50lcPJqabs8aXIrb6EVAfKas5sCOKfb0ky9t/eDoip3J/m8NMABggJjFGBDHyMODy2tAuR2aa0B2AgFyOsIUbhraRUgr0trDcBGKEBeR4jCXUuvALldeosAWFOAvNbEmOJLCuApxFrGp1IAL6MrYJpVATb0WRVkfhEKkNtFqM4xswqQ16xyzC1CAfK6CNU5ZlYB8ppVjrlFKkBuF6k+x55WAfI6rWI/PZ8COKeb3FR1drAccABbKsCGbmm7PGlyK2+hFQHyamW3PFnyKm+hFQHyamV3b8iS295YaUGEvOZspgDO6SY3RQEsZ5k1YDZ0a/tlyZNbWessgZNXS9tlSZNXWessgZNXS9vlSZNbeQutCJDXnN0UwDnd5KYogOUsswbMhm5tvyx5citrnSVw8mppuyxp8iprnSVw8mppuzxpcitvoRUB8pqzmwI4p5vcFAWwnGXWgNnQre2XJU9uZa2zBE5eLW2XJU1eZa2zBE5eLW2XJ01u5S20IkBec3ZTAOd0k5uiAJazzBowG7q1/bLkya2sdZbAyaul7bKkyausdZbAyaul7fKkya28hVYEyGvObgrgnG5yUxTAcpZZA2ZDt7Zfljy5lbXOEjh5tbRdljR5lbXOEjh5tbRdnjS5lbfQigB5zdlNAZzTTW6KAljOMmvAbOjW9suSJ7ey1lkCJ6+WtsuSJq+y1lkCJ6+WtsuTJrfyFloRIK85uymAc7rJTVEAy1lmDZgN3dp+WfLkVtY6S+Dk1dJ2WdLkVdY6S+Dk1dJ2edLkVt5CKwLkNWc3BXBON7kpCmA5y6wBs6Fb2y9LntzKWmcJnLxa2i5LmrzKWmcJnLxa2i5PmtzKW2hFgLzm7KYAzukmN0UBLGeZNWA2dGv7ZcmTW1nrLIGTV0vbZUmTV1nrLIGTV0vb5UmTW3kLrQiQ15zdFMA53eSmKIDlLLMGzIZubb8seXIra50lcPJqabssafIqa50lcPJqabs8aXIrb6EVAfKas5sCOKeb3BQFsJxl1oDZ0K3tlyVPbmWtswROXi1tlyVNXmWtswROXi1tlydNbuUttCJAXnN2UwDndJObogCWs8waMBu6tf2y5MmtrHWWwMmrpe2ypMmrrHWWwMmrpe3ypMmtvIVWBMhrzm4K4JxuclMUwHKWWQNmQ7e2X5Y8uZW1zhI4ebW0XZY0eZW1zhI4ebW0XZ40uZW30IoAec3ZTQGc001u6mfrri5+tm5n8fzr38p/yIkP4KkVYEOfWjIGlkABcrsEJgBhYgXI68RS8cQlUIC8LoEJQJhYAfI6sVQ8cYkUILdLZAZQ1lSAvK4p0cgnUACPlKV/d0YB/G/rnpb/2HDFa/0zB0arFGBDXyUJdwgoQG4FTALiQAHyOpCCLwQUIK8CJgFxoAB5HUjBF0IKkFshs4BakNdcCCiAc7rJTVEAy1lmDZgN3dp+WfLkVtY6S+Dk1dJ2WdLkVdY6S+Dk1dJ2edLkVt5CKwLkNWc3BXBON7kpCmA5y6wBs6Fb2y9LntzKWmcJnLxa2i5LmrzKWmcJnLxa2i5PmtzKW2hFgLzm7KYAzukmN0UBLGeZNWA2dGv7ZcmTW1nrLIGTV0vbZUmTV1nrLIGTV0vb5UmTW3kLrQiQ15zdFMA53eSmKIDlLLMGzIZubb8seXIra50lcPJqabssafIqa50lcPJqabs8aXIrb6EVAfKas5sCOKeb3BQFsJxl1oDZ0K3tlyVPbmWtswROXi1tlyVNXmWtswROXi1tlydNbuUttCJAXnN2UwDndJObogCWs8waMBu6tf2y5MmtrHWWwMmrpe2ypMmrrHWWwMmrpe3ypMmtvIVWBMhrzm4K4JxuclMUwHKWWQNmQ7e2X5Y8uZW1zhI4ebW0XZY0eZW1zhI4ebW0XZ40uZW30IoAec3ZTQGc001uigJYzjJrwGzo1vbLkie3stZZAievlrbLkiavstZZAievlrbLkya38hZaESCvObspgHO6yU1RAMtZZg2YDd3aflny5FbWOkvg5NXSdlnS5FXWOkvg5NXSdnnS5FbeQisC5DVnNwVwTje5KQpgOcusAbOhW9svS57cylpnCZy8WtouS5q8ylpnCZy8WtouT5rcyltoRYC85uymAM7pJjdFASxnmTVgNnRr+2XJk1tZ6yyBk1dL22VJk1dZ6yyBk1dL2+VJk1t5C60IkNec3RTAOd3kpiiA5SyzBsyGbm2/LHlyK2udJXDyamm7LGnyKmudJXDyamm7PGlyK2+hFQHymrObAjinm9wUBbCcZdaA2dCt7ZclT25lrbMETl4tbZclTV5lrbMETl4tbZcnTW7lLbQiQF5zdlMA53STm6IAlrPMGjAburX9suTJrax1lsDJq6XtsqTJq6x1lsDJq6Xt8qTJrbyFVgTIa85uCuCcbnJTFMByllkDZkO3tl+WPLmVtc4SOHm1tF2WNHmVtc4SOHm1tF2eNLmVt9CKAHnN2U0BnNNNbooCWM4ya8Bs6Nb2y5Int7LWWQInr5a2y5Imr7LWWQInr5a2y5Mmt/IWWhEgrzm7KYBzuslNUQDLWWYNmA3d2n5Z8uRW1jpL4OTV0nZZ0uRV1jpL4OTV0nZ50uRW3kIrAuQ1ZzcFcE43uSkKYDnLrAGzoVvbL0ue3MpaZwmcvFraLkuavMpaZwmcvFraLk+a3MpbaEWAvObspgDO6SY3RQEsZ5k1YDZ0a/tlyZNbWessgZNXS9tlSZNXWessgZNXS9vlSZNbeQutCJDXnN0UwDnd5KYogOUsswbMhm5tvyx5citrnSVw8mppuyxp8iprnSVw8mppuzxpcitvoRUB8pqz26oA/vHHH4tDhw4XP/xwoDh27PiaisVz4rkxE7NNt3j8jTffKV58aU/58fIrrxX//dXXxalTp5pGBvefPn26OHDw4MSYBoNTfkEBPKVgPH2hCrChL1R+Dp5UgNwmhWNsIQqQ14XIzkGTCpDXpHCMLUQB8roQ2TnojAqQ2xkFZLxTBchrTm6rAjgK3at33lj8fN05xWO7n1hTsXhOPDdmRhXGe/d+UFxy6c7yOfG84Y+d195cHD9+Yuxx3v/go2L9hi3l7HXX31qcOHFy7POzD1IAZ5VjbhEKsKEvQnWOOasC5HZWBZnvUgHy2qXaHGtWBcjrrAoy36UC5LVLtTlWWwqQ27aUZJ0uFCCvOZUpgMfoNq4AjrN9z1y/qSxu4/OOK64r7r73geKuu3cV2y6+qlh35sbG4rg6ZJxVfN/9Dw6K43M2Xljs2/dF9XCrnymAW5WTxeasABv6nAVm+bkoQG7nIiuLzkkB8jonYVl2LgqQ17nIyqJzUoC8zklYlp2rAuR2rvKyeMsKkNecoBTAY3RrKoC/+WZ/sfn8S8ri9qZb7iwOHz6yapXjx4+Xl4U4ebL5jN4DBw4WF227ovjV2VsH6/3+kd2r1mrjDgrgNlRkja4UYEPvSmmO06YC5LZNNVlr3gqQ13krzPptKkBe21STteatAHmdt8KsPw8FyO08VGXNeSlAXnPKUgCP0a2pAH7m2RfL8nfjpm3ltX7HLDH2oeeef6n4xRnnFpdfcV3x2O6/lGtetuPa4siRo2PnMg9SAGdUY2ZRCrChL0p5jjuLAuR2FvWY7VoB8tq14hxvFgXI6yzqMdu1AuS1a8U5XhsKkNs2VGSNrhQgrzmlKYDH6NZUAFf3b9l6afnmbWOWaHwozgy+/obbytI3zvr9+uv9xXmbtxdnnHVe8fobbzfOZR+gAM4qx9wiFGBDX4TqHHNWBcjtrAoy36UC5LVLtTnWrAqQ11kVZL5LBchrl2pzrLYUILdtKck6XShAXnMqUwCP0a0qeoffBO6ll18ti9tZytq41m9c87e67u+pU6eK226/p1w3Psf3bd4ogNtUk7XmrQAb+rwVZv15KEBu56Eqa85LAfI6L2VZdx4KkNd5qMqa81KAvM5LWdadpwLkdp7qsnbbCpDXnKIUwGN0ayqAv/32u+KCi3aUZW1cv/eVPa8X8YZu09zirN+frzunuO76W4sTJ366TnB1SYi4vnBcZ7jNGwVwm2qy1rwVYEOft8KsPw8FyO08VGXNeSlAXuelLOvOQwHyOg9VWXNeCpDXeSnLuvNUgNzOU13WblsB8ppTlAJ4jG5NBXCMvPraG+Wbt0WJGx+XXX5t8dlnn09UBB89eqy87m/M/fVv/xwg+P77H4rzt15arvfkU38f3N/GFxTAbajIGl0pwIbeldIcp00FyG2barLWvBUgr/NWmPXbVIC8tqkma81bAfI6b4VZfx4KkNt5qMqa81KAvOaUpQAeo9u4AjjGPv/8y7L4rUrg8g3drry+vH/MsuU1fuPyEXHN37j2b3WLs4jvu//BVWcGV4/P8pkCeBb1mO1aATb0rhXneG0oQG7bUJE1ulKAvHalNMdpQwHy2oaKrNGVAuS1K6U5TpsKkNs21WSteStAXnMKUwCP0W2tAjhGT58+XbzwwitFvCFcVQSvO3Nj8Yc//mnkdXyj5L3zrvvL54661u+bb71bvhHc+g1bivc/+GgMuukeogCeTi+evVgF2NAXqz9HzylAbnO6MbUYBcjrYnTnqDkFyGtON6YWowB5XYzuHHU2BcjtbPox3a0C5DWnNwXwGN0mKYCr8XjTtmeefbE4+9wLynI3zgaOs3mH38wtru0b1/iNx+Oav8O3I0eOFpftuLZc4/5dDw0/nP6eAjgtHYMLUIANfQGic8iZFSC3M0vIAh0qQF47FJtDzawAeZ1ZQhboUAHy2qHYHKo1Bchta1KyUAcKkNecyBTAY3SrCuCd195cHD9+Yswz//XQ4cNHiptuubMscEedxRvX/K3OFF7r80XbrigOHDj4r8Vn+IoCeAbxGO1cATb0ziXngC0oQG5bEJElOlOAvHYmNQdqQQHy2oKILNGZAuS1M6k5UIsKkNsWxWSpuStAXnMSWxXAUeJGmRvF6yRn195x533lc+PzNLevvvqm2LTl4nL2oYf/OBg9ceJkcd31t05cADedJTxYcIovKICnEIunLlwBNvSFWwCAhALkNiEaIwtTgLwuTHoOnFCAvCZEY2RhCpDXhUnPgWdQgNzOIB6jnStAXnOSWxXAIVEUv1EAX37FdcXRo8caVatfiuFPf36q8XmjHjh27Hhx9c4bV5XHcU3fOCs43gDu9TfeHjVa3lcvikddJ7hxcMwDFMBjxOGhpVOADX3pLAHQBAqQ2wlE4ilLowB5XRorADKBAuR1ApF4ytIoQF6XxgqATKEAuZ1CLJ66cAXIa84CuwL4lT2vl9ffjRL2+RdeblQtHovn/OrsrcXHH3+64nlRDsebuTXd4rINcfmGKJr/+OifB0/7/SO7y/u2bb+yOHjo0OD+UV88+dTfy+ees/HCYt++L0Y9Zar7KICnkosnL1gBNvQFG8DhUwqQ25RsDC1IAfK6IOE5bEoB8pqSjaEFKUBeFyQ8h51JAXI7k3wMd6wAec0JblcAHz58uLjs8p/eZC3K3WeeeWHFG7WdPn26ePa5F8viNwrcu+7ZteLxkHn3408W11x3S7F37werHjt67Fhx+x33luVt/RrA9VK4flmIJtu+/np/cd7m7eU6UQbPeqMAnlVB5rtUgA29S7U5VlsKkNu2lGSdLhQgr12ozDHaUoC8tqUk63ShAHntQmWO0bYC5LZtRVlvngqQ15y6dgVwyPThh58UcWZtFLzxceb6TcXm8y8pP9Zv2Dy4/7Id1xbffff9KmWrN4cbno3r/q47c2M5H9fv3f34E4Mzhaszj+ul8KqFa3ecOnWqiMs/xDHWulxFbazxSwrgRml4YAkVYENfQlOAtKYC5HZNiXjCEilAXpfIDKCsqQB5XVMinrBECpDXJTIDKBMrQG4nloonLoEC5DVngmUBHFJ9+933xS233j0obKsyOD5vOPv84sGH/lAcP358pKqffrqvuP6G28riuD4XX0fxG2cYv/vu+4PyN1vmVqVxXIrizbfeHYll0jspgCdViuctgwJs6MvgAhimVYDcTqsYz1+kAuR1kepz7GkVIK/TKsbzF6kAeV2k+hw7qwC5zSrH3CIUIK851W0L4EqukydPFvv3f1u88+7e8mzfQ4cOD4rb6jlNn+NyEQcOHiyv0fvOO3uLH344UMR6y3ijAF5GV8DUpAAbepMy3L/MCpDbZXYHbMMKkNdhRfh+mRUgr8vsDtiGFSCvw4rwvYIC5FbBJTBWCpDXSonpPtsXwNPJpftsCmBd7xyRs6E7uq7Pmdzqe+jEgLw6ua3Plbzqe+jEgLw6ud0fruS2P146MCGvOZcpgHO6yU1RAMtZZg2YDd3aflny5FbWOkvg5NXSdlnS5FXWOkvg5NXSdnnS5FbeQisC5DVnNwVwTje5KQpgOcusAbOhW9svS57cylpnCZy8WtouS5q8ylpnCZy8WtouT5rcyltoRYC85uymAM7pJjdFASxnmTVgNnRr+2XJk1tZ6yyBk1dL22VJk1dZ6yyBk1dL2+VJk1t5C60IkNec3RTAOd3kpiiA5SyzBsyGbm2/LHlyK2udJXDyamm7LGnyKmudJXDyamm7PGlyK2+hFQHymrObAjinm9wUBbCcZdaA2dCt7ZclT25lrbMETl4tbZclTV5lrbMETl4tbZcnTW7lLbQiQF5zdlMA53STm6IAlrPMGjAburX9suTJrax1lsDJq6XtsqTJq6x1lsDJq6Xt8qTJrbyFVgTIa85uCuCcbnJTFMByllkDZkO3tl+WPLmVtc4SOHm1tF2WNHmVtc4SOHm1tF2eNLmVt9CKAHnN2U0BnNNNbooCWM4ya8Bs6Nb2y5Int7LWWQInr5a2y5Imr7LWWQInr5a2y5Mmt/IWWhEgrzm7KYBzuslNUQDLWWYNmA3d2n5Z8uRW1jpL4OTV0nZZ0uRV1jpL4OTV0nZ50uRW3kIrAuQ1ZzcFcE43uSkKYDnLrAGzoVvbL0ue3MpaZwmcvFraLkuavMpaZwmcvFraLk+a3MpbaEWAvObspgDO6SY3RQEsZ5k1YDZ0a/tlyZNbWessgZNXS9tlSZNXWessgZNXS9vlSZNbeQutCJDXnN0UwDnd5KYogOUsswbMhm5tvyx5citrnSVw8mppuyxp8iprnSVw8mppuzxpcitvoRUB8pqzmwI4p5vcFAWwnGXWgNnQre2XJU9uZa2zBE5eLW2XJU1eZa2zBE5eLW2XJ01u5S20IkBec3ZTAOd0k5uiAJazzBowG7q1/bLkya2sdZbAyaul7bKkyausdZbAyaul7fKkya28hVYEyGvObgrgnG5yUxTAcpZZA2ZDt7Zfljy5lbXOEjh5tbRdljR5lbXOEjh5tbRdnjS5lbfQigB5zdlNAZzTTW6KAljOMmvAbOjW9suSJ7ey1lkCJ6+WtsuSJq+y1lkCJ6+WtsuTJrfyFloRIK85uymAc7rJTVEAy1lmLE4KOQAAIABJREFUDZgN3dp+WfLkVtY6S+Dk1dJ2WdLkVdY6S+Dk1dJ2edLkVt5CKwLkNWc3BXBON7kpCmA5y6wBs6Fb2y9LntzKWmcJnLxa2i5LmrzKWmcJnLxa2i5PmtzKW2hFgLzm7KYAzukmN0UBLGeZNWA2dGv7ZcmTW1nrLIGTV0vbZUmTV1nrLIGTV0vb5UmTW3kLrQiQ15zdFMA53eSmKIDlLLMGzIZubb8seXIra50lcPJqabssafIqa50lcPJqabs8aXIrb6EVAfKas5sCOKeb3BQFsJxl1oDZ0K3tlyVPbmWtswROXi1tlyVNXmWtswROXi1tlydNbuUttCJAXnN2UwDndJObogCWs8waMBu6tf2y5MmtrHWWwMmrpe2ypMmrrHWWwMmrpe3ypMmtvIVWBMhrzm4K4JxuclMUwHKWWQNmQ7e2X5Y8uZW1zhI4ebW0XZY0eZW1zhI4ebW0XZ40uZW30IoAec3ZTQGc001uigJYzjJrwGzo1vbLkie3stZZAievlrbLkiavstZZAievlrbLkya38hZaESCvObspgHO6yU1RAMtZZg2YDd3aflny5FbWOkvg5NXSdlnS5FXWOkvg5NXSdnnS5FbeQisC5DVnNwVwTje5KQpgOcusAbOhW9svS57cylpnCZy8WtouS5q8ylpnCZy8WtouT5rcyltoRYC85uymAM7pJjf1f9dtKeLj4OGT8h9y4gN4agXY0KeWjIElUIDcLoEJQJhYAfI6sVQ8cQkUIK9LYAIQJlaAvE4sFU9cIgXI7RKZAZQ1FSCva0o08gkUwCNl6d+dP193ThEf3FBAQQE2dAWXwDisALkdVoTvl1kB8rrM7oBtWAHyOqwI3y+zAuR1md0BW5MC5LZJGe5fRgXIa84VCuCcbnJTFMByllkDZkO3tl+WPLmVtc4SOHm1tF2WNHmVtc4SOHm1tF2eNLmVt9CKAHnN2U0BnNNNbooCWM4ya8Bs6Nb2y5Int7LWWQInr5a2y5Imr7LWWQInr5a2y5Mmt/IWWhEgrzm7KYBzuslNUQDLWWYNmA3d2n5Z8uRW1jpL4OTV0nZZ0uRV1jpL4OTV0nZ50uRW3kIrAuQ1ZzcFcE43uSkKYDnLrAGzoVvbL0ue3MpaZwmcvFraLkuavMpaZwmcvFraLk+a3MpbaEWAvObspgDO6SY3RQEsZ5k1YDZ0a/tlyZNbWessgZNXS9tlSZNXWessgZNXS9vlSZNbeQutCJDXnN0UwDnd5KYogOUsswbMhm5tvyx5citrnSVw8mppuyxp8iprnSVw8mppuzxpcitvoRUB8pqzmwI4p5vcFAWwnGXWgNnQre2XJU9uZa2zBE5eLW2XJU1eZa2zBE5eLW2XJ01u5S20IkBec3ZTAOd0k5uiAJazzBowG7q1/bLkya2sdZbAyaul7bKkyausdZbAyaul7fKkya28hVYEyGvObgrgnG5yUxTAcpZZA2ZDt7Zfljy5lbXOEjh5tbRdljR5lbXOEjh5tbRdnjS5lbfQigB5zdlNAZzTTW6KAljOMmvAbOjW9suSJ7ey1lkCJ6+WtsuSJq+y1lkCJ6+WtsuTJrfyFloRIK85uymAc7rJTVEAy1lmDZgN3dp+WfLkVtY6S+Dk1dJ2WdLkVdY6S+Dk1dJ2edLkVt5CKwLkNWc3BXBON7kpCmA5y6wBs6Fb2y9LntzKWmcJnLxa2i5LmrzKWmcJnLxa2i5PmtzKW2hFgLzm7KYAzukmN0UBLGeZNWA2dGv7ZcmTW1nrLIGTV0vbZUmTV1nrLIGTV0vb5UmTW3kLrQiQ15zdFMA53ZZm6r29HxRVuTvJ56UBDhAUGKMAG/oYcXhoaRUgt0trDcBGKEBeR4jCXUurAHldWmsANkIB8jpCFO5aegXI7dJbBMCaAuS1JsYUX1IATyHWMj6VAngZXQHTrAqwoc+qIPOLUIDcLkJ1jplVgLxmlWNuEQqQ10WozjGzCpDXrHLMLVIBcrtI9Tn2tAqQ12kV++n5FMA53eSmqrOD5YAD2FIBNnRL2+VJk1t5C60IkFcru+XJkld5C60IkFcru3tDltz2xkoLIuQ1ZzMFcE43uSkKYDnLrAGzoVvbL0ue3MpaZwmcvFraLkuavMpaZwmcvFraLk+a3MpbaEWAvObspgDO6SY3RQEsZ5k1YDZ0a/tlyZNbWessgZNXS9tlSZNXWessgZNXS9vlSZNbeQutCJDXnN0UwDnd5KYogOUsswbMhm5tvyx5citrnSVw8mppuyxp8iprnSVw8mppuzxpcitvoRUB8pqzmwI4p5vcFAWwnGXWgNnQre2XJU9uZa2zBE5eLW2XJU1eZa2zBE5eLW2XJ01u5S20IkBec3ZTAOd0k5uiAJazzBowG7q1/bLkya2sdZbAyaul7bKkyausdZbAyaul7fKkya28hVYEyGvObgrgnG5yUxTAcpZZA2ZDt7Zfljy5lbXOEjh5tbRdljR5lbXOEjh5tbRdnjS5lbfQigB5zdlNAZzTTW6KAljOMmvAbOjW9suSJ7ey1lkCJ6+WtsuSJq+y1lkCJ6+WtsuTJrfyFloRIK85uymAc7rJTVEAy1lmDZgN3dp+WfLkVtY6S+Dk1dJ2WdLkVdY6S+Dk1dJ2edLkVt5CKwLkNWc3BXBON7kpCmA5y6wBs6Fb2y9LntzKWmcJnLxa2i5LmrzKWmcJnLxa2i5PmtzKW2hFgLzm7KYAzukmN0UBLGeZNWA2dGv7ZcmTW1nrLIGTV0vbZUmTV1nrLIGTV0vb5UmTW3kLrQiQ15zdFMA53eSmKIDlLLMGzIZubb8seXIra50lcPJqabssafIqa50lcPJqabs8aXIrb6EVAfKas5sCOKeb3BQFsJxl1oDZ0K3tlyVPbmWtswROXi1tlyVNXmWtswROXi1tlydNbuUttCJAXnN2UwDndJOb+j/rLini44NPDy31h5ywAJ6LAmzoc5GVReesALmds8As36oC5LVVOVlszgqQ1zkLzPKtKkBeW5WTxTpSgNx2JDSHaUUB8pqTkQI4p5vc1M/WXV3827qnl/rj7Q8PyukK4PkowIY+H11Zdb4KkNv56svq7SpAXtvVk9XmqwB5na++rN6uAuS1XT1ZrRsFyG03OnOUdhQgrzkdKYBzuslNUQDLWWYNmA3d2n5Z8uRW1jpL4OTV0nZZ0uRV1jpL4OTV0nZ50uRW3kIrAuQ1ZzcFcE43uSkKYDnLrAGzoVvbL0ue3MpaZwmcvFraLkuavMpaZwmcvFraLk+a3MpbaEWAvObspgDO6SY3RQEsZ5k1YDZ0a/tlyZNbWessgZNXS9tlSZNXWessgZNXS9vlSZNbeQutCJDXnN0UwDnd5KYogOUsswbMhm5tvyx5citrnSVw8mppuyxp8iprnSVw8mppuzxpcitvoRUB8pqzmwI4p5vcFAWwnGXWgNnQre2XJU9uZa2zBE5eLW2XJU1eZa2zBE5eLW2XJ01u5S20IkBec3ZTAOd0k5uiAJazzBowG7q1/bLkya2sdZbAyaul7bKkyausdZbAyaul7fKkya28hVYEyGvObgrgnG5yUxTAcpZZA2ZDt7Zfljy5lbXOEjh5tbRdljR5lbXOEjh5tbRdnjS5lbfQigB5zdlNAZzTTW6KAljOMmvAbOjW9suSJ7ey1lkCJ6+WtsuSJq+y1lkCJ6+WtsuTJrfyFloRIK85uymAc7rJTVEAy1lmDZgN3dp+WfLkVtY6S+Dk1dJ2WdLkVdY6S+Dk1dJ2edLkVt5CKwLkNWc3BXBON7kpCmA5y6wBs6Fb2y9LntzKWmcJnLxa2i5LmrzKWmcJnLxa2i5PmtzKW2hFgLzm7KYAzukmN0UBLGeZNWA2dGv7ZcmTW1nrLIGTV0vbZUmTV1nrLIGTV0vb5UmTW3kLrQiQ15zdFMA53eSmKIDlLLMGzIZubb8seXIra50lcPJqabssafIqa50lcPJqabs8aXIrb6EVAfKas5sCOKeb3BQFsJxl1oDZ0K3tlyVPbmWtswROXi1tlyVNXmWtswROXi1tlydNbuUttCJAXnN2UwDndJObogCWs8waMBu6tf2y5MmtrHWWwMmrpe2ypMmrrHWWwMmrpe3ypMmtvIVWBMhrzm4K4JxuclMUwHKWWQNmQ7e2X5Y8uZW1zhI4ebW0XZY0eZW1zhI4ebW0XZ40uZW30IoAec3ZTQGc001uigJYzjJrwGzo1vbLkie3stZZAievlrbLkiavstZZAievlrbLkya38hZaESCvObspgHO6yU1RAMtZZg2YDd3aflny5FbWOkvg5NXSdlnS5FXWOkvg5NXSdnnS5FbeQisC5DVnNwVwTje5KQpgOcusAbOhW9svS57cylpnCZy8WtouS5q8ylpnCZy8WtouT5rcyltoRYC85uymAM7pJjdFASxnmTVgNnRr+2XJk1tZ6yyBk1dL22VJk1dZ6yyBk1dL2+VJk1t5C60IkNec3Z0WwKdPny4OHDxY/PDDgeLkyZM5xEylFKAATsnG0IIUYENfkPAcdiYFyO1M8jHcsQLktWPBOdxMCpDXmeRjuGMFyGvHgnO4VhQgt63IyCIdKUBec0J3WgBH8btl66XFz9edU+zZ83oOsdjU0aPHil/fcHvxq3O2Fq++9sbC0FMAL0x6DpxQgA09IRojC1eA3C7cAgBMoQB5nUIsnrpwBcjrwi0AwBQKkNcpxOKpS6MAuV0aKwAygQLkdQKRRjyFAniEKG3e9fHHnxa/OntrWXrfced9bS491VoUwFPJxZMXrAAb+oIN4PApBchtSjaGFqQAeV2Q8Bw2pQB5TcnG0IIUIK8LEp7DzqQAuZ1JPoY7VoC85gSnAM7pNvFUnAEcxe+27VcW7773/sRzbT+RArhtRVlvngqwoc9TXdaelwLkdl7Ksu48FCCv81CVNeelAHmdl7KsOw8FyOs8VGXNeStAbuetMOu3qQB5zalJAZzTTW6KAljOMmvAbOjW9suSJ7ey1lkCJ6+WtsuSJq+y1lkCJ6+WtsuTJrfyFloRIK85uymAc7rJTVEAy1lmDZgN3dp+WfLkVtY6S+Dk1dJ2WdLkVdY6S+Dk1dJ2edLkVt5CKwLkNWf3xAVwvIFbfJw8eXKiI8Xzqpljx46XM9O8CVzMVPOHDh0ufvzxx4mOWz3p1KlTxYEDB8s1quNXjzV9jmPEseK4Bw4eLE6fPt301MH99ePE8eL7zG1WvmsdkwJ4LYV4fJkUYENfJjfAMqkC5HZSpXjeMihAXpfBBTBMqgB5nVQpnrcMCpDXZXABDNMqQG6nVYznL1IB8ppTf+IC+OfrzinfyGzdmRuL3z74SGPRGeXpLbfeXcTzqplfnHFued++z78otmy9tLx/z57XVyGOAvbV194oLtp2xWC2WmPjpm3Fk0/9feRxH9v9RPn8q3feWBw+fLjY/fiTxfoNmwdrxPFvve2eIq7HO+oWRe+zz71UxDGq48XnDWefX/zpz0+NPGbwvOvuXcWZ6zetmInvn/rrPwaHiec1cY7jvvDCK8XWC3esWCOOHVj2vPrG1MX34MBDX1AADwnCt0utABv6UtsDuAYFyG2DMNy9lAqQ16W0BVANCpDXBmG4eykVIK9LaQug1lCA3K4hEA8vlQLkNWfHxAXwLbfdXZyz8cKyqIxCNYrR4dv+/d8WF1x0efmcKIAv23FtWZJeuO3yIma2X3LVYI3hAjjOnP3P3/6+fF4UoHGsOGa8gdqmLRcPCtK7731gVSFbFcCXX3FdORPHjjJ4ePbe//jNqtn6cSvMcYyYr0rs4WN+9933g5I6SuLAGc/Zec1NZSEceKrbuAL4448/LX519tbyONsuvqrUKjBXRXSUyW++9U611EyfKYBnko/hjhVgQ+9YcA7XigLkthUZWaQjBchrR0JzmFYUIK+tyMgiHSlAXjsSmsO0qgC5bVVOFpuzAuQ1J/DEBXAsH2fQ7rz25rKMjbN045IH1e3EiZPFr2+8vXxs64WXFZ9/8WX1UPn5zbfeHZS/UfAOF8DPPPNCWf5G6fmXJ/624vILcWbwP/75XFmujiqfqwI4Cts4m7Z+7Ch4o5ytSuV9+75Ygas6bhTOgbF+e+PNd8qCdriIrY4XZXeU3vXb8ePHiyiIq9u4AviTTz4r7rzr/uLb2vNjLnS+8uobSsy33X7PqtK6WnuazxTA06jFcxetABv6oh3g+BkFyG1GNWYWpQB5XZTyHDejAHnNqMbMohQgr4tSnuPOogC5nUU9ZrtWgLzmFJ+qAI5DvLf3g+KsX24uP+Lr6vb+Bx8V6zdsKT/efe/96u4Vn6uydbgAjss2bL/k6rLw3PXAwyMvexAl8MO/e7R8zrbtVxYHDx0arF0VsmecdV7x0suvDu6vvvj66/3FeZu3l7PPPPtidXdZtMZZw4EnLi8xfItj3nf/g+Xj9+96aPBwnKUbM7ffce9IrIMnFkV5PeFxl4CIY4y6Bc44xjDXUc+d5D4K4ElU4jnLogAb+rI4AY5pFCC306jFcxetAHldtAMcfxoFyOs0avHcRStAXhftAMfPKEBuM6oxsygFyGtO+akL4KYzWh96+I9lYRmXTmh607V6EVs/A7gqleNyCHFZhKZbdcmEKKDr5XNVAMeZx/Wzkqt1Ak/gikI1nlvdquNGORzYRt2qIrbO6/eP7C7XirOG33//w1Fjg/ua9Bo8YcQXcdby0888Xx4jyuNYY9YbBfCsCjLfpQJs6F2qzbHaUoDctqUk63ShAHntQmWO0ZYC5LUtJVmnCwXIaxcqc4y2FSC3bSvKevNUgLzm1G2lAI7C8uZb7iwLy7vu2dWIpKkMrUrWtc52bZqvCuB6SVsH0VQA//Vv/ywxxyUeNp9/yciPczZeVD6nXi5HWRzPj0I5LklxzXW3FHvf/3DFZSuq4zdhrh6PS2e8+NKe8mziOEb9zetifQrgSik+OynAhu7kdn+4ktv+eOnAhLw6uNwfjuS1P146MCGvDi73jyO57Z+nfWZEXnPutlIANxWsw5CaytC1Ctxqnex8E77quFG0rvUxXMTGdXtvuvnfB29aV5W1UebWL+vQhDk4ffLpvkGRHPNR/kYJHG8qF6VytWasMeuNM4BnVZD5LhVgQ+9SbY7VlgLkti0lWacLBchrFypzjLYUIK9tKck6XShAXrtQmWO0rQC5bVtR1punAuQ1p27rBXBcCqLp1lSG/unPT5Vl52U7ri2OHDnaNN54Pd2qyJ32DODquNsuvqr44ov/LtcPjKM+Dhw8OPIM32+//a544D9/Nzhzd/hN6po4x3px3Ch5b7jxjuKbb1ZegiIukUEB3BgFHui5AmzoPTe4p/TIbU+N7Skt8tpTY3tKi7z21Nie0iKvPTW257TIbc8N7hk98poztJUCOA5dvTFaXAoiLgkx6lZdwzeKzfo1gN98690i3sAtrqm7b98Xo0bL+6r54WsFZwvg115/szyDd9w1gBvBDD1w+PCRYuc1N5Wlbf1SFk0F8FrHpgAeEphvrRRgQ7eyuzdkyW1vrLQgQl4tbO4NSfLaGystiJBXC5t7R5Lc9s7SXhMirzl7WyuAq+vpNpW4cVmEh3/3aFmQDhfA8cZtF227onwsnlO/hEJFqz5/+RXXFUePHqseKt/YLdac9gzgOOs2ruUbZ+0G/llvo0rbpgK4eu6os56D6333P8gZwLMawrysAmzostZZAye31vbLkSevcpZZAyav1vbLkSevcpYBuCgKcksMlBQgrzm3WiuAqzI1itgrr76hvIxCBSkKzX/887ki3mwtHh8ugON5cTmGKGLjOX//xzMrLrcQ88+/8HL5WDwe19mt37JnAMe6ux54uMQTxfUbb7y9qnw+euxYWTDHJRuqW7xpXVwDuH6Ltf7yxN/KtaY5A3j9hi3F22+/N1iqzjV0Gr728OCJU37BNYCnFIynL1QBNvSFys/BkwqQ26RwjC1EAfK6ENk5aFIB8poUjrGFKEBeFyI7B51RAXI7o4CMd6oAec3J3VoBHIePYrYqeeNzXNv2rrt3FVsv3FGWu/ftenDwpmf1S0DEbFw24u57HxgUxJu2XFxeVqKajzI0CuLdjz+xqqTNFsBx3DhDd8cV15XHjfUv3HZ5iTmwxNm5687cuKqEjctdxP3xeDwvPuLs47gvPv7rv54euNF0BnD9GsCVVrHOJZfuLM765ebi1tvuKTFRAA+k5AsjBdjQjczuEVVy2yMzDaiQVwOTe0SRvPbITAMq5NXA5B5SJLc9NLXHlMhrztxWC+Dq7NWzz71gUORGcbvh7POLJ5/6e/Hd/3/WbBSao84ADvhRAsfzhufj+VEiR8Ecxxi+zVIAx1pxlm+U01HexrHqH1FEP/vcSyvOSH70sT8Piu76c4PbMMamAjiO+/kXXxbbL/npjeCqdYJ7nO38Cm8CN2wz3xspwIZuZHaPqJLbHplpQIW8GpjcI4rktUdmGlAhrwYm95Aiue2hqT2mRF5z5k5dAE9ymNOnT5dn1r7z7t5i//7vGt8UrmmtmI8zZD/88JPyTeEOHTo8svhtms/ef/LkyWL//m/LS0HE5yNHjjYuFWV1XLv4nXf2zoQxCu3g9/77H6a0agQ49ACXgBgShG+XWgE29KW2B3ANCpDbBmG4eykVIK9LaQugGhQgrw3CcPdSKkBel9IWQK2hALldQyAeXioFyGvOjrkUwDkoTM1TAQrgearL2m0rwIbetqKs14UC5LYLlTlGWwqQ17aUZJ0uFCCvXajMMdpSgLy2pSTrdKkAue1SbY41qwLkNacgBXBON7kpCmA5y6wBs6Fb2y9LntzKWmcJnLxa2i5LmrzKWmcJnLxa2i5PmtzKW2hFgLzm7KYAzukmN0UBLGeZNWA2dGv7ZcmTW1nrLIGTV0vbZUmTV1nrLIGTV0vb5UmTW3kLrQiQ15zdFMA53eSmKIDlLLMGzIZubb8seXIra50lcPJqabssafIqa50lcPJqabs8aXIrb6EVAfKas5sCOKeb3BQFsJxl1oDZ0K3tlyVPbmWtswROXi1tlyVNXmWtswROXi1tlydNbuUttCJAXnN2UwDndJObogCWs8waMBu6tf2y5MmtrHWWwMmrpe2ypMmrrHWWwMmrpe3ypMmtvIVWBMhrzm4K4JxuclMUwHKWWQNmQ7e2X5Y8uZW1zhI4ebW0XZY0eZW1zhI4ebW0XZ40uZW30IoAec3ZTQGc001uigJYzjJrwGzo1vbLkie3stZZAievlrbLkiavstZZAievlrbLkya38hZaESCvObspgHO6yU1RAMtZZg2YDd3aflny5FbWOkvg5NXSdlnS5FXWOkvg5NXSdnnS5FbeQisC5DVnNwVwTje5KQpgOcusAbOhW9svS57cylpnCZy8WtouS5q8ylpnCZy8WtouT5rcyltoRYC85uymAM7pJjdFASxnmTVgNnRr+2XJk1tZ6yyBk1dL22VJk1dZ6yyBk1dL2+VJk1t5C60IkNec3RTAOd3kpiiA5SyzBsyGbm2/LHlyK2udJXDyamm7LGnyKmudJXDyamm7PGlyK2+hFQHymrObAjinm9wUBbCcZdaA2dCt7ZclT25lrbMETl4tbZclTV5lrbMETl4tbZcnTW7lLbQiQF5zdlMA53STm6IAlrPMGjAburX9suTJrax1lsDJq6XtsqTJq6x1lsDJq6Xt8qTJrbyFVgTIa85uCuCcbnJTFMByllkDZkO3tl+WPLmVtc4SOHm1tF2WNHmVtc4SOHm1tF2eNLmVt9CKAHnN2U0BnNNNbooCWM4ya8Bs6Nb2y5Int7LWWQInr5a2y5Imr7LWWQInr5a2y5Mmt/IWWhEgrzm7KYBzuslNUQDLWWYNmA3d2n5Z8uRW1jpL4OTV0nZZ0uRV1jpL4OTV0nZ50uRW3kIrAuQ1ZzcFcE43uSkKYDnLrAGzoVvbL0ue3MpaZwmcvFraLkuavMpaZwmcvFraLk+a3MpbaEWAvObspgDO6SY3RQEsZ5k1YDZ0a/tlyZNbWessgZNXS9tlSZNXWessgZNXS9vlSZNbeQutCJDXnN0UwDnd5KYogOUsswbMhm5tvyx5citrnSVw8mppuyxp8iprnSVw8mppuzxpcitvoRUB8pqzmwI4p5vcFAWwnGXWgNnQre2XJU9uZa2zBE5eLW2XJU1eZa2zBE5eLW2XJ01u5S20IkBec3ZTAOd0k5uiAJazzBowG7q1/bLkya2sdZbAyaul7bKkyausdZbAyaul7fKkya28hVYEyGvObgrgnG5yUxTAcpZZA2ZDt7Zfljy5lbXOEjh5tbRdljR5lbXOEjh5tbRdnjS5lbfQigB5zdlNAZzTTW6KAljOMmvAbOjW9suSJ7ey1lkCJ6+WtsuSJq+y1lkCJ6+WtsuTJrfyFloRIK85uymAc7rJTVEAy1lmDZgN3dp+WfLkVtY6S+Dk1dJ2WdLkVdY6S+Dk1dJ2edLkVt5CKwLkNWc3BXBON7kpCmA5y6wBs6Fb2y9LntzKWmcJnLxa2i5LmrzKWmcJnLxa2i5PmtzKW2hFgLzm7KYAzukmN0UBLGeZNWA2dGv7ZcmTW1nrLIGTV0vbZUmTV1nrLIGTV0vb5UmTW3kLrQiQ15zdFMA53eSm/s+6i4v4+Gjf4aX+kBMWwHNRgA19LrKy6JwVILdzFpjlW1WAvLYqJ4vNWQHyOmeBWb5VBchrq3KyWEcKkNuOhOYwrShAXnMyUgDndJOb+vm6c4r44IYCCgqwoSu4BMZhBcjtsCJ8v8wKkNdldgdswwqQ12FF+H6ZFSCvy+wO2JoUILdNynD/MipAXnOuUADndJObogCWs8waMBu6tf2y5MmtrHWWwMmrpe2ypMmrrHWWwMmrpe3ypMmtvIVWBMhrzm4K4JxuclMUwHKWWQNmQ7e2X5Y8uZW1zhI4ebW0XZY0eZW1zhI4ebW0XZ40uZW30IoAec3ZTQGc001riGnLAAAgAElEQVRuigJYzjJrwGzo1vbLkie3stZZAievlrbLkiavstZZAievlrbLkya38hZaESCvObspgHO6yU1RAMtZZg2YDd3aflny5FbWOkvg5NXSdlnS5FXWOkvg5NXSdnnS5FbeQisC5DVnNwVwTje5KQpgOcusAbOhW9svS57cylpnCZy8WtouS5q8ylpnCZy8WtouT5rcyltoRYC85uymAM7pJjdFASxnmTVgNnRr+2XJk1tZ6yyBk1dL22VJk1dZ6yyBk1dL2+VJk1t5C60IkNec3RTAOd3kpiiA5SyzBsyGbm2/LHlyK2udJXDyamm7LGnyKmudJXDyamm7PGlyK2+hFQHymrObAjinm9wUBbCcZdaA2dCt7ZclT25lrbMETl4tbZclTV5lrbMETl4tbZcnTW7lLbQiQF5zdlMA53STm6IAlrPMGjAburX9suTJrax1lsDJq6XtsqTJq6x1lsDJq6Xt8qTJrbyFVgTIa85uCuCcbnJTFMByllkDZkO3tl+WPLmVtc4SOHm1tF2WNHmVtc4SOHm1tF2eNLmVt9CKAHnN2U0BnNNNbooCWM4ya8Bs6Nb2y5Int7LWWQInr5a2y5Imr7LWWQInr5a2y5Mmt/IWWhEgrzm7KYBzuslNUQDLWWYNmA3d2n5Z8uRW1jpL4OTV0nZZ0uRV1jpL4OTV0nZ50uRW3kIrAuQ1ZzcFcE43uSkKYDnLrAGzoVvbL0ue3MpaZwmcvFraLkuavMpaZwmcvFraLk+a3MpbaEWAvObspgDO6SY3RQEsZ5k1YDZ0a/tlyZNbWessgZNXS9tlSZNXWessgZNXS9vlSZNbeQutCJDXnN0UwDndlmbqvb0fFFW5O8nnpQEOEBQYowAb+hhxeGhpFSC3S2sNwEYoQF5HiMJdS6sAeV1aawA2QgHyOkIU7lp6Bcjt0lsEwJoC5LUmxhRfUgBPIdYyPpUCeBldAdOsCrChz6og84tQgNwuQnWOmVWAvGaVY24RCpDXRajOMbMKkNescswtUgFyu0j1Ofa0CpDXaRX76fkUwDnd5Kaqs4PlgAPYUgE2dEvb5UmTW3kLrQiQVyu75cmSV3kLrQiQVyu7e0OW3PbGSgsi5DVnMwVwTje5KQpgOcusAbOhW9svS57cylpnCZy8WtouS5q8ylpnCZy8WtouT5rcyltoRYC85uymAM7pJjdFASxnmTVgNnRr+2XJk1tZ6yyBk1dL22VJk1dZ6yyBk1dL2+VJk1t5C60IkNec3RTAOd3kpiiA5SyzBsyGbm2/LHlyK2udJXDyamm7LGnyKmudJXDyamm7PGlyK2+hFQHymrObAjinm9wUBbCcZdaA2dCt7ZclT25lrbMETl4tbZclTV5lrbMETl4tbZcnTW7lLbQiQF5zdlMA53STm6IAlrPMGjAburX9suTJrax1lsDJq6XtsqTJq6x1lsDJq6Xt8qTJrbyFVgTIa85uCuCcbnJTFMByllkDZkO3tl+WPLmVtc4SOHm1tF2WNHmVtc4SOHm1tF2eNLmVt9CKAHnN2U0BnNNNbooCWM4ya8Bs6Nb2y5Int7LWWQInr5a2y5Imr7LWWQInr5a2y5Mmt/IWWhEgrzm7KYBzuslNUQDLWWYNmA3d2n5Z8uRW1jpL4OTV0nZZ0uRV1jpL4OTV0nZ50uRW3kIrAuQ1ZzcFcE43uSkKYDnLrAGzoVvbL0ue3MpaZwmcvFraLkuavMpaZwmcvFraLk+a3MpbaEWAvObspgDO6SY3RQEsZ5k1YDZ0a/tlyZNbWessgZNXS9tlSZNXWessgZNXS9vlSZNbeQutCJDXnN0UwDnd5KYogOUsswbMhm5tvyx5citrnSVw8mppuyxp8iprnSVw8mppuzxpcitvoRUB8pqzmwI4p5vc1P9dd34RHz8cPLmwDznRALwwBdjQFyY9B55BAXI7g3iMdq4Aee1ccg44gwLkdQbxGO1cAfLaueQcsAUFyG0LIrJEZwqQ15zUFMA53eSmfrbu6uLf1j29sI/935+Q0wzAi1OADX1x2nPkvALkNq8dk90rQF6715wj5hUgr3ntmOxeAfLaveYccXYFyO3sGrJCdwqQ15zWFMA53eSmKIDlLLMGzIZubb8seXIra50lcPJqabssafIqa50lcPJqabs8aXIrb6EVAfKas5sCOKeb3BQFsJxl1oDZ0K3tlyVPbmWtswROXi1tlyVNXmWtswROXi1tlydNbuUttCJAXnN2UwDndJObogCWs8waMBu6tf2y5MmtrHWWwMmrpe2ypMmrrHWWwMmrpe3ypMmtvIVWBMhrzm4K4JxuclMUwHKWWQNmQ7e2X5Y8uZW1zhI4ebW0XZY0eZW1zhI4ebW0XZ40uZW30IoAec3ZTQGc001uigJYzjJrwGzo1vbLkie3stZZAievlrbLkiavstZZAievlrbLkya38hZaESCvObspgHO6yU1RAMtZZg2YDd3aflny5FbWOkvg5NXSdlnS5FXWOkvg5NXSdnnS5FbeQisC5DVnNwVwTje5KQpgOcusAbOhW9svS57cylpnCZy8WtouS5q8ylpnCZy8WtouT5rcyltoRYC85uymAM7pJjdFASxnmTVgNnRr+2XJk1tZ6yyBk1dL22VJk1dZ6yyBk1dL2+VJk1t5C60IkNec3RTAOd3kpiiA5SyzBsyGbm2/LHlyK2udJXDyamm7LGnyKmudJXDyamm7PGlyK2+hFQHymrObAjinm9wUBbCcZdaA2dCt7ZclT25lrbMETl4tbZclTV5lrbMETl4tbZcnTW7lLbQiQF5zdlMA53STm6IAlrPMGjAburX9suTJrax1lsDJq6XtsqTJq6x1lsDJq6Xt8qTJrbyFVgTIa85uCuCcbnJTFMByllkDZkO3tl+WPLmVtc4SOHm1tF2WNHmVtc4SOHm1tF2eNLmVt9CKAHnN2U0BnNNNbooCWM4ya8Bs6Nb2y5Int7LWWQInr5a2y5Imr7LWWQInr5a2y5Mmt/IWWhEgrzm7KYBzuslNUQDLWWYNmA3d2n5Z8uRW1jpL4OTV0nZZ0uRV1jpL4OTV0nZ50uRW3kIrAuQ1ZzcFcE43uSkKYDnLrAGzoVvbL0ue3MpaZwmcvFraLkuavMpaZwmcvFraLk+a3MpbaEWAvObspgDO6SY3RQEsZ5k1YDZ0a/tlyZNbWessgZNXS9tlSZNXWessgZNXS9vlSZNbeQutCJDXnN0UwDnd5KYogOUsswbMhm5tvyx5citrnSVw8mppuyxp8iprnSVw8mppuzxpcitvoRUB8pqzmwI4p5vcFAWwnGXWgNnQre2XJU9uZa2zBE5eLW2XJU1eZa2zBE5eLW2XJ01u5S20IkBec3ZTAOd0k5uiAJazzBowG7q1/bLkya2sdZbAyaul7bKkyausdZbAyaul7fKkya28hVYEyGvObgrgnG5znzpy5Gjxww8Hivjcxo0CuA0VWaMrBdjQu1Ka47SpALltU03WmrcC5HXeCrN+mwqQ1zbVZK15K0Be560w689DAXI7D1VZc14KkNecsrIF8I8//lgcOnS4LEmjKK1/HDt2PKdGx1NHjx4rfn3D7cWvztlavPraGyuOfsed9xU/X3dOEZ/buFEAt6Eia3SlABt6V0pznDYVILdtqsla81aAvM5bYdZvUwHy2qaarDVvBcjrvBVm/XkoQG7noSprzksB8ppTVrYAjpL36p03liVpFKXDH+dsvLD446N/Ko4fX94y+OOPPy1+dfbWkUUvBXAu0Ez1QwE29H746MaC3Lo5rs2XvGr754aevLo5rs2XvGr754qe3Lo6r8mbvOZ860UBHGfQbj7/kmLjpm3FL844d0UZvPPam4s403YZb4Erit5t268s3n3v/RUQKYBXyME3ZgqwoZsZ3hO65LYnRprQIK8mRveEJnntiZEmNMiridE9o0lue2Zoz+mQ15zBvSiAH9v9xAr2hw8fLv7jvt8MyuAnn/r7iscVvqEAVnAJjPNSgA19Xsqy7jwVILfzVJe121aAvLatKOvNUwHyOk91WbttBchr24qyXhcKkNsuVOYYbSlAXnNK9rIADinizdMu23FteTbw7XfcW8Q1g5VuFMBKboG1bQXY0NtWlPW6UIDcdqEyx2hLAfLalpKs04UC5LULlTlGWwqQ17aUZJ0uFSC3XarNsWZVgLzmFOxtARxyVCXqJAXwqVOnigMHDhaj3kCueizeaC6eE9/P+1Zhj89t3HgTuDZUZI2uFGBD70ppjtOmAuS2TTVZa94KkNd5K8z6bSpAXttUk7XmrQB5nbfCrD8PBcjtPFRlzXkpQF5zyva2AK6fATx8iYjqzdfiDdg++vjT4umnny/Wb9hcni0cbyxXlcCff/5lcd2vby3WnblxxXWFz1y/qfjtg48UJ06cXKF6HGf4zehGfV/hiUJ5y9ZLy5k9e15fsRYF8Ao5+MZMATZ0M8N7Qpfc9sRIExrk1cTontAkrz0x0oQGeTUxumc0yW3PDO05HfKaM7iXBXBc7mH340+U1wC+4KLLi/37v12hTr0AfvxPTxbrN2wZFLdVARwlcHwdBe55m7YXt9x2d3H3vQ8Ul1y6c3Bt4V0PPLzi0hKTFMB1PBTAK2zhGxQYKMCGPpCCL4QUILdCZgG1IK+EQEkB8qrkFljJKxlQVIDcKrrmi5m85rzvRQEcl3h48aU95cdTf/3HoKTdeuGO4pNP961SpiqAz/rl5mLTlouLKHKPHz9ePu9//ud/ylI3CuC77t5VvP32eytK3iiXH33sL2UxvPn8S4pvvtm/av3hOz788JPinI0XFnHmcOCsbhTAlRJ8RoGVCrChr9SD7zQUILcaPoHyJwXIK0lQUoC8KrkFVvJKBhQVILeKrvliJq8573tRAI+6zMIFF+0odj/+ZHH48OFVylQFcMxVZ/wOPymK3tOnTw/fXX7/9df7i/M2by/OOOu84s233h35nOrOo0ePFTuvvbksjB/+3aMrymQK4EolPqPASgXY0FfqwXcaCpBbDZ9A+ZMC5JUkKClAXpXcAit5JQOKCpBbRdd8MZPXnPe9KIAv3XFNeXmGuERDnLW77eKrBtftjev8vvraGyvUqRfAf/3bP1c8ttY3UQzHtYHjzOEokIev3Vufj+fG2cXxvCiBowyu3yiA62rwNQr8SwE29H9pwVc6CpBbHa9AWnAJCEIgpQD7q5Rd9mDJq30EJAUgt5K22YImrznre1EAV2+qVpfg8OEjxU233FmWrxvP21bs+/yLwcNVARyXgHhv7weD+4e/iAI3nvvAf/6uuPjSq4tzNl5Urlc/43hcARyXe4jLPsTlH+IyEMM3CuBhRfgeBX5SgA2dJCgqQG4VXfPFTF59vVdkTl4VXfPFTF59vVdmTm6V3fPDTl5znve2AA454vq8cZ3eKGz/9OenBgpVBXCcHRxfj7rF2bo333rXoPBdd+bG8qzfOJM3rjlcvXFcUwH8zTffFlsvvKx8w7hnnnlh1CEKCuCRsnAnCnBmGhmQVIAXIpK22YImr7bWSxInr5K22YImr7bWSxMnt9L22YEnrznLe10Axxu5xTV+owC+4877BgqtVQDXL90QBfKbb72z4nrA44rbOEj9ur9xWYpTp04Njl3/Ytw6gXcYd3122q9/tu7q4t/WPb2wj/3fn5gWMs83VoAN3dh8YerkVtg8Q+jk1dB0YcrkVdg8Q+jk1dD0HlAmtz0w0YgCec2Z3esC+MiRo8VlO64ti9T7dz00UGitAvjAgYPl2btRwD7z7IuDueqLccVtlMe7H3+iPPP3om1XFN999301turzuHUogFfJxR1GCrChG5ndI6rktkdmGlAhrwYm94giee2RmQZUyKuByT2kSG57aGqPKZHXnLm9LoCra/D+4oxzi+eef2mg0FoFcFXMNl0j+PU33i7OOOu8slgevgREnC0c1/2Ny0t88OHHg2OO+qI6ThTNw+tQAI9SjPtcFGBDd3G6XzzJbb/87Dsb8tp3h/vFj7z2y8++syGvfXe4n/zIbT997Ssr8ppztncFcJyBe+DgweKx3X8p1m/YXJa0l11+bXH48OGBQmsVwPUzgB986A8rLv/w1VffFBdcdHm57nBxu3//t+VjUTjHWcCBZdyNAnicOjzmrAAburP7utzJra53jsjJq6PrupzJq653jsjJq6Pr+pzJrb6HTgzIa87tXhTAUcQ2fWy7+KoiStv6ba0CuH4N4ChzL7l0ZxHX8r3hxjvKs3uvu/7WYuOmbSvOAI7r/N551/2NOOr4Htv9RAmHArjuCl+jwL8UYEP/lxZ8paMAudXxCqQFb7ZJCKQUYH+VssseLHm1j4CkAORW0jZb0OQ1Z30vC+B1Z24sovh9+unnixMnTq5SZq0COAaOHz9e3HXPriLWqsrb+DquJfzfX31dbNl66YoC+LXX3yyv+1s9d9xnCuBVlnAHCqxQgA19hRx8I6IAuRUxCpilAuSVICgpQF6V3AIreSUDigqQW0XXfDGT15z3sgVwju70U8eOHS/27fui/IivVW8/W3d18W/rnl7Yx/7vT6hKB+4FKMCGvgDROeTMCpDbmSVkgQ4VIK8dis2hZlaAvM4sIQt0qAB57VBsDtWaAuS2NSlZqAMFyGtOZArgnG5yUxTAcpZZA2ZDt7Zfljy5lbXOEjh5tbRdljR5lbXOEjh5tbRdnjS5lbfQigB5zdlNAZzTTW6KAljOMmvAbOjW9suSJ7ey1lkCJ6+WtsuSJq+y1lkCJ6+WtsuTJrfyFloRIK85uymAc7rJTVEAy1lmDZgN3dp+WfLkVtY6S+Dk1dJ2WdLkVdY6S+Dk1dJ2edLkVt5CKwLkNWc3BXBON7kpCmA5y6wBs6Fb2y9LntzKWmcJnLxa2i5LmrzKWmcJnLxa2i5PmtzKW2hFgLzm7KYAzukmN0UBLGeZNWA2dGv7ZcmTW1nrLIGTV0vbZUmTV1nrLIGTV0vb5UmTW3kLrQiQ15zdFMA53eSmKIDlLLMGzIZubb8seXIra50lcPJqabssafIqa50lcPJqabs8aXIrb6EVAfKas5sCOKeb3BQFsJxl1oDZ0K3tlyVPbmWtswROXi1tlyVNXmWtswROXi1tlydNbuUttCJAXnN2UwDndJObogCWs8waMBu6tf2y5MmtrHWWwMmrpe2ypMmrrHWWwMmrpe3ypMmtvIVWBMhrzm4K4JxuclMUwHKWWQNmQ7e2X5Y8uZW1zhI4ebW0XZY0eZW1zhI4ebW0XZ40uZW30IoAec3ZTQGc001uigJYzjJrwGzo1vbLkie3stZZAievlrbLkiavstZZAievlrbLkya38hZaESCvObspgHO6yU1RAMtZZg2YDd3aflny5FbWOkvg5NXSdlnS5FXWOkvg5NXSdnnS5FbeQisC5DVnNwVwTje5KQpgOcusAbOhW9svS57cylpnCZy8WtouS5q8ylpnCZy8WtouT5rcyltoRYC85uymAM7pJjdFASxnmTVgNnRr+2XJk1tZ6yyBk1dL22VJk1dZ6yyBk1dL2+VJk1t5C60IkNec3RTAOd3kpiiA5SyzBsyGbm2/LHlyK2udJXDyamm7LGnyKmudJXDyamm7PGlyK2+hFQHymrObAjinm9wUBbCcZdaA2dCt7ZclT25lrbMETl4tbZclTV5lrbMETl4tbZcnTW7lLbQiQF5zdlMA53STm6IAlrPMGjAburX9suTJrax1lsDJq6XtsqTJq6x1lsDJq6Xt8qTJrbyFVgTIa85uCuCcbnJTFMByllkDZkO3tl+WPLmVtc4SOHm1tF2WNHmVtc4SOHm1tF2eNLmVt9CKAHnN2U0BnNNNbooCWM4ya8Bs6Nb2y5Int7LWWQInr5a2y5Imr7LWWQInr5a2y5Mmt/IWWhEgrzm7KYBzuslNUQDLWWYNmA3d2n5Z8uRW1jpL4OTV0nZZ0uRV1jpL4OTV0nZ50uRW3kIrAuQ1ZzcFcE43uSkKYDnLrAGzoVvbL0ue3MpaZwmcvFraLkuavMpaZwmcvFraLk+a3MpbaEWAvObspgDO6SY3RQEsZ5k1YDZ0a/tlyZNbWessgZNXS9tlSZNXWessgZNXS9vlSZNbeQutCJDXnN0UwDnd5KYogOUsswbMhm5tvyx5citrnSVw8mppuyxp8iprnSVw8mppuzxpcitvoRUB8pqzmwI4p5vcFAWwnGXWgNnQre2XJU9uZa2zBE5eLW2XJU1eZa2zBE5eLW2XJ01u5S20IkBec3ZTAOd0k5uiAJazzBowG7q1/bLkya2sdZbAyaul7bKkyausdZbAyaul7fKkya28hVYEyGvObgrgnG5yUxTAcpZZA2ZDt7Zfljy5lbXOEjh5tbRdljR5lbXOEjh5tbRdnjS5lbfQigB5zdlNAZzTTW6KAljOMmvAbOjW9suSJ7ey1lkCJ6+WtsuSJq+y1lkCJ6+WtsuTJrfyFloRIK85uymAc7rJTVEAy1lmDZgN3dp+WfLkVtY6S+Dk1dJ2WdLkVdY6S+Dk1dJ2edLkVt5CKwLkNWc3BXBON7mpKIDj48U3vlvIx/7vT8hpBuDFKcCGvjjtOXJeAXKb147J7hUgr91rzhHzCpDXvHZMdq8Aee1ec444uwLkdnYNWaE7BchrTmsK4JxuclM/X3dOER/cUEBBATZ0BZfAOKwAuR1WhO+XWQHyuszugG1YAfI6rAjfL7MC5HWZ3QFbkwLktkkZ7l9GBchrzhUK4JxuclMUwHKWWQNmQ7e2X5Y8uZW1zhI4ebW0XZY0eZW1zhI4ebW0XZ40uZW30IoAec3ZTQGc001uigJYzjJrwGzo1vbLkie3stZZAievlrbLkiavstZZAievlrbLkya38hZaESCvObspgHO6yU1RAMtZZg2YDd3aflny5FbWOkvg5NXSdlnS5FXWOkvg5NXSdnnS5FbeQisC5DVnNwVwTje5KQpgOcusAbOhW9svS57cylpnCZy8WtouS5q8ylpnCZy8WtouT5rcyltoRYC85uymAM7pJjdFASxnmTVgNnRr+2XJk1tZ6yyBk1dL22VJk1dZ6yyBk1dL2+VJk1t5C60IkNec3RTAOd3kpiiA5SyzBsyGbm2/LHlyK2udJXDyamm7LGnyKmudJXDyamm7PGlyK2+hFQHymrObAjinm9wUBbCcZdaA2dCt7ZclT25lrbMETl4tbZclTV5lrbMETl4tbZcnTW7lLbQiQF5zdlMA53STm6IAlrPMGjAburX9suTJrax1lsDJq6XtsqTJq6x1lsDJq6Xt8qTJrbyFVgTIa85uCuCcbnJTFMByllkDZkO3tl+WPLmVtc4SOHm1tF2WNHmVtc4SOHm1tF2eNLmVt9CKAHnN2U0BnNNNbooCWM4ya8Bs6Nb2y5Int7LWWQInr5a2y5Imr7LWWQInr5a2y5Mmt/IWWhEgrzm7KYBzuslNUQDLWWYNmA3d2n5Z8uRW1jpL4OTV0nZZ0uRV1jpL4OTV0nZ50uRW3kIrAuQ1ZzcFcE43uSkKYDnLrAGzoVvbL0ue3MpaZwmcvFraLkuavMpaZwmcvFraLk+a3MpbaEWAvObspgDO6SY3RQEsZ5k1YDZ0a/tlyZNbWessgZNXS9tlSZNXWessgZNXS9vlSZNbeQutCJDXnN0UwDndlmbqvb0fFFW5O8nnpQEOEBQYo8A33x8t4oMbCigpQG6V3AIreSUDSgqQVyW3wEpeyYCiAuRW0TVfzOQ15z0FcE63pZmatADecsFlxSN/fHxpcAMEBVAABVAABVAABVAABVAABVAABVAABVAABVBg/gpQAM9fY46AAiiAAiiAAiiAAiiAAiiAAiiAAiiAAiiAAiiAAgtRgAJ4IbJzUBRAARRAARRAARRAARRAARRAARRAARRAARRAARSYvwIUwPPXmCOgAAqgAAqgAAqgAAqgAAqgAAqgAAqgAAqgAAqgwEIUoABeiOwcFAVQAAVQAAVQAAVQAAVQAAVQAAVQAAVQAAVQAAXmrwAF8Pw15ggogAIogAIogAIogAIogAIogAIogAIogAIogAIosBAFKIAXIjsHRQEUQAEUQAEUQAEUQAEUQAEUQAEUQAEUQAEUQIH5K0ABPH+NOQIKoAAKoAAKoAAKoAAKoAAKoAAKoAAKoAAKoAAKLEQBCuCFyM5BUQAFUAAFUAAFUAAFUAAFUAAFUAAFUAAFUAAFUGD+ClAAz19jjoACKIACKIACKIACKIACKIACKIACKIACKIACKIACC1GAAnghsnNQFEABFEABFEABFEABFEABFEABFEABFEABFEABFJi/AhTA89eYI6AACqAACqAACqAACqAACqAACqAACqAACqAACqDAQhSgAF6I7BwUBVAABVAABVAABVAABVAABVAABVAABVAABVAABeavAAXw/DXmCCiAAiiAAiiAAiiAAiiAAiiAAiiAAiiAAiiAAiiwEAUogBciOwdFARRAARRAARRAARRAARRAARRAARRAARRAARRAgfkrQAE8f40XeoTTp08Xn3/xZfHiS3vKj48+/rQ4derUQjFx8OVS4MSJk8Wf/vxU8cmn+yYCdvToseKNN98p87Rnz+vFgQMH5zrXtHjXOLLHa8LP/dMpEDmLvMVe9vIrrxVfff1NEfvbWrfsHpida8KTXa/ruSb83D+dAocOHR7sk5HZaf7vze41J0+eLN55Z+/g38g333xb/Pjjj9MBrz07iyM71zb+GhW+TChw5MjR4ocfDhTxedwtu0dFNiOjsZ/Hv5HIbmQge8viyM61jT/L23Guymbkc9RH7L/j9r7sXpOda/Ko672ybfxNvLh/vAJ1H2Lvi5+pIgtNt+xek51bFhxt42/ixf3/UiA6ovh5a9S+Ouq+yPKoWz3j8X/8pK9Hs3OjMMR92fW6nmvCP6/7KYDnpewSrPvRR58UWy/cUfx83TkrPuK+d97duwQIgbBoBT7//FOO7MoAAB0FSURBVMvikkt3lvmIcm3cLYri3/z298W6MzeuyFN8f/+uh4rjx4+PHM/OjVysKIrsel3PNeHn/ukU+Pa774ubbv734hdnnLsid7GvxV4W+1zTLbsHZueWBUfb+Jt4cf9qBT7b93lx0bYrVmU18nr2uRcUe159o7GYyO5RUWD95Yn/KtZv2LziuPFvJv7txIv2aW5ZHNm5tvFPw5Xnjlbg22+/Ky646KfXj3fced/oJxVFuf9mXmfGD4NXXHn9irxW/0aef+Hlxn8jTUCye152rm38Tby4f7UCUVDcfMudq7JT/1nn6p03FseOrX5Nmt1rsnOr0f90T9d7Zdv4m3hx/3gFwvff/f6xVf9XR3a3bL105P/V2b0mO9fEILte13NN+Ll/MgU+/vjT4ldnbx27v9b32uHuILvXZOeaWGXX63quCf+876cAnrfCC1r/ww8/Kc7ZeGH5DzhenMcPh48+9ufyP5j4hxuPxXO4+SkQv1GN4veGG+9YUaoNb+J1ZeIF9933PlDm6cz1m4r4gfCfTz9X3HzrXYNCOB4fPrs8O1c/dv3r7Hpdz9Ux83VegcOHDxfbL7m6zN2mLRcXux54qMzdv995X7Hh7PPL+5v2suwemJ1rYpldr+u5JvzcP50CsY9G8Rq/WNv9+BPF88+/XOY2yt/4vzf2zzffemfVotk9KvbzOE4cM34Zd92vby3/jcR+XBXCO6+9eezZRXUwWRzZubbx17nwdU6B8OTh3z1a5jUy21QAZ/eo/fu/LS646PJy/Y2bthV/+OOfiqf++o9i28VXDf6NxFlxk96yOLJzbeOflCfP+0mBKHaj4I09L/Kz+fxLVn3cets9xfHjJ1ZIlt1rsnMrDl77puu9sm38NSp8OYUCcYZv/P8ce2r8Xx0Zjn0vPm686Y7iou1XrCqAs3tNdq6JTna9ruea8HP/5ArESQzbL7lq1Z5a32dj3439N4riKIyrW3avyc5Vxx3+nF2v67lh3F1+TwHcpdodHSt+w/jrG28v/5OJoiS+r27xH9CVV99QPhbPqT9WPYfP/VXgyy+/Gvzg9dMvAi4qC4n4elwBHIVFFBex2e/d+8EKgeJsnTPOOm9ksZGdW3GA2jfZ9bqeq0HmyxkUiDMXowB+9rkXV13uIR67/Irryr3sxpv+fcWfDmf3wOxcE8Xsel3PNeHn/ukViEsuxS/Yhm8HDx4qLttxbZnX62+4bUVe47nZPWrf518UG8/bVu7Bzz730oozJz/48ONyz44X6n/92z+HIY38PosjO9c2/pGkuHMqBSpP4nVBfIwqgLN7VPyAteuBh8t1r7zq18Xhw0cG2KIYu/Ou+8vHogw+cHDty0tlcWTn2sY/IM8XEytw9NixIrIzXD6stUCV63i9Os1emZ1rwtP1Xtk2/iZe3N+sQOxt9/7Hb8q9beuFlxWfffb5qifHmYexv1S37F6TnauOO/w5u17Xc8O4+X4+CoSv1S+I4//y+L66Zfea7Fx13OHP2fW6nhvG3eX3FMBdqt3Rsd7b+0Fx1i83l2f57tv3xaqjvv7G2+UPi9O+eFq1EHfIKVD9aUecPbn78SeLr7/ePzgrvKkAjhcu1Z/b3Xf/gys2+xAgfpC67vqffqsdP7xV/xlk55pEza7X9VwTfu6fXoE40yf+FLnp9sr/O9ty+E/nsntgdq4JX3a9ruea8HN/uwpECRuF2nBes3tUoHvo4T+Wa8YeHHtx/RZ7cezZccymP4muPz+LIzvXNv46F77OKRBe3nLr3eVrxOpSJqMK4OweFa85ztu8vVw/XosO3+I1a/xVR/zSIvb3tW5ZHNm5tvGvxY/HVysQv/yNPXTan2Gye2V2bjXyovwruczr6VgriyM7Nwo/9+UUqJf+8YvZSW7ZvSY714Qpu17Xc034ub9dBaqSNE48iK/rt+xek52rH7v+dXa9rufqmLv+mgK4a8U7OF4V4FFnGcXhDx46VGzbfmX5Q+GkZwV1AJtDdKBAXE81rkFZXa+3eiEdBUFTAVz/T/zNt94dibIqNiJXka+4ZedGHmCG9bI4snNN+Lm/fQWqX2gM/yCY3QOzc03Msut1PdeEn/vbVSD22FEFcHaviTdCqs4qbvq/PPbsOOPt3PMuKt8QdhyjLI7sXNv4x3HjsckUqP6iJ/5C7PeP7C7zOqoAzu5Rzzz7Yrlm/bVCHVm88Uq8do1/J/HeAmvdsjiyc23jX4sfj69WoHrdOvyLtNXP/Nc92b0mO/evI6/8quu9sm38K9nw3SQKxC/Vbrv9nnJPG3USTdMa2b0mO7csONrG38SL+6dXILJ81z27yizHWcDVCV+xUnavyc41oc+u1/VcE/6u7qcA7krpjo4T17yK6/3Fi+c/PvrnkUetn60T/5C5+SpQvZAeVwC/9vqb5dk4cf2f7777fqRY1dk0cZ3LTz/dVz4nOzfyAEVRZNfreq4JP/e3r0CVu/oPgtk9MDvXxCq7XtdzTfi5v30FHtv9RPl/8/AvZ7N7VOy1sefGX3TEm1mNulWFQ5xRGccZd8viyM61jX8cNx5bW4F4s5748+Q4A/eTTz4rqrwOF8DZPSoQVD883n7HvSt+eKyjq8rZeC0bx2q6ZXFk59rG38SL+8crUO0b9f/3x08U5evSzF5ZHWvRe2wWR3ZuLT15fHIFqv+D4y9z4zXrpLfsXpmda8KVXa/ruSb83N+eAtVJN/GeLF999c2KhbN7TXZuxcFr32TX63quBnkhX1IAL0T2+R30wIGD5Qv4KPReevnVxgPFmRXxnOEfRBsHeKCXCkxSAP/pz0+VWYlrrsW110bd4rqXcYZZnGlWnSWcnRu1ftyXXa/ruSb83N+uAvGb5+o6VPU/f8/ugdm5JlbZ9bqea8LP/e0q8N9ffV3+3xzXUh/+0/bsHjVJ8TrNX/xkcWTn2sbfrmNeq8WJAXEJp/hFQbypYOyvTQVwdo+apHgN1Uf9RdEoN7I4snNt4x/FifvWVqAqIca9Jh1eJbvXZOeGj1993/Ve2Tb+igefJ1eg+iuc+OVa7D2xt8Yv215+5bXyLy+///6HVb8My+412bkmNtn1up5rws/97Skw7uzfOEp2r8nONTHLrtf1XBP+ru6nAO5K6Y6OM0mhF1CqF/aTXBewI+gcZgEKTJKXSbIyap3sXJMM2fW6nmvCz/3tKlC9g3sUFs8888Jg8VFZHDxY+2I4F9m52pIrvsyu1/XcCtB804oC8cZWr7zyWvHiS3uK+HPGW267u3yTzPUbNpfv+B0/ANZvw1msP1Z9PSoXTZeUqGbic1xHO/6fj1/4xnHG3bI4snNt4x/HjcfGKxCla+ylcdZtvFlw3Cpfh88AHpXFUatX89XrzEmzOEku4nhZHNm5tvGP0oz71lagKtRiT6t/nLdpe/HbBx8ZeaLCJJka5W92ronF8L+JUc8blc8sjuzcKFzcl1OgKv1jH/zii/8urrjy+hW5jQzHfVEKV7dRWaweq38e9jc7V1+z/nV2va7n6pj5ej4KVNfnj78QGvX+UsNZHIViVC6yc6PWj/uy63U914S/q/spgLtSuqPjVKewr/WnJpO8COkIModZoAKjXmgOw6n+jCfeuCJ+AzjqNmqd7Nyo9eO+7HpdzzXh5/72FHj/g4+KeAOCeOF80y13rnjzq+wemJ1rYpVdr+u5Jvzcn1egOkOtXk5cefUNxbvvvV/EO30P37J7VPWDZVwHOK5fNuo26gX3qOfFfVkc2bm28Tfx4v7xClS/TIsf7OLr6la9ThwugLN7VP3M2/jFSNNtkh/EYjaLIzvXNv4m/tw/XoEqH/X9tf51vDb46ONPVyyS3WuycysOXvum672ybfw1Knw5oQJxOcbI59XX3FTE64C4nEj8Uvjuex8ofn3D7cW6MzeWj8ebblaX2cvuNdm5JirZ9bqea8LP/e0oECctVG8o3HQd6+xek51rYpZdr+u5Jvxd3U8B3JXSHR2n+sFz+E2Rhg9fvbCvzswYfpzvPRQYVdwOM48f/uLFy/APgfXnjVonO1dft/51dr2u5+qY+bpdBaI8+8sT/1XEmZSRyZtvvWtwtlp1pOwemJ2rjjv8Obte13PDuPl+dgXiTJ5dDzxU/oAX+8/WC3cMfsi77PJriy+//GrFQbJ71CT/j09TAGdxZOfaxr9CVL6ZSIEoHKJ4iLN/h99IsPIn/K3fsnvUqNcJ9XWrr6uCb61rvGZxZOfaxl/x5fPsCsRZ64/t/svgtUG9TIvVqyyP+5ln1F6ZnWti1PVe2Tb+Jl7c36xA5XkUvVftvKH8y4X6s99//8PyuuvxmjbeeDNu2b0mO1fHU/86u17Xc3XMfN2+At98s7+I9wFav2FLESfgjLpl95rs3CgMcV92va7nmvB3dT8FcFdKd3SceDEf/0jjP5J4Ed10myToTbPc3x8FJvlPevDb6503ln9OPIr9qHWyc6PWj/uy63U914Sf+2dTIP6sPs72jb0tXkg/8ofHV5z5W62e3QOzc9Vxhz9n1+t6bhg3389HgW+/+748+yfyO1xOZPeouM5/rDeuKBtVajQxzOLIzrWNv4kX949WIP6iJ85CiwzF5+G/8KleJw4XwNk9Kt5DIK7bGseLtZtukxbAWRzZubbxN/Hn/rwCcdmduM56ZKz+C43sXpOda2LQ9V7ZNv4mXtzfrEBVAEd5Fn8FNHyrn11Z/TVPdq/Jzg1jqr7Prtf1XIWXz/NR4Mmn/l7uqeN+gZbda7JzTUyz63U914S/q/spgLtSuqPjjCriRh26ehO4cX/WP2qO+/qlwCR5qX4IHLfxV28CV7/0SHauSeHsel3PNeHn/rwCka94A434oS5+wfXOu3sbF5sk0zE8vAdm55qAZNfreq4JP/e3r0C8a3K8e/JwOZHdoyYpyupvAjfuz+6DbRZHdq5t/O071t8Vo+yNs83izN9Ld1xTXpsy9p76R/Umm/GXFtX98QuF7B416S8jqjeBq8qQJheyOLJzbeNv4sX9eQVOnDhZxJvCxh4bl1uobtm9JjtXHXf4c9d7Zdv4h/nw/doKVJ6P28+GfcruNdm5JhbZ9bqea8LP/bMrUPcyiuCm23CGRz1v1OvR7Nyo9eO+7HpdzzXh7+p+CuCulO7oOJP81i1e+EfxGy+QHnr4jx0h4zDLqMAkPwhN8lux9/Z+UET5e97m7cXXX+8vqWbnmnTKrtf1XBN+7s8pENfyq1/vN84EHnfL7oHZuSYs2fW6nmvCz/3tK1D/v7deTmT3qI8++qS8nuC4Sz7Ffhz7cv2Xc03Msjiyc23jb+LF/asVqP/fH68FJ/2IMiO7R8WZbrffcW95rOGziusI43Vp4FnrBIUsjuxc2/jrnPm6PQWqMy7rGcvuNdm5JjZd75Vt42/ixf3NClS/0Iq/foi9Z9RtuHzK7jXZuVGY4r7sel3PNeHn/tkViEs+xNnrTW/+Vh0hu9dk56rjDn/Ortf13DDurr+nAO5a8Q6Ot9abDHz//Q/F+VsvLc/8eGXMZSI6gMohFqxA/YfAeAEy6jbJG6ZUv+GunyWcnRuFIe7Lrtf1XBN+7p9egbiuX7xpRpQBo/5EuWnF7B6YnVsWHG3jb+LF/TkF6gVwnIFe3bJ71CRvtBL/x8dZnvF/fvzfP+6WxZGdaxv/OG48tlKBAwcPlpdjiL+oaPr41Tlby703rrlePaf6s/rsXrPWG63UzzaK1xVr3bI4snNt41+LH49Pp0DTHpvda7JzTai73ivbxt/Ei/ubFRh1gszws6tfDMRfuoVnccvuNdm5YUzV99n1up6r8PK5XQXiL4XiZ7D4y4r4C4umW3avyc4tC4628Tfxavt+CuC2FV2C9aof+Jp+W/Pc8y+VPxDGdQir/2iWADYQFqDAJAVw/QeyUe/+GSXd5VdcV/4HUf/zkOxckwzZ9bqea8LP/dMrUO1V8cZZhw8fnniB7B6YnWsCll2v67km/NzfrgL1S0DUL8eQ3aPiLJs777q/8cV5lCG33X5P+fiovXuYXRZHdq5t/MN8+H42Bapf7NbPpKxWzO5R1RuwnXHWecXrb7xdLTf4POnZRtVAFkd2rm38FQ8+t6PAvn1flGeqxS+94vVDdcvuNdm56rjDn7veK9vGP8yH79dWoPoZadQbbcZ0/f/p+P86vo9bdq/JzjUxya7X9VwTfu7PK1Dfr9b6hWx2r8nONbHKrtf1XBP+ru6nAO5K6Q6PU/1nE7+x2XntzUV8X93iB9ALLrq8LIDjt3PcvBWYpAAOhaoiLt5cI95ko7qdPn26ePSxvwx+oRBvrlK/ZeaOHz9R5nb4BXysm1lvEXN1Dfg6r0B1ltaoAmLcqtk9MDtXndUTZ8nFu+VWt+x6Xc9VePk8mwLxC9VdDzy8IgPVivU3gdt28VVFnIFZv2X3tqowi/1y9+NPlH+yGevGi9nnX3i5fEOk+GXwJ598Vj9ceX3MeI1Qvet49WAWR3Yui7/Cy+f5KTCuAM7uUfWyI16L7t//7YBAXN5n5zU3lb+wuPc/fjMoQuIJy7LHZvEPSPLFzArEL8/q/89WC3722eflG2zGvjbql8bZvSY7V71+aWuPzeLIzlW68nl2BeIvJ+L/6Pi/+P33PxwsGP9P/+Ofz5X/T8fPV2++9c7gsexek51r2mOz63U9NxCOL1pToHp/n/iF7Ztvvbvmutm9Jjv32utvlv+u4iS0eE1S3bLrdT1X4V3EZwrgRajewTE//PCT8j+aeCG0cdO2IgqUG268Y/DuuNf9+tYV/1g6gMQhllCBSQvg+I+8erfwdWduLOJSD3fdvavYeuGO8oe1+BPR+BOm4Vtmrrpm5XCZFmtn1lvE3LAOfD+9AidPniyuv+G2Ml+xj631MVwSZ/fAzFz8QBr46mdvVIwz68Vs13MVXj7nFaj20/hBLy65EJmMfXPHFdcN/u+N61nHda2Hb9m9LX6AjOI3jhkfl1y6szxmfI7vY7+OX/bG86rbkSNHi3hDmriuW7zgrd+yOLJzGfx1vHw9PwXGFcBx1OweFaVvlL+xZ244+/ziltvuLj/i67gvfkFSL4bjWMu0x2bwz88lv5VjXx3eY2M/i70u8hOvHT/5dN8qYbJ7TWZuHntsBkeIkJ1bJSB3pBWIMymv//VPr2frP0NduO2nE7Iiz/Vf4FYHyu41mblxe2xmveDQ9VylG5/bUaAqWOvv7zNu5exek52r3i9g+Jds2fW6nhun5bwfowCet8ILXD8uaB2XeYgXRNVH/IYxzlA6fvz4ApFx6GVRoCosIh9N1wCusMa1f3774CODIqPKVGTsnXf3Vk9b9XnaufgtY/y2sekNYP6/9u6mt5EaDABw/zpCcODAH4AbN7hwgsP+iJU4rYRAHJuPdttm74PeSM6G2UzicVMTe56Roml367H92H0zfet65l4vNah2uVSvc5nA8Z8epbl27jxOAEetpTFwbrnYzzXaFjfQp46510vXqF0u1etcJhAx5udffv0iRsbciPfeSHTFSuCpozRGxV9ixPY7KYGWvk/il7+xCjhuao+PtKpj6qnkpe0oLTe3/cd98fHbCVxKAEfNpTFqs3nY7+8eiY80XyMx8sOPPw1xXzI+bi3Gzm3/uD8+Lxf47fd3kzE2Fiaci7GlsWZuubeKsXPbkZRLy6Xyzq8XiJ+74+fvuBdIMS/OU+/TqcbSWDO33KUYO/d6tduf6nO+nkC6Bzj3AMNxbaWxZm65tEho6gHHc6+X+lG7XKq39lkCuLZ45friB7/d7tMQm9Df36+G+IZxEHiNQMyhmEsxp2JujZMLU9fOLZfecKaSaen6uddLX5/Otculep3/H4HSGJhbLiWqL/2GPPd6Y6Xa5cb1+3y+QNxAxhYPsR/lhw9/7vfajxWyuUdpjIo6ttvH/S/kIokW7Th1pP1PY/XEuaO0HaXlctt/rs3+r75AaYyKlsZKyVhJHN8rEUtPHbcaY3Pbf6pP/u11AhErYsudmDslMbY01uSWe+sYm9uOsXJpufF1fF4ucPz+GPcJU+/T4xpyYuW4THyeUy43xuZer7Qd1yx36lr+rZ5AaazJLRcPNY6/tJtayJB6mnu99PXpXLtcqrfWWQK4lrR6CBC4KBABN1b+XkqmXbyQLyBQSSBtWTK1Yr1SM1RDIFsgEr9TqyayL+ILCVQSEGMrQavmagJi7NUoXaiCgBhbAVkVVxWIRWhxH3tpIcNVK+3oYhLAHQ2mrhBoXSBWdHz19Xf7vV/jt+QOArcukPbIiod8OAjcukB6yOY3334/vOx2t95c7SMwiLEmQUsCYmxLo6WtISDGmgetCcSzLXIfTtda32q0VwK4hrI6CBDIEoingL9//8cQ+6c5CLQgEHM15mzMXQeBWxeIfXrjh72//v7n1puqfQT2AmKsidCSgBjb0mhpawiIseZBawJxDxv3shFvHfMFJIDnmylBgAABAgQIECBAgAABAgQIECBAgACBJgQkgJsYJo0kQIAAAQIECBAgQIAAAQIECBAgQIDAfAEJ4PlmShAgQIAAAQIECBAgQIAAAQIECBAgQKAJgakE8HrzPKTXZvsy3DXRG40kQIAAAQIECBAgQIAAAQIECBAgQIAAgYOABPCBwgcECBAgQIAAAQIECBAgQIAAAQIECBDoS+B+9TjEa7X6+Pm1fjqs/o1VwFYA9zXmekOAAAECBAgQIECAAAECBAgQIECAwEIEvkgAr5+GlQTwQkZfNwkQIECAAAECBAgQIECAAAECBAgQ6FrgUgI4Vv9aAdz1FNA5AgQIECBAgAABAgQIECBAgAABAgR6FZAA7nVk9YsAAQIECBAgQIAAAQIECBAgQIAAgcULSAAvfgoAIECAAAECBAgQIECAAAECBAgQIECgVwEJ4F5HVr8IECBAgAABAgQIECBAgAABAgQIEFi8gATw4qcAAAIECBAgQIAAAQIECBAgQIAAAQIEehWQAO51ZPWLAAECBAgQIECAAAECBAgQIECAAIHFC0gAL34KACBAgAABAgQIECBAgAABAgQIECBAoFeBSACvVh8/v9ZPw2r9NKw3z/vXZvsyxOuuVwD9IkCAAAECBAgQIECAAAECBAgQIECAQK8C/0kAj5K/kQSWAO515PWLAAECBAgQIECAAAECBAgQIECAAIHuBc4lgFPy1wrg7qeBDhIgQIAAAQIECBAgQIAAAQIECBAg0KOABHCPo6pPBAgQIECAAAECBAgQIECAAAECBAgQGIYhJwG8fdjZA9hsIUCAAAECBAgQIECAAAECBAgQIECAQGsCOQ+AkwBubVS1lwABAgQIECBAgAABAgQIECBAgAABAsMwHBLAZx4AJwFsqhAgQIAAAQIECBAgQIAAAQIECBAgQKBBgakE8PED4CSAGxxYTSZAgAABAgQIECBAgAABAgQIECBAgIAEsDlAgAABAgQIECBAgAABAgQIECBAgACBTgUuJYBj9a8VwJ0Ovm4RIECAAAECBAgQIECAAAECBAgQINC3wD4BfGH/XwngvueA3hEgQIAAAQIECBAgQIAAAQIECBAg0KnAqQTweP9fCeBOB1+3CBAgQIAAAQIECBAgQIAAAQIECBDoW0ACuO/x1TsCBAgQIECAAAECBAgQIECAAAECBBYssMrY/sEK4AVPEF0nQIAAAQIECBAgQIAAAQIECBAgQKBdgXEC+NT2DxLA7Y6vlhMgQIAAAQIECBAgQIAAAQIECBAgsGCBSACvN8+H16kE8MPjp+FuwUa6ToAAAQIECBAgQIAAAQIECBAgQIAAgSYFphLAseo3vSSAmxxajSZAgAABAgQIECBAgAABAgQIECBAYOkCxwngU6t/IwksAbz0WaL/BAgQIECAAAECBAgQIECAAAECBAg0KXBq+4e08jclfyWAmxxajSZAgAABAgQIECBAgAABAgQIECBAYOkCKQF8bvVvJID/BfkfXMGXA/bFAAAAAElFTkSuQmCC;" parent="1" vertex="1">
          <mxGeometry x="150" y="467" width="294.97" height="150" as="geometry" />
        </mxCell>
        <mxCell id="bWYZ4k5fsg8GDxKLtTMg-12" value="To Lecture" style="text;html=1;align=center;verticalAlign=middle;resizable=0;points=[];autosize=1;strokeColor=none;fillColor=none;" parent="1" vertex="1">
          <mxGeometry x="260.99" y="624" width="74" height="26" as="geometry" />
        </mxCell>
      </root>
    </mxGraphModel>
  </diagram>
</mxfile>
